#N canvas 163 125 773 522 10;
#X obj 101 101 cnv 15 338 108 empty empty empty 20 12 0 14 -258113
-66577 0;
#X obj 105 105 cnv 15 330 100 empty empty empty 20 12 0 14 -261234
-66577 0;
#X obj 301 132 tgl 20 0 tone-ch1 tone-ch1 1 5 -8 0 12 -159808 -262144
-1 0 1;
#X obj 370 132 tgl 20 0 tone-ch2 tone-ch2 2 5 -8 0 12 -159808 -262144
-1 0 1;
#X text 221 165 OFF;
#X obj 302 171 tgl 20 0 tone-ch3 tone-ch3 3 5 -8 0 12 -159808 -262144
-1 1 1;
#X obj 371 171 tgl 20 0 tone-ch4 tone-ch4 4 5 -8 0 12 -159808 -262144
-1 0 1;
#X obj 299 299 tgl 20 0 tone-ch5 tone-ch5 5 5 -8 0 12 -262144 -1 -1
1 1;
#X obj 324 299 tgl 20 0 tone-ch6 tone-ch6 6 5 -8 0 12 -262144 -1 -1
1 1;
#X text 259 150 tone;
#X obj 243 135 vradio 15 1 0 2 tone-type tone-type-set empty 0 -6 0
8 -258113 -1 -1 1;
#X obj 203 136 vradio 15 1 0 3 tone-radio tone-radio-set empty 0 -6
0 8 -4034 -1 -1 2;
#X obj 299 338 tgl 20 0 tone-ch7 tone-ch7 7 5 -8 0 12 -262144 -1 -1
1 1;
#X obj 324 338 tgl 20 0 tone-ch8 tone-ch8 8 5 -8 0 12 -262144 -1 -1
1 1;
#N canvas 241 331 321 422 audio 0;
#X obj 25 303 s~ tone-mon;
#X obj 25 277 line~;
#X obj 25 249 pack 0 50;
#X obj 25 223 r tone-monitor;
#X obj 28 139 * 5;
#X obj 28 164 s tone-hip;
#X obj 28 114 r tone-hipass;
#N canvas 424 104 548 519 glue+loadbang 0;
#X obj 8 20 loadbang;
#X obj 175 18 r tone-all;
#X obj 285 16 r tone-none;
#X msg 175 46 \; tone-ch1 1 \; tone-ch2 1 \; tone-ch3 1 \; tone-ch4
1 \; tone-ch5 1 \; tone-ch6 1 \; tone-ch7 1 \; tone-ch8 1;
#X msg 285 47 \; tone-ch1 0 \; tone-ch2 0 \; tone-ch3 0 \; tone-ch4
0 \; tone-ch5 0 \; tone-ch6 0 \; tone-ch7 0 \; tone-ch8 0;
#X msg 8 48 \; pd dsp 1 \; tone-pitch 69 \; tone-radio 2 \; tone-radio-set
set 2 \; tone-type 1 \; tone-type-set 1 \; tone-all 1 \; tone-hipass-set
set 1 \;;
#X connect 0 0 5 0;
#X connect 1 0 3 0;
#X connect 2 0 4 0;
#X restore 22 332 pd glue+loadbang;
#N canvas 207 133 468 559 tone-generator 0;
#X obj 22 187 osc~;
#X obj 22 81 mtof;
#X floatatom 22 58 0 0 0 0 - - -;
#X floatatom 22 103 0 0 0 0 - - -;
#X obj 22 163 sig~;
#X obj 22 33 r tone-pitch;
#X obj 119 179 noise~;
#X obj 65 249 +~;
#X obj 282 140 - 1;
#X obj 282 172 * -1;
#X obj 191 228 line~;
#X obj 281 229 line~;
#X obj 22 211 *~;
#X obj 119 210 *~;
#X msg 191 199 \$1 20;
#X msg 281 200 \$1 20;
#X floatatom 273 109 0 0 0 0 - - -;
#X obj 64 504 *~;
#X obj 86 477 line~;
#X obj 86 450 pack 0 50;
#X floatatom 201 365 0 0 0 0 - - -;
#X obj 86 423 dbtorms;
#X obj 64 530 s~ tone-osc;
#X obj 201 282 r tone-radio;
#X obj 201 310 sel 0 1 2;
#X msg 270 333 0;
#X msg 201 335 80;
#X msg 234 335 60;
#X obj 273 86 r tone-type;
#X obj 89 359 r tone-level;
#X obj 178 453 s tone-level-set;
#X msg 177 428 set \$1;
#X obj 329 452 s tone-radio-set;
#X obj 327 369 sel 80 60 0;
#X msg 327 394 0;
#X msg 360 394 1;
#X msg 393 394 2;
#X msg 329 426 set \$1;
#X msg 423 394 2;
#X obj 72 89 s tone-pitch-set;
#X msg 72 66 set \$1;
#X obj 177 29 r tone-hz;
#X msg 75 117 set \$1;
#X obj 75 140 s tone-hz-set;
#X obj 177 55 ftom;
#X connect 0 0 12 0;
#X connect 1 0 3 0;
#X connect 2 0 1 0;
#X connect 2 0 40 0;
#X connect 3 0 4 0;
#X connect 3 0 42 0;
#X connect 4 0 0 0;
#X connect 5 0 2 0;
#X connect 6 0 13 0;
#X connect 7 0 17 0;
#X connect 8 0 9 0;
#X connect 9 0 15 0;
#X connect 10 0 12 1;
#X connect 11 0 13 1;
#X connect 12 0 7 0;
#X connect 13 0 7 1;
#X connect 14 0 10 0;
#X connect 15 0 11 0;
#X connect 16 0 8 0;
#X connect 16 0 14 0;
#X connect 17 0 22 0;
#X connect 18 0 17 1;
#X connect 19 0 18 0;
#X connect 20 0 21 0;
#X connect 20 0 31 0;
#X connect 21 0 19 0;
#X connect 23 0 24 0;
#X connect 24 0 26 0;
#X connect 24 1 27 0;
#X connect 24 2 25 0;
#X connect 25 0 20 0;
#X connect 26 0 20 0;
#X connect 27 0 20 0;
#X connect 28 0 16 0;
#X connect 29 0 31 0;
#X connect 29 0 21 0;
#X connect 31 0 30 0;
#X connect 33 0 34 0;
#X connect 33 1 35 0;
#X connect 33 2 36 0;
#X connect 33 3 38 0;
#X connect 34 0 37 0;
#X connect 35 0 37 0;
#X connect 36 0 37 0;
#X connect 37 0 32 0;
#X connect 38 0 37 0;
#X connect 40 0 39 0;
#X connect 41 0 44 0;
#X connect 42 0 43 0;
#X connect 44 0 2 0;
#X restore 24 68 pd tone-generator;
#N canvas 76 157 975 436 assigns 0;
#X obj 12 71 hip~ 5;
#X obj 20 122 int;
#X obj 20 96 env~ 8192;
#X obj 12 18 adc~ 1;
#X obj 22 171 r~ tone-mon;
#X obj 31 306 line~;
#X obj 12 196 *~;
#X obj 31 279 pack 0 50;
#X obj 31 253 r tone-ch1;
#X obj 22 226 r~ tone-osc;
#X obj 22 331 *~;
#X obj 12 361 +~;
#X obj 20 44 r tone-hip;
#X obj 132 70 hip~ 5;
#X obj 140 121 int;
#X obj 140 95 env~ 8192;
#X obj 142 170 r~ tone-mon;
#X obj 151 305 line~;
#X obj 132 195 *~;
#X obj 151 278 pack 0 50;
#X obj 142 225 r~ tone-osc;
#X obj 142 330 *~;
#X obj 132 360 +~;
#X obj 140 43 r tone-hip;
#X obj 132 17 adc~ 2;
#X obj 151 252 r tone-ch2;
#X obj 254 72 hip~ 5;
#X obj 262 123 int;
#X obj 262 97 env~ 8192;
#X obj 264 172 r~ tone-mon;
#X obj 273 307 line~;
#X obj 254 197 *~;
#X obj 273 280 pack 0 50;
#X obj 264 227 r~ tone-osc;
#X obj 264 332 *~;
#X obj 254 362 +~;
#X obj 262 45 r tone-hip;
#X obj 370 68 hip~ 5;
#X obj 378 119 int;
#X obj 378 93 env~ 8192;
#X obj 380 168 r~ tone-mon;
#X obj 389 303 line~;
#X obj 370 193 *~;
#X obj 389 276 pack 0 50;
#X obj 380 223 r~ tone-osc;
#X obj 380 328 *~;
#X obj 370 358 +~;
#X obj 378 41 r tone-hip;
#X obj 487 68 hip~ 5;
#X obj 495 119 int;
#X obj 495 93 env~ 8192;
#X obj 497 168 r~ tone-mon;
#X obj 506 303 line~;
#X obj 487 193 *~;
#X obj 506 276 pack 0 50;
#X obj 497 223 r~ tone-osc;
#X obj 497 328 *~;
#X obj 487 358 +~;
#X obj 495 41 r tone-hip;
#X obj 607 67 hip~ 5;
#X obj 615 118 int;
#X obj 615 92 env~ 8192;
#X obj 617 167 r~ tone-mon;
#X obj 626 302 line~;
#X obj 607 192 *~;
#X obj 626 275 pack 0 50;
#X obj 617 222 r~ tone-osc;
#X obj 617 327 *~;
#X obj 607 357 +~;
#X obj 615 40 r tone-hip;
#X obj 254 19 adc~ 3;
#X obj 370 15 adc~ 4;
#X obj 487 15 adc~ 5;
#X obj 607 14 adc~ 6;
#X obj 273 254 r tone-ch3;
#X obj 389 249 r tone-ch4;
#X obj 506 250 r tone-ch5;
#X obj 626 249 r tone-ch6;
#X obj 487 383 dac~ 5;
#X obj 607 382 dac~ 6;
#X obj 725 72 hip~ 5;
#X obj 733 123 int;
#X obj 733 97 env~ 8192;
#X obj 735 172 r~ tone-mon;
#X obj 744 307 line~;
#X obj 725 197 *~;
#X obj 744 280 pack 0 50;
#X obj 735 227 r~ tone-osc;
#X obj 735 332 *~;
#X obj 725 362 +~;
#X obj 733 45 r tone-hip;
#X obj 845 71 hip~ 5;
#X obj 853 122 int;
#X obj 853 96 env~ 8192;
#X obj 855 171 r~ tone-mon;
#X obj 864 306 line~;
#X obj 845 196 *~;
#X obj 864 279 pack 0 50;
#X obj 855 226 r~ tone-osc;
#X obj 855 331 *~;
#X obj 845 361 +~;
#X obj 853 44 r tone-hip;
#X obj 725 19 adc~ 7;
#X obj 845 18 adc~ 8;
#X obj 725 387 dac~ 7;
#X obj 845 386 dac~ 8;
#X obj 744 254 r tone-ch7;
#X obj 864 253 r tone-ch8;
#X obj 20 148 s tone-vu1;
#X obj 140 147 s tone-vu2;
#X obj 262 149 s tone-vu3;
#X obj 378 145 s tone-vu4;
#X obj 495 145 s tone-vu5;
#X obj 615 144 s tone-vu6;
#X obj 733 149 s tone-vu7;
#X obj 853 148 s tone-vu8;
#X obj 12 386 throw~ masterL;
#X obj 132 385 throw~ masterR;
#X obj 369 382 throw~ masterRR;
#X obj 254 387 throw~ masterLR;
#X connect 0 0 6 0;
#X connect 0 0 2 0;
#X connect 1 0 108 0;
#X connect 2 0 1 0;
#X connect 3 0 0 0;
#X connect 4 0 6 1;
#X connect 5 0 10 1;
#X connect 6 0 11 0;
#X connect 7 0 5 0;
#X connect 8 0 7 0;
#X connect 9 0 10 0;
#X connect 10 0 11 1;
#X connect 11 0 116 0;
#X connect 12 0 0 1;
#X connect 13 0 18 0;
#X connect 13 0 15 0;
#X connect 14 0 109 0;
#X connect 15 0 14 0;
#X connect 16 0 18 1;
#X connect 17 0 21 1;
#X connect 18 0 22 0;
#X connect 19 0 17 0;
#X connect 20 0 21 0;
#X connect 21 0 22 1;
#X connect 22 0 117 0;
#X connect 23 0 13 1;
#X connect 24 0 13 0;
#X connect 25 0 19 0;
#X connect 26 0 31 0;
#X connect 26 0 28 0;
#X connect 27 0 110 0;
#X connect 28 0 27 0;
#X connect 29 0 31 1;
#X connect 30 0 34 1;
#X connect 31 0 35 0;
#X connect 32 0 30 0;
#X connect 33 0 34 0;
#X connect 34 0 35 1;
#X connect 35 0 119 0;
#X connect 36 0 26 1;
#X connect 37 0 42 0;
#X connect 37 0 39 0;
#X connect 38 0 111 0;
#X connect 39 0 38 0;
#X connect 40 0 42 1;
#X connect 41 0 45 1;
#X connect 42 0 46 0;
#X connect 43 0 41 0;
#X connect 44 0 45 0;
#X connect 45 0 46 1;
#X connect 46 0 118 0;
#X connect 47 0 37 1;
#X connect 48 0 53 0;
#X connect 48 0 50 0;
#X connect 49 0 112 0;
#X connect 50 0 49 0;
#X connect 51 0 53 1;
#X connect 52 0 56 1;
#X connect 53 0 57 0;
#X connect 54 0 52 0;
#X connect 55 0 56 0;
#X connect 56 0 57 1;
#X connect 57 0 78 0;
#X connect 58 0 48 1;
#X connect 59 0 64 0;
#X connect 59 0 61 0;
#X connect 60 0 113 0;
#X connect 61 0 60 0;
#X connect 62 0 64 1;
#X connect 63 0 67 1;
#X connect 64 0 68 0;
#X connect 65 0 63 0;
#X connect 66 0 67 0;
#X connect 67 0 68 1;
#X connect 68 0 79 0;
#X connect 69 0 59 1;
#X connect 70 0 26 0;
#X connect 71 0 37 0;
#X connect 72 0 48 0;
#X connect 73 0 59 0;
#X connect 74 0 32 0;
#X connect 75 0 43 0;
#X connect 76 0 54 0;
#X connect 77 0 65 0;
#X connect 80 0 85 0;
#X connect 80 0 82 0;
#X connect 81 0 114 0;
#X connect 82 0 81 0;
#X connect 83 0 85 1;
#X connect 84 0 88 1;
#X connect 85 0 89 0;
#X connect 86 0 84 0;
#X connect 87 0 88 0;
#X connect 88 0 89 1;
#X connect 89 0 104 0;
#X connect 90 0 80 1;
#X connect 91 0 96 0;
#X connect 91 0 93 0;
#X connect 92 0 115 0;
#X connect 93 0 92 0;
#X connect 94 0 96 1;
#X connect 95 0 99 1;
#X connect 96 0 100 0;
#X connect 97 0 95 0;
#X connect 98 0 99 0;
#X connect 99 0 100 1;
#X connect 100 0 105 0;
#X connect 101 0 91 1;
#X connect 102 0 80 0;
#X connect 103 0 91 0;
#X connect 106 0 86 0;
#X connect 107 0 97 0;
#X restore 38 387 pd assigns;
#X obj 178 87 loadbang;
#X obj 178 111 1;
#X connect 1 0 0 0;
#X connect 2 0 1 0;
#X connect 3 0 2 0;
#X connect 4 0 5 0;
#X connect 6 0 4 0;
#X connect 10 0 11 0;
#X connect 11 0 4 0;
#X restore 128 301 pd audio;
#X floatatom 244 169 5 0 20000 1 HZ tone-hz-set tone-hz;
#X text 202 106 TEST TONES;
#X text 220 150 60;
#X text 220 133 80;
#X obj 110 251 switch~;
#X obj 109 157 tgl 15 0 empty empty empty 17 7 0 10 -4160 -258113 -1
0 1;
#X obj 109 135 tgl 15 0 empty empty empty 17 7 0 10 -260097 -258113
-1 0 1;
#X text 132 135 on/off;
#X text 262 135 noise;
#X text 316 105 AUDIO OUTPUT;
#X floatatom 331 136 5 0 1 0 - initMasterCalibration mC1;
#X floatatom 331 172 5 0 1 0 - initMasterCalibration mC3;
#X floatatom 398 174 5 0 1 0 - initMasterCalibration mC4;
#X floatatom 397 137 5 0 1 0 - initMasterCalibration mC2;
#X text 107 175 Swipe Arround;
#N canvas 0 22 539 401 swiper 0;
#X obj 96 56 metro 2000;
#X obj 95 99 + 1;
#X obj 96 78 f 0;
#X obj 94 121 % 4;
#X obj 93 145 select 0 1 2 3;
#X msg 63 183 0;
#X msg 72 202 1;
#X msg 115 181 0;
#X msg 124 203 1;
#X obj 97 29 inlet;
#X msg 162 179 0;
#X msg 181 202 1;
#X msg 238 183 0;
#X msg 247 205 1;
#X obj 78 251 s tone-ch1;
#X obj 113 271 s tone-ch2;
#X obj 145 297 s tone-ch3;
#X obj 199 304 s tone-ch4;
#X obj 204 33 inlet;
#X obj 195 72 * 1000;
#X connect 0 0 2 0;
#X connect 1 0 2 1;
#X connect 1 0 3 0;
#X connect 2 0 1 0;
#X connect 3 0 4 0;
#X connect 4 0 5 0;
#X connect 4 0 6 0;
#X connect 4 1 7 0;
#X connect 4 1 8 0;
#X connect 4 2 10 0;
#X connect 4 2 11 0;
#X connect 4 3 12 0;
#X connect 4 3 13 0;
#X connect 5 0 15 0;
#X connect 5 0 16 0;
#X connect 5 0 17 0;
#X connect 6 0 14 0;
#X connect 7 0 14 0;
#X connect 7 0 16 0;
#X connect 7 0 17 0;
#X connect 8 0 15 0;
#X connect 9 0 0 0;
#X connect 10 0 14 0;
#X connect 10 0 15 0;
#X connect 10 0 17 0;
#X connect 11 0 16 0;
#X connect 12 0 14 0;
#X connect 12 0 15 0;
#X connect 12 0 16 0;
#X connect 13 0 17 0;
#X connect 18 0 19 0;
#X connect 19 0 0 1;
#X restore 94 277 pd swiper;
#X floatatom 134 158 5 0 0 0 - initSwipeTime -;
#X text 170 161 s;
#X obj 410 321 s initSwipeTime;
#X obj 378 274 loadbang;
#X msg 379 298 1;
#X obj 360 350 s initMasterCalibration;
#X text 106 106 CALIBRATION;
#X obj 253 245 adc~ 1;
#X obj 240 280 env~;
#X floatatom 204 187 5 0 0 0 - - -;
#X connect 20 0 30 0;
#X connect 21 0 19 0;
#X connect 31 0 30 1;
#X connect 34 0 35 0;
#X connect 35 0 33 0;
#X connect 35 0 36 0;
#X connect 38 0 39 0;
#X connect 39 0 40 0;
#X coords 0 -1 1 1 340 110 2 100 100;
