#N canvas 158 163 569 416 10;
#X obj 14 -4 tgl 15 0 empty empty empty 0 -6 0 8 -262144 -1 -1 1 1
;
#X obj 72 265 bng 15 100 50 0 empty empty empty 0 -6 0 8 -262144 -1
-1;
#X obj 14 19 timebase 60 4 0;
#X obj 14 93 moses 128;
#X obj 72 158 - 128;
#X floatatom 80 182 5 0 0 0 - - -;
#X floatatom 81 140 5 0 0 0 - - -;
#X obj 72 116 moses 256;
#X floatatom 79 223 5 0 0 0 - - -;
#X floatatom 22 71 5 0 0 0 - - -;
#X obj 72 201 mod 64;
#X obj 72 242 select 0 16 32 48;
#X floatatom 14 117 5 0 0 0 - - -;
#X obj 105 314 s beat0;
#X msg 105 292 0;
#X msg 136 269 16;
#X msg 191 291 32;
#X msg 224 272 48;
#X obj 189 313 s beat32;
#X obj 224 294 s beat48;
#X obj 140 292 s beat16;
#X text 92 336 Envio de Beats para trabajo en linea de tiempo;
#X floatatom 43 -7 5 10 200 2 bpm bpm -;
#X floatatom 119 -4 5 0 0 2 swing - -;
#X floatatom 80 -5 5 0 0 2 beats - -;
#X obj 111 45 s beat;
#X obj 12 49 r beat;
#X text 202 -9 Envia \; beat (1) beat 0 (n 0) beat 16 (n 16) beat 32
(n 32) beat 64 (n 64);
#X obj 295 260 bng 15 250 50 0 empty empty empty 17 7 0 10 -262144
-1 -1;
#X connect 0 0 2 0;
#X connect 2 1 25 0;
#X connect 3 0 12 0;
#X connect 3 1 7 0;
#X connect 4 0 5 0;
#X connect 4 0 10 0;
#X connect 7 0 4 0;
#X connect 7 0 6 0;
#X connect 10 0 8 0;
#X connect 10 0 11 0;
#X connect 11 0 1 0;
#X connect 11 1 14 0;
#X connect 11 2 15 0;
#X connect 11 2 28 0;
#X connect 11 3 16 0;
#X connect 11 4 17 0;
#X connect 14 0 13 0;
#X connect 15 0 20 0;
#X connect 16 0 18 0;
#X connect 17 0 19 0;
#X connect 22 0 2 1;
#X connect 23 0 2 3;
#X connect 24 0 2 2;
#X connect 26 0 3 0;
#X connect 26 0 9 0;
