#N canvas 273 122 450 300 10;
#X obj 92 41 spigot;
#X obj 92 185 s oscPacket;
#X obj 91 138 pack;
#X obj 116 116 \$1;
#X obj 88 91 t f b;
#X msg 90 162 send /setAmbLevel \$2 \$1;
#X obj 92 66 spigot;
#X obj 191 23 t f f b;
#X obj 215 45 f;
#X obj 190 66 !=;
#X obj 88 5 + 140;
#X obj 87 -38 average;
#X obj 86 -16 * -1;
#X obj 86 -87 r amb\$1Level;
#X floatatom 43 -7 5 0 0 0 - - -;
#X connect 0 0 6 0;
#X connect 2 0 5 0;
#X connect 3 0 2 1;
#X connect 4 0 2 0;
#X connect 4 1 3 0;
#X connect 5 0 1 0;
#X connect 6 0 4 0;
#X connect 7 0 9 0;
#X connect 7 1 8 1;
#X connect 7 2 8 0;
#X connect 8 0 9 1;
#X connect 9 0 6 1;
#X connect 10 0 7 0;
#X connect 10 0 0 1;
#X connect 10 0 0 0;
#X connect 11 0 12 0;
#X connect 11 0 14 0;
#X connect 12 0 10 0;
#X connect 13 0 11 0;
