#N canvas 187 81 500 237 10;
#X obj 101 101 cnv 15 98 38 empty empty empty 20 12 0 14 -4032 -66577
0;
#X obj 107 105 cnv 15 86 30 empty empty empty 20 12 0 14 -204800 -66577
0;
#X obj -270 -7 r allRecivedData;
#X obj -265 111 s aA;
#X obj -173 115 s aR;
#X obj 0 136 spigot;
#X obj 153 119 tgl 15 0 empty empty prnt 18 8 0 10 -261682 -1 -1 0
1;
#X obj 27 167 print aura;
#X obj -114 139 s aS;
#X obj -260 22 route /auraAdd /auraRemove /auraState;
#X text 102 118 aA aR aS;
#X msg -201 77 \$1 0;
#X msg -252 73 \$1 1;
#X text 113 102 auraReceive;
#X connect 2 0 9 0;
#X connect 5 0 7 0;
#X connect 6 0 5 1;
#X connect 9 0 5 0;
#X connect 9 0 12 0;
#X connect 9 1 5 0;
#X connect 9 1 11 0;
#X connect 9 2 5 0;
#X connect 9 2 8 0;
#X connect 11 0 4 0;
#X connect 12 0 3 0;
#X coords 0 -1 1 1 100 40 1 100 100;
