#N canvas 187 81 603 304 10;
#X obj 102 100 cnv 15 98 38 empty empty empty 20 12 0 14 -4032 -66577
0;
#X obj 107 104 cnv 15 86 30 empty empty empty 20 12 0 14 -204800 -66577
0;
#X obj 53 20 r allRecivedData;
#X obj 6 132 spigot;
#X obj 153 119 tgl 15 0 empty empty prnt 18 8 0 10 -261682 -1 -1 0
1;
#X text 121 102 bank;
#X obj 53 42 route /bank;
#X obj 152 72 s activeBank;
#X obj 33 163 print bank;
#X floatatom 114 119 5 0 0 0 - - -;
#X obj 344 30 loadbang;
#X msg 342 80 1;
#X obj 344 55 delay 2000;
#X connect 2 0 6 0;
#X connect 3 0 8 0;
#X connect 4 0 3 1;
#X connect 6 0 3 0;
#X connect 6 0 7 0;
#X connect 6 0 9 0;
#X connect 10 0 12 0;
#X connect 11 0 7 0;
#X connect 12 0 11 0;
#X coords 0 -1 1 1 100 40 2 100 100;
