#N canvas 413 80 601 344 10;
#X obj 34 103 cnv 15 195 55 empty empty empty 20 12 0 14 -4032 -66577
0;
#X obj 38 106 cnv 15 190 50 empty empty empty 20 12 0 14 -204800 -66577
0;
#X obj -282 39 unpack \$0 \$1 \$2 \$3 \$4;
#X obj -280 -17 r allRecivedData;
#X obj -282 12 route /updateBlob /addBlob /removeBlob;
#X obj -140 102 unpack \$0 \$1 \$2;
#X obj -24 162 unpack \$0 \$1 \$2;
#X obj -289 95 s idB;
#X obj -252 116 s xB;
#X obj -220 137 s yB;
#X obj -187 162 s velB;
#X obj -170 183 s acelB;
#X obj -134 211 s idBA;
#X obj -97 232 s xBA;
#X obj -65 253 s yBA;
#X obj -38 279 s idBR;
#X obj -1 300 s xBR;
#X obj 31 321 s yBR;
#X text 47 115 idB xB yB velB acelB;
#X text 48 127 idBA xBA yBA;
#X text 46 142 idBR xBR yBR;
#X text 84 102 Blob Unpacker;
#X obj -18 75 spigot;
#X obj 173 139 tgl 15 0 empty empty prnt 18 8 0 10 -261682 -1 -1 0
1;
#X obj 78 63 print blobUnpacker;
#X connect 2 0 7 0;
#X connect 2 1 8 0;
#X connect 2 2 9 0;
#X connect 2 3 10 0;
#X connect 2 4 11 0;
#X connect 3 0 4 0;
#X connect 4 0 2 0;
#X connect 4 0 22 0;
#X connect 4 1 5 0;
#X connect 4 1 22 0;
#X connect 4 2 6 0;
#X connect 4 2 22 0;
#X connect 5 0 12 0;
#X connect 5 1 13 0;
#X connect 5 2 14 0;
#X connect 6 0 15 0;
#X connect 6 1 16 0;
#X connect 6 2 17 0;
#X connect 22 0 24 0;
#X connect 23 0 22 1;
#X coords 0 -1 1 1 200 60 1 30 100;
