#N canvas 140 22 450 300 10;
#X obj 98 249 s oscPacket;
#X obj 122 180 \$1;
#X obj 99 59 inlet data;
#X obj 86 207 pack f f;
#X obj 100 156 t f b;
#X obj 99 95 speedlim 2000;
#X obj 262 234 print;
#X msg 91 226 send /programData \$2 \$1;
#X connect 1 0 3 1;
#X connect 2 0 5 0;
#X connect 3 0 7 0;
#X connect 4 0 3 0;
#X connect 4 1 1 0;
#X connect 5 0 4 0;
#X connect 7 0 0 0;
#X connect 7 0 6 0;
