#N canvas 413 80 601 344 10;
#X obj 32 101 cnv 15 195 55 empty empty empty 20 12 0 14 -4032 -66577
0;
#X obj 36 104 cnv 15 190 50 empty empty empty 20 12 0 14 -204800 -66577
0;
#X obj -270 -13 r allRecivedData;
#X obj -272 16 route /updateFid /addFid /removeFid;
#X obj -279 99 s idF;
#X obj -242 120 s xF;
#X obj -210 141 s yF;
#X obj -177 166 s angF;
#X obj -128 164 s idFA;
#X obj -63 150 s shapeType;
#X obj 62 241 s shapeType;
#X obj -6 257 s idFR;
#X text 45 126 idFA shapeType;
#X text 45 140 idFR shapeType;
#X obj -130 106 unpack \$0 \$1;
#X obj -3 203 unpack \$0 \$1;
#X msg -123 136 \$1 1;
#X msg -4 225 \$1 0;
#X text 77 102 Fiducials Unpacker;
#X obj -28 65 spigot;
#X obj 163 129 tgl 15 0 empty empty prnt 18 8 0 10 -261682 -1 -1 0
1;
#X obj 68 53 print fidUnpacker;
#X obj -272 43 unpack \$0 \$1 \$2 \$3 \$4 \$5;
#X obj -167 190 s speedF;
#X obj -144 223 s accelF;
#X text 46 114 idF xF yF angF speedF accelF;
#X connect 2 0 3 0;
#X connect 3 0 19 0;
#X connect 3 0 22 0;
#X connect 3 1 14 0;
#X connect 3 1 19 0;
#X connect 3 2 15 0;
#X connect 3 2 19 0;
#X connect 14 0 16 0;
#X connect 14 1 9 0;
#X connect 15 0 17 0;
#X connect 15 1 10 0;
#X connect 16 0 8 0;
#X connect 17 0 11 0;
#X connect 19 0 21 0;
#X connect 20 0 19 1;
#X connect 22 0 4 0;
#X connect 22 1 5 0;
#X connect 22 2 6 0;
#X connect 22 3 7 0;
#X connect 22 4 23 0;
#X connect 22 5 24 0;
#X coords 0 -1 1 1 200 60 1 30 100;
