#N canvas 187 81 603 304 10;
#X obj 101 101 cnv 15 118 58 empty empty empty 20 12 0 14 -4032 -66577
0;
#X obj 104 104 cnv 15 106 50 empty empty empty 20 12 0 14 -204800 -66577
0;
#X obj 53 20 r allRecivedData;
#X obj 6 132 spigot;
#X obj 138 118 tgl 15 0 empty empty prnt 18 8 0 10 -261682 -1 -1 0
1;
#X text 132 102 fxReceive;
#X obj 53 42 route /setFX;
#X obj 149 75 s setFX;
#X obj 33 163 print fxReceive;
#X text 103 137 setFX= objID-v-a;
#X connect 2 0 6 0;
#X connect 3 0 8 0;
#X connect 4 0 3 1;
#X connect 6 0 3 0;
#X connect 6 0 7 0;
#X coords 0 -1 1 1 120 60 2 100 100;
