#N canvas 140 22 450 300 10;
#X obj 90 184 s oscPacket;
#X obj 91 138 pack;
#X obj 116 116 \$1;
#X obj 88 91 t f b;
#X obj 76 -38 r fx\$1Level;
#X msg 90 162 send /setFxLevel \$2 \$1;
#X obj 83 33 spigot;
#X obj 84 59 spigot;
#X obj 135 -8 t f f b;
#X obj 159 14 f;
#X obj 134 35 !=;
#X obj -1 42 + 140;
#X obj -2 -1 average;
#X obj -3 21 * -1;
#X connect 1 0 5 0;
#X connect 2 0 1 1;
#X connect 3 0 1 0;
#X connect 3 1 2 0;
#X connect 4 0 12 0;
#X connect 5 0 0 0;
#X connect 6 0 7 0;
#X connect 7 0 3 0;
#X connect 8 0 10 0;
#X connect 8 1 9 1;
#X connect 8 2 9 0;
#X connect 9 0 10 1;
#X connect 10 0 7 1;
#X connect 11 0 8 0;
#X connect 11 0 6 1;
#X connect 11 0 6 0;
#X connect 12 0 13 0;
#X connect 13 0 11 0;
