#N canvas 0 22 450 300 10;
#X obj 85 47 spigot;
#X obj 92 185 s oscPacket;
#X obj 91 138 pack;
#X obj 116 116 \$1;
#X obj 88 91 t f b;
#X obj 80 -28 r obj\$1Level;
#X msg 90 162 send /setObjLevel \$2 \$1;
#X obj 92 72 spigot;
#X obj 183 38 t f f b;
#X obj 207 60 f;
#X obj 182 81 !=;
#X obj 34 3 average;
#X obj 95 3 * -2;
#X floatatom 155 8 5 0 0 0 - - -;
#X floatatom 249 23 5 0 0 0 - - -;
#X obj 97 24 + 180;
#X connect 0 0 7 0;
#X connect 2 0 6 0;
#X connect 3 0 2 1;
#X connect 4 0 2 0;
#X connect 4 1 3 0;
#X connect 5 0 11 0;
#X connect 6 0 1 0;
#X connect 7 0 4 0;
#X connect 8 0 10 0;
#X connect 8 1 9 1;
#X connect 8 2 9 0;
#X connect 9 0 10 1;
#X connect 10 0 7 1;
#X connect 11 0 12 0;
#X connect 11 0 13 0;
#X connect 12 0 15 0;
#X connect 15 0 8 0;
#X connect 15 0 0 1;
#X connect 15 0 0 0;
#X connect 15 0 14 0;
