#N canvas 668 44 1040 640 10;
#X obj 400 100 cnv 15 80 80 empty empty empty 20 12 0 14 -4032 -66577
0;
#X obj 405 105 cnv 15 70 70 empty empty empty 20 12 0 14 -204800 -66577
0;
#X obj 586 129 udpsend;
#X msg 695 52 disconnect;
#X obj 579 -3 packOSC;
#X obj 421 145 tgl 15 0 empty empty stus 17 8 0 8 -4034 -258113 -1
1 1;
#X msg 585 -42 bufsize 100;
#X msg 673 30 connect localhost 12001;
#X obj 422 128 tgl 15 0 oscSendState empty OSC 20 8 0 8 -258113 -4034
-1 1 1;
#X obj 739 -10 sel 0 1;
#X obj 576 34 spigot;
#X obj 395 62 r play-stop;
#X text 417 107 OSCsend;
#X obj 580 -62 r oscPacket;
#X obj 397 40 r logicON;
#X obj 762 -45 r oscSendState;
#X msg 768 303 disconnect;
#X obj 773 229 sel 0 1;
#X obj 684 223 spigot;
#X obj 773 198 r oscSendState;
#X obj 286 -9 quadSend;
#X obj 421 161 tgl 15 0 empty empty stus2 17 8 0 8 -4034 -258113 -1
1 1;
#X obj 682 257 sendOSC;
#X obj 684 197 r oscPacket2;
#X obj 43 -39 bec/1_tierra;
#X obj 60 185 bec/alphaGain;
#X obj 158 186 bec/alphaOn;
#X obj 61 269 bec/glitchY;
#X obj 46 34 bec/2_viento;
#X obj 150 -37 bec/4_agua1;
#X obj 157 30 bec/4_agua2;
#X msg 769 368 connect 169.254.18.142 8000;
#X msg 757 484 connect localhost 8000;
#X msg 758 410 connect 169.254.167.175 8000;
#X obj 163 270 bec/glitchX;
#X msg 746 281 connect 169.254.164.241 8000;
#X obj 85 120 bec/3_todos2;
#X connect 2 0 5 0;
#X connect 2 0 10 1;
#X connect 3 0 2 0;
#X connect 4 0 10 0;
#X connect 5 0 8 0;
#X connect 6 0 4 0;
#X connect 7 0 2 0;
#X connect 9 0 3 0;
#X connect 9 1 7 0;
#X connect 10 0 2 0;
#X connect 11 0 8 0;
#X connect 13 0 4 0;
#X connect 14 0 8 0;
#X connect 15 0 10 1;
#X connect 15 0 9 0;
#X connect 16 0 22 0;
#X connect 17 0 16 0;
#X connect 17 1 35 0;
#X connect 18 0 22 0;
#X connect 19 0 18 1;
#X connect 19 0 17 0;
#X connect 22 0 18 1;
#X connect 22 0 21 0;
#X connect 23 0 18 0;
#X connect 35 0 22 0;
#X coords 0 -1 1 1 80 80 1 400 100;
