#N canvas 201 37 926 309 10;
#X obj 400 100 cnv 15 80 80 empty empty empty 20 12 0 14 -4032 -66577
0;
#X obj 405 105 cnv 15 70 70 empty empty empty 20 12 0 14 -204800 -66577
0;
#X msg 695 52 disconnect;
#X obj 421 145 tgl 15 0 empty empty stus 17 8 0 8 -4034 -258113 -1
1 1;
#X msg 585 -42 bufsize 100;
#X msg 673 30 connect localhost 12001;
#X obj 422 128 tgl 15 0 oscSendState empty OSC 20 8 0 8 -258113 -4034
-1 1 1;
#X obj 739 -10 sel 0 1;
#X obj 576 34 spigot;
#X obj 395 62 r play-stop;
#X text 417 107 OSCsend;
#X obj 580 -62 r oscPacket;
#X obj 397 40 r logicON;
#X obj 762 -45 r oscSendState;
#X obj 286 -9 quadSend;
#X obj 421 161 tgl 15 0 empty empty stus2 17 8 0 8 -4034 -258113 -1
0 1;
#X obj 586 129 udpsend;
#X obj 579 -3 packOSC;
#X connect 2 0 16 0;
#X connect 3 0 6 0;
#X connect 4 0 17 0;
#X connect 5 0 16 0;
#X connect 7 0 2 0;
#X connect 7 1 5 0;
#X connect 8 0 16 0;
#X connect 9 0 6 0;
#X connect 11 0 17 0;
#X connect 12 0 6 0;
#X connect 13 0 8 1;
#X connect 13 0 7 0;
#X connect 16 0 3 0;
#X connect 16 0 8 1;
#X connect 17 0 8 0;
#X coords 0 -1 1 1 80 80 1 400 100;
