#N canvas 690 657 501 305 10;
#X obj -97 70 fxSend 0;
#X obj -25 104 objSend 1;
#X obj -94 19 ambSend 0;
#X obj -100 103 objSend 0;
#X obj 37 134 objSend 6;
#X obj 43 104 objSend 2;
#X obj 110 103 objSend 3;
#X obj -96 135 objSend 4;
#X obj -36 132 objSend 5;
#X obj 108 135 objSend 7;
#X obj -97 164 objSend 8;
#X obj -33 164 objSend 9;
#X obj 41 163 objSend 10;
#X obj 109 164 objSend 11;
#X obj -26 75 fxSend 1;
#X obj 32 73 fxSend 2;
#X obj 108 79 fxSend 3;
#X obj -25 46 ambSend 4;
#X obj -33 17 ambSend 1;
#X obj 38 18 ambSend 2;
#X obj -93 44 ambSend 3;
#X obj 37 44 ambSend 5;
#X obj 196 56 r climaxLevel;
#X obj 197 157 s oscPacket;
#X msg 195 140 send /programData \$1;
#X obj 196 117 speedlim 200;
#X floatatom 224 188 5 0 0 0 - - -;
#X obj 181 11 hsl 128 15 0 1 0 0 empty empty empty -2 -8 0 10 -262144
-1 -1 0 1;
#X floatatom 203 38 5 0 0 0 - - -;
#X floatatom 315 38 5 0 0 0 - - -;
#X obj 345 152 0.77551;
#X obj 197 93 exponential_curve 0.35;
#X connect 22 0 31 0;
#X connect 24 0 23 0;
#X connect 25 0 24 0;
#X connect 27 0 28 0;
#X connect 27 0 31 0;
#X connect 29 0 31 1;
#X connect 31 0 25 0;
