#N canvas 593 114 577 634 10;
#X obj 176 91 r logClimax1;
#X obj 88 110 r logClimaxAmount1;
#X obj 94 573 line;
#X obj 161 155 * 60000;
#X obj 72 136 f;
#X obj 161 134 f;
#X obj 49 68 r logicON;
#X obj 13 493 r logicOFF;
#X obj 316 365 f;
#X obj 211 368 f;
#X obj 317 390 * 60000;
#X obj 236 338 r logClimaxAmount2;
#X obj 331 315 r logClimax2;
#X msg 176 249 0 4000;
#X obj 177 270 unpack;
#X floatatom 22 165 5 0 0 0 - - -;
#X floatatom 239 127 5 0 0 0 - - -;
#X floatatom 386 351 5 0 0 0 - - -;
#X floatatom 255 378 5 0 0 0 - - -;
#X obj 74 250 pack;
#X obj 161 174 t f f;
#X obj 176 222 delay;
#X obj 210 322 delay;
#X obj 209 294 t b f;
#X floatatom 240 266 5 0 0 0 - - -;
#X obj 199 446 pack;
#X msg 329 495 0 4000;
#X obj 314 420 t f f;
#X obj 329 468 delay;
#X obj 50 91 bng 15 250 50 0 empty empty empty 17 7 0 10 -262144 -1
-1;
#X obj 210 402 pipe 3;
#X floatatom 217 633 8 0 0 0 - - -;
#X obj 59 622 s climaxLevel;
#X connect 0 0 5 1;
#X connect 0 0 16 0;
#X connect 1 0 4 1;
#X connect 1 0 15 0;
#X connect 2 0 31 0;
#X connect 2 0 32 0;
#X connect 3 0 20 0;
#X connect 4 0 19 0;
#X connect 5 0 3 0;
#X connect 6 0 29 0;
#X connect 7 0 2 0;
#X connect 8 0 10 0;
#X connect 9 0 30 0;
#X connect 10 0 27 0;
#X connect 11 0 9 1;
#X connect 11 0 18 0;
#X connect 12 0 8 1;
#X connect 12 0 17 0;
#X connect 13 0 2 0;
#X connect 13 0 14 0;
#X connect 14 1 23 0;
#X connect 14 1 24 0;
#X connect 19 0 2 0;
#X connect 20 0 19 1;
#X connect 20 0 21 0;
#X connect 20 1 21 1;
#X connect 21 0 13 0;
#X connect 22 0 9 0;
#X connect 22 0 8 0;
#X connect 23 0 22 0;
#X connect 23 1 22 1;
#X connect 25 0 2 0;
#X connect 26 0 2 0;
#X connect 27 0 28 0;
#X connect 27 0 25 1;
#X connect 27 1 28 1;
#X connect 28 0 26 0;
#X connect 29 0 5 0;
#X connect 29 0 4 0;
#X connect 30 0 25 0;
#X coords 0 -1 1 1 85 60 1 200 600;
