#N canvas 55 97 934 711 10;
#X floatatom 215 632 8 0 0 0 - - -;
#X obj 356 611 s climaxLevel;
#X obj 163 602 line;
#X obj 92 225 r idFA;
#X obj 93 244 r idFR;
#X obj 13 243 r loToHi;
#X obj 14 277 route 1;
#X obj 279 285 route 0 2;
#X obj 348 286 route 4 6;
#X obj 413 286 route 8 10;
#X text 146 226 lo - hi;
#X text 304 243 X;
#X text 373 243 Y;
#X text 433 243 N;
#X text 536 246 FX;
#X obj 14 317 sel 1 0;
#X obj 17 451 + 0;
#X obj -20 334 bng 15 250 50 0 empty empty empty 17 7 0 10 -262144
-1 -1;
#X obj 119 429 bng 15 250 50 0 empty empty empty 17 7 0 10 -262144
-1 -1;
#X obj 69 302 bng 15 250 50 0 empty empty empty 17 7 0 10 -262144 -1
-1;
#X obj 91 321 sel 1 0;
#X obj 273 325 sel 1 0;
#X obj 349 327 sel 1 0;
#X obj 415 327 sel 1 0;
#X obj 93 280 route 12;
#X obj 157 280 route 14;
#X obj 163 324 sel 1 0;
#X text -82 47 - lo-fi - 25% - hi fi - 10% - lo to hi - 15% - x - 14%
- y - 6 - n - 5 - stress - 15% - routine - 10%;
#X obj 14 349 15;
#X obj 42 350 - 15;
#X obj 91 353 25;
#X obj 119 354 - 25;
#X obj 163 355 15;
#X obj 196 355 - 15;
#X obj 273 357 14;
#X obj 301 358 - 14;
#X obj 349 359 6;
#X obj 377 360 - 6;
#X obj 415 359 5;
#X obj 443 360 - 5;
#X floatatom 275 433 5 0 0 0 - - -;
#X floatatom 323 448 5 0 0 0 - - -;
#X obj 526 284 r idF;
#X obj 546 304 r speedF;
#X obj 525 326 pack;
#X obj 525 347 route 16;
#X obj 600 285 r idF;
#X obj 620 305 r speedF;
#X obj 599 327 pack;
#X obj 599 348 route 17;
#X msg 599 397 \$1 500;
#X msg 525 394 \$1 500;
#X obj 525 370 * 15;
#X obj 599 370 * 10;
#X obj 524 418 line;
#X obj 599 418 line;
#X obj 15 479 t b f;
#X msg 157 442 0;
#X obj 125 509 f 0;
#X text 453 186 ver como hacer para que cuando baja la cuenta reste
y cuando sube sume;
#X msg 153 572 \$1 1000;
#X obj 468 451 t b f;
#X obj 567 451 t b f;
#X obj 240 565 +;
#X obj 137 651 * 0.01;
#X connect 2 0 64 0;
#X connect 3 0 7 0;
#X connect 3 0 8 0;
#X connect 3 0 9 0;
#X connect 3 0 24 0;
#X connect 3 0 25 0;
#X connect 4 0 7 0;
#X connect 4 0 8 0;
#X connect 4 0 9 0;
#X connect 4 0 24 0;
#X connect 4 0 25 0;
#X connect 5 0 6 0;
#X connect 6 0 15 0;
#X connect 7 0 21 0;
#X connect 7 1 21 0;
#X connect 8 0 22 0;
#X connect 8 1 22 0;
#X connect 9 0 23 0;
#X connect 9 1 23 0;
#X connect 15 0 28 0;
#X connect 15 1 29 0;
#X connect 16 0 56 0;
#X connect 17 0 28 0;
#X connect 18 0 58 0;
#X connect 19 0 29 0;
#X connect 20 0 30 0;
#X connect 20 1 31 0;
#X connect 21 0 34 0;
#X connect 21 1 35 0;
#X connect 22 0 36 0;
#X connect 22 1 37 0;
#X connect 23 0 38 0;
#X connect 23 1 39 0;
#X connect 24 0 20 0;
#X connect 25 0 26 0;
#X connect 26 0 32 0;
#X connect 26 1 33 0;
#X connect 28 0 16 0;
#X connect 29 0 16 0;
#X connect 30 0 16 0;
#X connect 31 0 16 0;
#X connect 32 0 16 0;
#X connect 33 0 16 0;
#X connect 34 0 16 0;
#X connect 34 0 40 0;
#X connect 35 0 16 0;
#X connect 35 0 41 0;
#X connect 36 0 16 0;
#X connect 37 0 16 0;
#X connect 38 0 16 0;
#X connect 39 0 16 0;
#X connect 42 0 44 0;
#X connect 43 0 44 1;
#X connect 44 0 45 0;
#X connect 45 0 52 0;
#X connect 46 0 48 0;
#X connect 47 0 48 1;
#X connect 48 0 49 0;
#X connect 49 0 53 0;
#X connect 50 0 55 0;
#X connect 51 0 54 0;
#X connect 52 0 51 0;
#X connect 53 0 50 0;
#X connect 54 0 61 0;
#X connect 55 0 62 0;
#X connect 56 0 58 0;
#X connect 56 1 58 1;
#X connect 57 0 58 1;
#X connect 57 0 16 1;
#X connect 58 0 16 1;
#X connect 58 0 63 0;
#X connect 60 0 2 0;
#X connect 61 0 63 0;
#X connect 61 1 63 1;
#X connect 62 0 63 0;
#X connect 62 1 63 1;
#X connect 63 0 60 0;
#X connect 64 0 0 0;
#X connect 64 0 1 0;
#X coords 0 -1 1 1 85 60 1 200 600;
