#N canvas 277 142 450 300 10;
#X obj 33 23 r idFA;
#X obj 86 23 r idFR;
#X obj 33 73 route \$1;
#X obj 33 155 outlet;
#X text 273 90 argumento: fiducialID;
#X text 271 105 salida ON OF;
#X obj 134 119 tgl 20 0 empty empty empty 17 7 0 10 -4032 -258113 -1
0 1;
#X connect 0 0 2 0;
#X connect 1 0 2 0;
#X connect 2 0 6 0;
#X connect 2 0 3 0;
#X coords 0 -1 1 1 85 40 1 100 100;
