#N canvas 372 61 450 300 10;
#X obj 112 131 t f f;
#X obj 24 57 inlet level;
#X obj 133 26 inlet on_off;
#X msg 92 105 1;
#X obj 92 80 sel 1 0;
#X msg 162 98 0;
#X msg 163 125 \$1 3000;
#X obj 253 145 pipe 3020;
#X obj 168 176 spigot;
#X obj 140 249 outlet switch;
#X msg 24 109 \$1 1000;
#X obj 226 88 > 0.05;
#X obj 23 209 line~;
#X obj 22 247 outlet~ level;
#X obj 270 112 expr 1-$f1;
#X connect 0 0 10 0;
#X connect 0 1 9 0;
#X connect 1 0 10 0;
#X connect 2 0 11 0;
#X connect 3 0 0 0;
#X connect 4 0 3 0;
#X connect 4 1 5 0;
#X connect 5 0 6 0;
#X connect 6 0 7 0;
#X connect 6 0 12 0;
#X connect 7 0 8 0;
#X connect 8 0 9 0;
#X connect 10 0 12 0;
#X connect 11 0 4 0;
#X connect 11 0 14 0;
#X connect 12 0 13 0;
#X connect 14 0 8 1;
