#N canvas 13 131 804 435 10;
#X obj 101 100 cnv 15 249 128 empty empty empty 20 12 0 14 -4034 -66577
0;
#X obj 104 104 cnv 15 239 118 empty empty empty 20 12 0 14 -204786
-66577 0;
#X obj 101 249 transp;
#X floatatom 125 134 5 10 200 2 bpm - -;
#X floatatom 165 133 5 0 0 2 swing - -;
#X floatatom 159 66 5 0 0 2 beats - -;
#X obj 142 31 * 4;
#X obj 204 29 +;
#X obj 123 160 tgl 15 0 empty empty empty 17 7 0 10 -262144 -1 -1 0
1;
#X text 146 160 ON/OFF;
#X text 108 106 logicEngine;
#X floatatom 560 19 5 0 0 0 - - logLenght;
#X floatatom 561 38 5 0 10 0 - bec_part -;
#X text 517 37 Parts;
#X text 608 -3 Amount;
#X text 517 17 Lenght;
#X text 556 -2 Time (m);
#X obj 75 289 logicClock;
#X obj 605 18 bng 15 250 50 0 empty logicON empty 17 7 0 10 -262144
-1 -1;
#X floatatom 210 134 10 10 200 2 equilibrium climaxLevel -;
#X obj 142 6 bonkAnalisis;
#X obj 296 276 randomEngine;
#X floatatom 210 159 5 0 0 0 - minute -;
#X floatatom 246 159 5 0 0 0 - second -;
#X text 217 170 m;
#X text 251 172 s;
#X obj 285 126 partChange;
#X obj 123 187 tgl 15 0 recState empty empty 17 7 0 10 -258113 -262144
-1 0 1;
#X obj 69 59 s bpmValue;
#X obj 218 64 s swingValue;
#X text 454 310 r variableRandom \, r variableRandom2 \, r random0
\, r random1 \, r random2 \, r random4.;
#X text 460 272 r stateChange \, r climaxLevel \, r beat \, r beat4
\, r beat8 \, r beat16 r beat32 r beat48 r beat0;
#X msg 338 60 30;
#X obj 341 29 loadbang;
#X msg 368 60 4;
#X obj 203 289 eqControl;
#X obj 310 48 1;
#X text 144 185 REC;
#X obj 64 154 r s6;
#X connect 3 0 2 1;
#X connect 4 0 2 3;
#X connect 5 0 2 2;
#X connect 6 0 3 0;
#X connect 6 0 28 0;
#X connect 7 0 4 0;
#X connect 7 0 29 0;
#X connect 8 0 2 0;
#X connect 8 0 17 0;
#X connect 18 0 11 0;
#X connect 20 0 6 0;
#X connect 20 1 7 0;
#X connect 20 2 7 1;
#X connect 32 0 11 0;
#X connect 33 0 32 0;
#X connect 33 0 34 0;
#X connect 33 0 36 0;
#X connect 36 0 8 0;
#X connect 38 0 8 0;
#X coords 0 -1 1 1 250 130 2 100 100;
