#N canvas 140 22 450 300 10;
#X obj 258 6 inlet;
#X obj 286 107 + 1;
#X obj 258 104 f 1;
#X obj 260 149 mod 60;
#X obj 282 228 + 1;
#X obj 254 225 f 1;
#X floatatom 105 129 5 0 0 0 - - -;
#X floatatom 147 130 5 0 0 0 - - -;
#X obj 250 202 sel 1;
#X obj 256 176 > 58;
#X text 105 111 m;
#X text 144 112 s;
#X obj 197 59 sel 0;
#X msg 196 88 0;
#X obj 102 219 send logicTime;
#X obj 100 182 pack;
#X obj 258 77 metro 1000;
#X obj 344 55 sel 1;
#X msg 344 77 1;
#X obj 343 104 s logicON;
#X obj 198 119 s logicOFF;
#X obj 328 154 s totalSec;
#X obj 257 49 pipe 10;
#X obj 48 215 s minute;
#X obj 55 243 s second;
#X connect 0 0 12 0;
#X connect 0 0 17 0;
#X connect 0 0 22 0;
#X connect 1 0 2 1;
#X connect 2 0 1 0;
#X connect 2 0 3 0;
#X connect 2 0 21 0;
#X connect 3 0 7 0;
#X connect 3 0 9 0;
#X connect 4 0 5 1;
#X connect 5 0 4 0;
#X connect 5 0 6 0;
#X connect 6 0 15 1;
#X connect 6 0 23 0;
#X connect 7 0 15 0;
#X connect 7 0 24 0;
#X connect 8 0 5 0;
#X connect 9 0 8 0;
#X connect 12 0 13 0;
#X connect 13 0 2 0;
#X connect 13 0 5 0;
#X connect 13 0 20 0;
#X connect 15 0 14 0;
#X connect 16 0 2 0;
#X connect 17 0 18 0;
#X connect 18 0 19 0;
#X connect 22 0 16 0;
#X coords 0 -1 1 1 85 60 1 100 100;
