#N canvas 140 22 537 394 10;
#X obj 101 101 cnv 15 78 90 empty empty empty 20 12 0 14 -191407 -66577
0;
#X obj 105 105 cnv 15 68 80 empty empty empty 20 12 0 14 -245500 -66577
0;
#N canvas 0 22 450 300 (subpatch) 0;
#X array \$0-curve_log 100 float 0;
#X coords 0 1 99 0 50 50 1;
#X restore 105 125 graph;
#X obj 104 204 send \$0-x;
#X obj 172 203 send \$0-y;
#X obj 106 125 gcanvas 49 49;
#X obj 258 67 inlet x;
#X obj 262 179 outlet y;
#X obj 263 128 curve_log;
#N canvas 578 48 347 337 draw_array 0;
#X msg 57 52 bang;
#X obj 57 73 until;
#X text 88 52 start;
#X obj 57 95 f;
#X obj 86 95 + 1;
#X obj 86 117 mod 100;
#X obj 57 150 t f f;
#X obj 94 177 s array_index;
#X obj 170 262 r array_index;
#X obj 57 13 loadbang;
#X obj 132 97 select 0;
#X obj 57 217 / 100;
#X text 100 217 mapping output range: 0 to 1;
#X obj 56 243 curve_log;
#X obj 56 283 tabwrite \$0-curve_log;
#X connect 0 0 1 0;
#X connect 1 0 3 0;
#X connect 3 0 4 0;
#X connect 3 0 6 0;
#X connect 4 0 5 0;
#X connect 5 0 3 1;
#X connect 5 0 10 0;
#X connect 6 0 11 0;
#X connect 6 1 7 0;
#X connect 8 0 14 1;
#X connect 9 0 0 0;
#X connect 10 0 1 1;
#X connect 11 0 13 0;
#X connect 13 0 14 0;
#X restore 130 48 pd draw_array;
#X obj 251 100 gate 2;
#X obj 159 141 tgl 15 0 empty \$0-bypass empty 17 7 0 10 -262144 -1
-1 0 1;
#X obj 184 105 + 1;
#X obj 163 74 r initBang;
#X obj 76 69 r logBypass;
#X connect 5 0 3 0;
#X connect 5 1 4 0;
#X connect 6 0 10 1;
#X connect 8 0 7 0;
#X connect 10 0 8 0;
#X connect 10 1 7 0;
#X connect 11 0 12 0;
#X connect 12 0 10 0;
#X connect 13 0 11 0;
#X connect 14 0 11 0;
#X coords 0 -1 1 1 80 90 2 100 100;
