#N canvas 697 415 655 477 10;
#X obj 14 409 outlet;
#X text 273 90 argumento: fiducialID;
#X text 271 105 salida ON OF;
#X obj 66 409 outlet;
#X obj 121 409 outlet;
#X obj -17 34 r idFA;
#X obj 108 33 r idFR;
#X obj 10 117 tgl 15 0 empty empty empty 17 7 0 10 -262144 -1 -1 0
1;
#X msg -15 87 1;
#X msg 16 87 1;
#X msg 107 87 0;
#X msg 143 87 0;
#X obj -17 61 select \$1 \$2;
#X obj 108 60 select \$1 \$2;
#X obj 9 179 select 1;
#X obj 11 228 f;
#X obj 10 145 t f f;
#X text 111 275 output-number + objID + state;
#X text 129 344 objID + state;
#X obj 11 295 route 0 1 2;
#X obj 11 252 pack f f;
#X obj 98 205 t b f;
#X obj 9 204 random 3;
#X connect 5 0 12 0;
#X connect 6 0 13 0;
#X connect 7 0 16 0;
#X connect 8 0 7 0;
#X connect 10 0 7 0;
#X connect 12 0 8 0;
#X connect 12 1 9 0;
#X connect 13 0 10 0;
#X connect 13 1 11 0;
#X connect 14 0 22 0;
#X connect 15 0 20 0;
#X connect 16 0 21 0;
#X connect 16 1 14 0;
#X connect 19 0 0 0;
#X connect 19 1 3 0;
#X connect 19 2 4 0;
#X connect 20 0 19 0;
#X connect 21 0 15 0;
#X connect 21 1 20 1;
#X connect 22 0 15 1;
#X coords 0 0 1 1 85 40 0;
