#N canvas 0 22 450 300 10;
#X obj 124 83 spigot;
#X obj 171 -8 r bec_part;
#X obj 113 2 inlet;
#X obj 124 121 outlet;
#X obj 170 24 == \$1;
#X obj 187 71 ||;
#X obj 217 23 == \$2;
#X obj 215 45 t b f;
#X msg 69 86 0;
#X obj 71 54 sel 0;
#X obj 270 26 == \$3;
#X obj 317 24 == \$4;
#X obj 286 78 ||;
#X obj 314 53 t b f;
#X obj 235 109 ||;
#X obj 286 109 t b f;
#X connect 0 0 3 0;
#X connect 1 0 4 0;
#X connect 1 0 6 0;
#X connect 1 0 10 0;
#X connect 1 0 11 0;
#X connect 2 0 0 0;
#X connect 2 0 9 0;
#X connect 4 0 5 0;
#X connect 5 0 14 0;
#X connect 6 0 7 0;
#X connect 7 0 5 0;
#X connect 7 1 5 1;
#X connect 8 0 3 0;
#X connect 9 0 8 0;
#X connect 10 0 12 0;
#X connect 11 0 13 0;
#X connect 12 0 15 0;
#X connect 13 0 12 0;
#X connect 13 1 12 1;
#X connect 14 0 0 1;
#X connect 15 0 14 0;
#X connect 15 1 14 1;
