#N canvas 512 66 788 458 10;
#X obj 102 103 bng 20 250 50 0 empty empty empty 17 7 0 10 -260097
-257985 -1;
#X obj 102 131 s stateChange;
#X obj 289 -146 r minute;
#X obj 322 -119 r second;
#X text 266 -169 0 - 5 - 12.3 - 22.3 - 30;
#X obj 288 -71 * 100;
#X obj 299 -23 +;
#X obj 322 -52 t b f;
#X floatatom 428 -94 5 0 0 0 - - -;
#X floatatom 471 -94 5 0 0 0 - - -;
#X obj 397 204 4;
#X obj 298 61 1;
#X obj 331 119 2;
#X obj 363 161 3;
#X obj 299 5 select 1 500 1230 2000 30000;
#X obj 506 3 select 400 1130 1900 29000;
#X obj 506 44 1.5;
#X obj 545 102 2.5;
#X obj 584 152 3.5;
#X obj 431 67 5;
#X obj 395 129 s bec_part;
#X obj 298 85 s part1;
#X obj 620 45 4.5;
#X obj 331 140 s part2;
#X obj 363 182 s part3;
#X obj 397 227 s part4;
#X obj 431 90 s part5;
#X obj 506 69 s part1m;
#X obj 545 125 s part2m;
#X obj 583 175 s part3m;
#X obj 620 69 s part4m;
#X obj 640 105 s bec_part;
#X obj 219 5 s becTime;
#X connect 0 0 1 0;
#X connect 2 0 5 0;
#X connect 3 0 7 0;
#X connect 5 0 6 0;
#X connect 6 0 14 0;
#X connect 6 0 15 0;
#X connect 6 0 32 0;
#X connect 7 0 6 0;
#X connect 7 1 6 1;
#X connect 8 0 5 0;
#X connect 9 0 7 0;
#X connect 10 0 25 0;
#X connect 10 0 20 0;
#X connect 11 0 21 0;
#X connect 11 0 20 0;
#X connect 12 0 23 0;
#X connect 12 0 20 0;
#X connect 13 0 24 0;
#X connect 13 0 20 0;
#X connect 14 0 0 0;
#X connect 14 0 11 0;
#X connect 14 1 0 0;
#X connect 14 1 12 0;
#X connect 14 2 0 0;
#X connect 14 2 13 0;
#X connect 14 3 0 0;
#X connect 14 3 10 0;
#X connect 14 4 19 0;
#X connect 15 0 16 0;
#X connect 15 1 17 0;
#X connect 15 2 18 0;
#X connect 15 3 22 0;
#X connect 16 0 27 0;
#X connect 16 0 31 0;
#X connect 17 0 28 0;
#X connect 17 0 31 0;
#X connect 18 0 29 0;
#X connect 18 0 31 0;
#X connect 19 0 26 0;
#X connect 19 0 20 0;
#X connect 22 0 30 0;
#X connect 22 0 31 0;
#X coords 0 -1 1 1 25 25 2 100 100;
