#N canvas 65 87 577 634 10;
#X floatatom 215 632 8 0 0 0 - - -;
#X obj 214 563 s climaxLevel;
#X obj 259 305 r logLenght;
#X obj 259 339 * 60000;
#X obj 155 351 r logicOFF;
#X obj 204 279 r logicON;
#X obj 211 442 counter;
#X obj 259 374 / 2048;
#X obj 207 413 metro 100;
#X obj 138 393 t b b;
#X obj 212 470 tabread equilibrium;
#X obj 213 532 line;
#X obj 213 508 pack;
#X obj 317 569 s climaxIndex;
#X obj 426 253 r logLenght;
#X obj 426 287 * 60000;
#X obj 426 322 / 2048;
#X floatatom 500 277 5 0 0 0 - - -;
#X floatatom 333 334 5 0 0 0 - - -;
#X obj 414 348 r stateChange;
#X msg 413 410 1;
#X floatatom 368 399 5 0 0 0 - - -;
#X obj 375 450 tabwrite equilibrium;
#X obj 405 380 t b b;
#X connect 2 0 3 0;
#X connect 2 0 18 0;
#X connect 3 0 7 0;
#X connect 4 0 8 0;
#X connect 4 0 9 0;
#X connect 6 0 10 0;
#X connect 6 0 13 0;
#X connect 6 0 21 0;
#X connect 7 0 12 1;
#X connect 7 0 8 1;
#X connect 8 0 6 0;
#X connect 9 0 6 0;
#X connect 9 1 6 2;
#X connect 10 0 12 0;
#X connect 11 0 0 0;
#X connect 11 0 1 0;
#X connect 12 0 11 0;
#X connect 14 0 15 0;
#X connect 15 0 16 0;
#X connect 17 0 15 0;
#X connect 19 0 23 0;
#X connect 20 0 22 0;
#X connect 21 0 22 1;
#X connect 23 0 20 0;
#X connect 23 1 20 0;
#X coords 0 -1 1 1 85 60 1 200 600;
