#N canvas 0 90 804 510 10;
#X obj 145 173 random 100;
#X obj 43 52 r climaxLevel;
#X obj 43 78 speedlim 2000;
#X obj 73 100 reverse;
#X obj 34 131 * 100;
#X obj 145 114 r beat;
#X obj 44 251 s variableRandom;
#X obj 319 276 s random0;
#X obj 428 276 s random1;
#X obj 632 279 s random3;
#X msg 46 185 0;
#X msg 73 185 1;
#X obj 45 217 spigot;
#X obj 145 195 / 100;
#X text -42 332 variable random \, es un random que depende del climax
de la canció \, cuando climax se acerca a 1 aumenta la probabilidad
\, cuando se acerca a 0 menos valores pasan;
#X text 43 -21 Temporal randoms;
#X text 821 -44 Spectral randoms;
#X obj 951 162 random 100;
#X obj 881 108 reverse;
#X obj 834 119 * 100;
#X obj 951 117 r beat;
#X msg 841 200 0;
#X msg 882 199 1;
#X obj 842 227 spigot;
#X obj 950 185 / 100;
#X obj 834 6 r hiBonk;
#X obj 832 54 median_7;
#X obj 832 85 autoscale 0 1;
#X obj 832 29 speedlim 100;
#X msg 763 68 reset;
#X obj 763 44 r logicOFF;
#X obj 834 153 moses;
#X obj 819 -15 r loBonk;
#X text 750 327 variable random \, es un random que depende del analisis
espectral de los ambientes reproducidos \, más nivel en agudos y frec
graves \, más probabilidad de que se envie un valor;
#X obj 841 276 s variableRandom2;
#X obj 319 56 random 100;
#X obj 319 9 r beat;
#X msg 316 197 0;
#X msg 362 196 1;
#X obj 319 222 spigot;
#X obj 322 121 / 100;
#X obj 46 158 moses;
#X obj 316 150 moses 90;
#X obj 428 55 random 100;
#X obj 428 8 r beat;
#X msg 425 196 0;
#X msg 471 195 1;
#X obj 428 221 spigot;
#X obj 428 121 / 100;
#X obj 425 149 moses 70;
#X obj 536 57 random 100;
#X obj 536 10 r beat;
#X msg 533 198 0;
#X msg 579 197 1;
#X obj 536 223 spigot;
#X obj 536 123 / 100;
#X obj 632 59 random 100;
#X obj 632 12 r beat;
#X msg 629 200 0;
#X msg 675 199 1;
#X obj 632 225 spigot;
#X obj 634 124 / 100;
#X obj 533 151 moses 50;
#X obj 629 153 moses 30;
#X obj 535 278 s random2;
#X obj 145 141 b;
#X obj 319 32 b;
#X obj 428 31 b;
#X obj 536 34 b;
#X obj 632 34 b;
#X text 404 -38 Probability Randoms;
#X text 402 364 variableRandom;
#X text 402 377 variableRandom2;
#X text 401 390 random0;
#X text 448 390 random1;
#X text 401 405 random2;
#X text 450 407 random3;
#X obj 953 138 b;
#X msg 86 139 seed \$1;
#X msg 891 150 seed \$1;
#X connect 0 0 41 0;
#X connect 0 0 13 0;
#X connect 1 0 2 0;
#X connect 2 0 3 0;
#X connect 2 0 4 0;
#X connect 3 0 41 1;
#X connect 3 0 78 0;
#X connect 4 0 0 1;
#X connect 5 0 65 0;
#X connect 10 0 12 1;
#X connect 11 0 12 1;
#X connect 12 0 6 0;
#X connect 13 0 12 0;
#X connect 17 0 31 0;
#X connect 17 0 24 0;
#X connect 18 0 31 1;
#X connect 18 0 79 0;
#X connect 19 0 17 1;
#X connect 20 0 77 0;
#X connect 21 0 23 1;
#X connect 22 0 23 1;
#X connect 23 0 34 0;
#X connect 24 0 23 0;
#X connect 25 0 28 0;
#X connect 26 0 27 0;
#X connect 27 0 18 0;
#X connect 27 0 19 0;
#X connect 28 0 26 0;
#X connect 29 0 27 0;
#X connect 30 0 29 0;
#X connect 31 0 21 0;
#X connect 31 1 22 0;
#X connect 32 0 28 0;
#X connect 35 0 42 0;
#X connect 35 0 40 0;
#X connect 36 0 66 0;
#X connect 37 0 39 1;
#X connect 38 0 39 1;
#X connect 39 0 7 0;
#X connect 40 0 39 0;
#X connect 41 0 10 0;
#X connect 41 1 11 0;
#X connect 42 0 37 0;
#X connect 42 1 38 0;
#X connect 43 0 49 0;
#X connect 43 0 48 0;
#X connect 44 0 67 0;
#X connect 45 0 47 1;
#X connect 46 0 47 1;
#X connect 47 0 8 0;
#X connect 48 0 47 0;
#X connect 49 0 45 0;
#X connect 49 1 46 0;
#X connect 50 0 62 0;
#X connect 50 0 55 0;
#X connect 51 0 68 0;
#X connect 52 0 54 1;
#X connect 53 0 54 1;
#X connect 54 0 64 0;
#X connect 55 0 54 0;
#X connect 56 0 63 0;
#X connect 56 0 61 0;
#X connect 57 0 69 0;
#X connect 58 0 60 1;
#X connect 59 0 60 1;
#X connect 60 0 9 0;
#X connect 61 0 60 0;
#X connect 62 0 52 0;
#X connect 62 1 53 0;
#X connect 63 0 58 0;
#X connect 63 1 59 0;
#X connect 65 0 0 0;
#X connect 66 0 35 0;
#X connect 67 0 43 0;
#X connect 68 0 50 0;
#X connect 69 0 56 0;
#X connect 77 0 17 0;
#X coords 0 -1 1 1 120 80 1 400 350;
