#N canvas 697 415 655 477 10;
#X obj 14 409 outlet;
#X text 273 90 argumento: fiducialID;
#X text 271 105 salida ON OF;
#X obj 66 409 outlet;
#X obj 121 409 outlet;
#X obj 9 179 select 1;
#X obj 11 228 f;
#X obj 10 145 t f f;
#X text 111 275 output-number + objID + state;
#X text 129 344 objID + state;
#X obj 11 295 route 0 1 2;
#X obj 11 252 pack f f;
#X obj 98 205 t b f;
#X obj 9 204 random 3;
#X obj 9 98 inlet;
#X connect 5 0 13 0;
#X connect 6 0 11 0;
#X connect 7 0 12 0;
#X connect 7 1 5 0;
#X connect 10 0 0 0;
#X connect 10 1 3 0;
#X connect 10 2 4 0;
#X connect 11 0 10 0;
#X connect 12 0 6 0;
#X connect 12 1 11 1;
#X connect 13 0 6 1;
#X connect 14 0 7 0;
#X coords 0 0 1 1 85 40 0;
