#N canvas 617 442 246 283 10;
#X obj 115 105 tgl 30 0 empty recState empty 17 7 0 10 -204786 -258113
-1 0 1;
#X obj 19 128 inlet~;
#X obj 40 194 inlet~;
#X obj 127 150 inlet~;
#X obj 146 209 inlet~;
#X obj 18 157 writefile L;
#X obj 39 223 writefile R;
#X obj 128 175 writefile RL;
#X obj 145 238 writefile RR;
#X connect 0 0 5 1;
#X connect 0 0 6 1;
#X connect 0 0 7 1;
#X connect 0 0 8 1;
#X connect 1 0 5 0;
#X connect 2 0 6 0;
#X connect 3 0 7 0;
#X connect 4 0 8 0;
#X coords 0 -1 1 1 60 40 1 100 100;
