#N canvas 0 22 481 382 10;
#X obj 91 -4 tgl 15 0 empty empty empty 17 7 0 10 -262144 -1 -1 0 1
;
#X obj 252 4 tgl 15 0 empty empty empty 17 7 0 10 -262144 -1 -1 0 1
;
#X obj 192 3 tgl 15 0 empty empty empty 17 7 0 10 -262144 -1 -1 0 1
;
#X obj 192 -55 r aA;
#X obj 243 -52 r aR;
#X msg 189 23 \$1 200;
#X msg 251 25 \$1 200;
#X obj 205 -22 route \$1 \$2 \$3;
#X obj 108 -40 t b f;
#X obj 91 21 sel 1;
#X msg 86 42 1;
#X msg 115 46 0;
#X obj 54 76 tgl 15 0 empty empty empty 17 7 0 10 -262144 -1 -1 0 1
;
#X msg 51 96 \$1 1000;
#X obj 392 77 inlet on_off;
#X msg 306 -5 0;
#X obj 306 21 sel 0 1;
#X obj 194 49 line~;
#X obj 247 48 line~;
#X obj 145 27 s sb\$2;
#X obj 376 38 s sb\$3;
#X obj 296 122 ../logic/inputControl;
#X obj 54 117 line~;
#X obj 44 196 outlet~;
#X obj 119 199 outlet~;
#X obj 183 198 outlet~;
#X obj 254 200 outlet~;
#X obj 335 199 outlet;
#X text 42 229 - 1^2^3 = sig Number to multichannel panner;
#X text 39 249 - 4^5^6 = sig level - volume;
#X obj 124 87 r sampLev\$2;
#X obj 199 120 r sampLev\$3;
#X obj 190 71 *~;
#X obj 246 68 *~;
#X obj 50 148 *~;
#X obj 101 146 r sampLev\$1;
#X msg 18 9 0 6000;
#X obj -4 -32 r bankSampOff\$4;
#X obj 3 42 pipe 6100;
#X msg 9 75 0;
#X connect 0 0 9 0;
#X connect 1 0 6 0;
#X connect 1 0 20 0;
#X connect 2 0 5 0;
#X connect 2 0 19 0;
#X connect 3 0 7 0;
#X connect 4 0 7 0;
#X connect 5 0 17 0;
#X connect 6 0 18 0;
#X connect 7 0 2 0;
#X connect 7 1 1 0;
#X connect 8 1 0 0;
#X connect 9 0 10 0;
#X connect 9 1 11 0;
#X connect 10 0 12 0;
#X connect 11 0 12 0;
#X connect 12 0 13 0;
#X connect 13 0 22 0;
#X connect 14 0 16 0;
#X connect 14 0 8 0;
#X connect 14 0 21 1;
#X connect 14 0 21 0;
#X connect 15 0 1 0;
#X connect 15 0 2 0;
#X connect 16 0 15 0;
#X connect 17 0 32 0;
#X connect 18 0 33 0;
#X connect 21 0 26 0;
#X connect 21 1 27 0;
#X connect 22 0 34 0;
#X connect 30 0 32 1;
#X connect 31 0 33 1;
#X connect 32 0 24 0;
#X connect 33 0 25 0;
#X connect 34 0 23 0;
#X connect 35 0 34 1;
#X connect 36 0 22 0;
#X connect 36 0 17 0;
#X connect 36 0 18 0;
#X connect 37 0 36 0;
#X connect 37 0 38 0;
#X connect 38 0 39 0;
#X connect 39 0 22 0;
#X connect 39 0 17 0;
#X connect 39 0 18 1;
