#N canvas 0 22 450 300 10;
#N canvas 0 22 450 300 (subpatch) 0;
#X array \$0_ 100 float 0;
#X coords 0 1 99 0 100 100 1;
#X restore -28 92 graph;
#N canvas 266 69 411 401 draw_array 0;
#X msg 54 82 bang;
#X obj 54 103 until;
#X text 85 82 start;
#X obj 54 125 f;
#X obj 83 125 + 1;
#X obj 83 147 mod 100;
#X obj 54 43 loadbang;
#X obj 139 53 t b s;
#X obj 139 32 symbol;
#X obj 138 9 receive \$0-type;
#X obj 54 180 trigger float float;
#X obj 127 127 select 0;
#X obj 53 313 tabwrite \$0_;
#X text 96 257 mapping output range: 0 to 1;
#X obj 54 257 / 100;
#X obj 53 283 sinusoid sin;
#X connect 0 0 1 0;
#X connect 1 0 3 0;
#X connect 3 0 4 0;
#X connect 3 0 10 0;
#X connect 4 0 5 0;
#X connect 5 0 3 1;
#X connect 5 0 11 0;
#X connect 6 0 0 0;
#X connect 7 0 0 0;
#X connect 7 1 15 1;
#X connect 8 0 7 0;
#X connect 9 0 8 0;
#X connect 10 0 14 0;
#X connect 10 1 12 1;
#X connect 11 0 1 1;
#X connect 14 0 15 0;
#X connect 15 0 12 0;
#X restore -28 60 pd draw_array;
#X msg -288 63 atan;
#X msg -251 63 cos;
#X obj -245 165 receive \$0-type;
#X msg -221 63 sin;
#X obj -242 95 send \$0-type;
#X obj -324 184 sinusoid sin;
#X obj -325 156 inlet;
#X obj -324 217 outlet;
#X obj -181 7 inlet;
#X obj -222 34 select 0 1 2;
#X connect 2 0 6 0;
#X connect 3 0 6 0;
#X connect 4 0 7 1;
#X connect 5 0 6 0;
#X connect 7 0 9 0;
#X connect 8 0 7 0;
#X connect 10 0 11 0;
#X connect 11 0 2 0;
#X connect 11 1 3 0;
#X connect 11 2 5 0;
