#N canvas 196 262 626 502 10;
#X obj 14 19 timebase 60 4 0;
#X floatatom 46 135 5 0 0 0 - - -;
#X floatatom 35 80 5 0 0 0 - - -;
#X obj 39 113 mod 64;
#X obj 24 195 s beat0;
#X obj 248 195 s beat32;
#X obj 309 197 s beat48;
#X obj 184 195 s beat16;
#X text 66 212 Envio de Beats para trabajo en linea de tiempo;
#X obj 111 45 s beat;
#X obj 25 58 r beat;
#X text 202 -9 Envia \; beat (1) beat 0 (n 0) beat 16 (n 16) beat 32
(n 32) beat 64 (n 64);
#X obj 43 -38 inlet bpm;
#X obj 72 -21 inlet beats;
#X obj 101 -3 inlet swing;
#X obj 13 -59 inlet on;
#X obj 39 154 select 0 4 8 16 32 48;
#X obj 79 194 s beat4;
#X obj 132 193 s beat8;
#X obj 16 -17 pipe 10;
#X connect 0 1 9 0;
#X connect 2 0 3 0;
#X connect 3 0 1 0;
#X connect 3 0 16 0;
#X connect 10 0 2 0;
#X connect 12 0 0 1;
#X connect 13 0 0 2;
#X connect 14 0 0 3;
#X connect 15 0 19 0;
#X connect 16 0 4 0;
#X connect 16 1 17 0;
#X connect 16 2 18 0;
#X connect 16 3 7 0;
#X connect 16 4 5 0;
#X connect 16 5 6 0;
#X connect 19 0 0 0;
