#N canvas 96 48 400 239 10;
#X msg 117 103 start;
#X msg 66 102 stop;
#X obj 222 56 + 1;
#X obj 194 54 f 0;
#X obj 76 182 writesf~ 1;
#X obj 43 -4 inlet;
#X obj 55 219 outlet done;
#X obj 0 79 inlet~;
#X obj 251 151 outlet number written;
#X msg 151 130 stop \, open \$1;
#X obj 44 20 sel 0 1;
#X obj 112 27 t b b b b;
#X obj 170 91 makefilename ../rec/\$1_%d.wav;
#X connect 0 0 4 0;
#X connect 1 0 4 0;
#X connect 1 0 6 0;
#X connect 2 0 3 1;
#X connect 3 0 2 0;
#X connect 3 0 8 0;
#X connect 3 0 12 0;
#X connect 5 0 10 0;
#X connect 7 0 4 0;
#X connect 9 0 4 0;
#X connect 10 0 1 0;
#X connect 10 1 11 0;
#X connect 11 2 0 0;
#X connect 11 3 3 0;
#X connect 12 0 9 0;
