#N canvas 596 302 785 320 10;
#X obj 62 -48 inlet~ _1;
#X obj 327 -46 inlet~ _4;
#X obj 229 -47 inlet~ _3;
#X obj 145 -48 inlet~ _2;
#X floatatom 105 107 5 0 0 0 - - -;
#X floatatom 105 128 5 0 0 0 - - -;
#X floatatom 105 149 5 0 0 0 - - -;
#X floatatom 105 169 5 0 0 0 - - -;
#X obj 113 190 tgl 15 0 empty empty empty 17 7 0 10 -4034 -258113 -1
0 1;
#X obj 89 51 env~;
#X obj 155 51 env~;
#X obj 220 51 env~;
#X obj 284 51 env~;
#X obj 187 220 s master1;
#X obj 249 220 s master2;
#X obj 311 220 s master3;
#X obj 376 220 s master4;
#X obj 158 176 * 0.01;
#X obj 250 177 * 0.01;
#X obj 299 180 * 0.01;
#X obj 359 174 * 0.01;
#X connect 0 0 9 0;
#X connect 1 0 12 0;
#X connect 2 0 11 0;
#X connect 3 0 10 0;
#X connect 4 0 17 0;
#X connect 5 0 18 0;
#X connect 6 0 19 0;
#X connect 7 0 20 0;
#X connect 9 0 4 0;
#X connect 10 0 5 0;
#X connect 11 0 6 0;
#X connect 12 0 7 0;
#X connect 17 0 13 0;
#X connect 18 0 14 0;
#X connect 19 0 15 0;
#X connect 20 0 16 0;
#X coords 0 -1 1 1 50 110 2 100 100;
