#N canvas 0 113 680 425 10;
#X declare -lib iemgui -lib iem_ambi -lib iemlib -lib iemmatrix;
#X declare -lib iem_ambi -lib iemmatrix;
#X declare -lib iem_ambi -lib iemmatrix;
#X declare -lib iem_ambi -lib iemmatrix;
#X declare -lib iem_ambi -lib iemmatrix;
#X declare -lib iem_ambi -lib iemmatrix;
#X declare -lib iem_ambi -lib iemmatrix;
#X declare -lib iem_ambi -lib iemmatrix;
#X declare -lib iem_ambi -lib iemmatrix;
#X declare -lib iem_ambi -lib iemmatrix;
#X declare -lib iem_ambi -lib iemmatrix;
#X declare -lib iem_ambi -lib iemmatrix;
#X declare -lib iem_ambi -lib iemmatrix;
#X declare -lib iem_ambi -lib iemmatrix;
#X declare -lib iem_ambi -lib iemmatrix;
#X declare -lib iem_ambi -lib iemmatrix;
#X declare -lib iem_ambi -lib iemmatrix;
#X declare -lib iem_ambi -lib iemmatrix;
#X declare -lib iem_ambi -lib iemmatrix;
#X declare -lib iem_ambi -lib iemmatrix;
#X declare -lib iem_ambi -lib iemmatrix;
#X declare -lib iem_ambi -lib iemmatrix;
#X declare -lib iem_ambi -lib iemmatrix;
#X declare -lib iem_ambi -lib iemmatrix;
#X declare -lib iem_ambi -lib iemmatrix;
#X declare -lib iem_ambi -lib iemmatrix;
#X declare -lib iem_ambi -lib iemmatrix;
#X declare -lib iem_ambi -lib iemmatrix;
#X declare -lib iem_ambi -lib iemmatrix;
#X declare -lib iem_ambi -lib iemmatrix;
#X declare -lib iem_ambi -lib iemmatrix;
#X declare -lib iem_ambi -lib iemmatrix;
#X declare -lib iem_ambi -lib iemmatrix;
#X declare -lib iem_ambi -lib iemmatrix;
#X declare -lib iem_ambi -lib iemmatrix;
#X declare -lib iem_ambi -lib iemmatrix;
#X declare -lib iem_ambi -lib iemmatrix;
#X obj 102 101 cnv 15 249 249 empty empty empty 20 12 0 14 -258113
-66577 0;
#X obj 104 106 cnv 15 240 240 empty empty empty 20 12 0 14 -261234
-66577 0;
#X obj -17 299 s \$0-from-GUI;
#N canvas 594 126 450 300 GUI_init 0;
#X obj 40 121 f \$0;
#X obj 36 91 bng 15 250 50 0 empty empty empty 17 7 0 10 -262144 -1
-1;
#X obj 65 93 loadbang;
#X obj 259 115 loadbang;
#X obj 240 114 bng 15 250 50 0 empty empty empty 17 7 0 10 -262144
-1 -1;
#X msg 258 166 \; eu-to-GUI nr_src \$1;
#X floatatom 151 220 5 5 150 0 - - -;
#X text 187 217 pix;
#X msg 151 238 \; eu-to-GUI src_font \$1;
#X obj 260 138 36;
#X msg 40 145 \; eu-to-GUI size 240 \; eu-to-GUI src_font 20 \; eu-to-GUI
sphere_col 1 \; eu-to-GUI src_col 2 37;
#X connect 0 0 10 0;
#X connect 1 0 0 0;
#X connect 2 0 0 0;
#X connect 3 0 9 0;
#X connect 4 0 9 0;
#X connect 6 0 8 0;
#X connect 9 0 5 0;
#X restore 36 21 pd GUI_init;
#X obj 36 -5 import iemgui iem_ambi iemlib iemmatrix;
#X obj 103 106 cube_sphere 36 120 20 166440 195567 90132 120 0 90132
120 0 44925 120 0 241290 120 0 260817 120 0 258698 120 0 128991 93
61 250684 93 61 62783 93 61 44925 120 0 241290 120 0 260817 120 0 258698
120 0 128991 120 0 250684 120 0 62783 120 0 44925 120 0 241290 120
0 260817 101 71 258698 101 71 128991 101 71 250684 120 120 62783 120
120 44925 120 120 241290 161 126 260817 161 126 258698 161 126 128991
76 89 250684 76 89 62783 76 89 44925 150 67 241290 150 67 260817 150
67 258698 114 58 128991 68 74 250684 99 63;
#X obj 2 115 r eu-to-GUI;
#X obj -29 195 route src_dp;
#N canvas 473 68 351 439 simple_speedlim_parameters 0;
#X obj 64 32 r \$0-from-GUI;
#X obj 197 111 r \$0-itime;
#X obj 67 130 unpack \$0 \$1 \$2;
#X floatatom 18 178 5 0 0 0 - - -;
#X obj 64 272 s dp;
#X obj 64 230 pack 0 0 0;
#X obj 115 197 iemlib/speedlim 200;
#X obj 66 169 iemlib/speedlim 200;
#X obj 165 299 print a;
#X obj 92 76 print b;
#X connect 0 0 2 0;
#X connect 1 0 6 1;
#X connect 1 0 7 1;
#X connect 2 0 3 0;
#X connect 2 1 7 0;
#X connect 2 2 6 0;
#X connect 3 0 5 0;
#X connect 5 0 4 0;
#X connect 6 0 5 2;
#X connect 7 0 5 1;
#X restore 416 28 pd simple_speedlim_parameters;
#X obj 292 -1 r mapToPan;
#X obj 292 35 prepend src_dp;
#X obj 293 72 s eu-to-GUI;
#X obj 418 85 ambi 1;
#X obj 465 85 ambi 2;
#X obj 515 85 ambi 3;
#X obj 418 128 ambi 7;
#X obj 465 128 ambi 8;
#X obj 515 128 ambi 9;
#X obj 417 157 ambi 13;
#X obj 464 157 ambi 14;
#X obj 514 157 ambi 15;
#X obj 417 200 ambi 19;
#X obj 464 200 ambi 20;
#X obj 514 200 ambi 21;
#X obj 419 227 ambi 25;
#X obj 466 227 ambi 26;
#X obj 516 227 ambi 27;
#X obj 419 270 ambi 31;
#X obj 466 270 ambi 32;
#X obj 516 270 ambi 33;
#X obj 420 107 ambi 4;
#X obj 467 107 ambi 5;
#X obj 517 107 ambi 6;
#X obj 416 177 ambi 16;
#X obj 466 180 ambi 17;
#X obj 516 179 ambi 18;
#X obj 421 249 ambi 28;
#X obj 468 249 ambi 29;
#X obj 518 249 ambi 30;
#X obj 423 313 ambi2 10;
#X obj 423 338 ambi2 22;
#X obj 423 366 ambi2 34;
#X obj 482 368 ambi2 35;
#X obj 481 340 ambi2 23;
#X obj 483 313 ambi2 11;
#X obj 544 314 ambi2 12;
#X obj 544 339 ambi2 24;
#X obj 544 367 ambi2 36;
#X text 435 64 N - X - Y;
#X text 475 291 VOX;
#X connect 5 0 2 0;
#X connect 6 0 5 0;
#X connect 6 0 7 0;
#X connect 7 0 2 0;
#X connect 9 0 10 0;
#X connect 10 0 11 0;
#X coords -1 -1 1 1 250 250 2 100 100;
