#N canvas 925 728 234 146 10;
#X declare -lib iem_ambi -lib iemmatrix;
#X obj 23 108 simpleAmbiEncoder;
#X obj 24 21 r dp;
#X obj 22 77 route \$1;
#X obj 121 63 catch~ sig\$1;
#X connect 1 0 2 0;
#X connect 2 0 0 0;
#X connect 3 0 0 1;
