#N canvas 130 22 1169 754 10;
#X declare -lib iemgui -lib iem_ambi -lib iemlib -lib iemmatrix;
#X declare -lib iem_ambi -lib iemmatrix;
#X declare -lib iem_ambi -lib iemmatrix;
#X declare -lib iem_ambi -lib iemmatrix;
#X obj 35 253 s \$0-from-GUI;
#N canvas 594 126 450 300 GUI_init 1;
#X obj 40 121 f \$0;
#X obj 36 91 bng 15 250 50 0 empty empty empty 17 7 0 10 -262144 -1
-1;
#X obj 65 93 loadbang;
#X obj 259 115 loadbang;
#X obj 240 114 bng 15 250 50 0 empty empty empty 17 7 0 10 -262144
-1 -1;
#X msg 258 166 \; eu-to-GUI nr_src \$1;
#X obj 260 138 32;
#X floatatom 151 220 5 5 150 0 - - -;
#X text 187 217 pix;
#X msg 151 238 \; eu-to-GUI src_font \$1;
#X msg 40 145 \; eu-to-GUI size 240 \; eu-to-GUI src_font 20 \; eu-to-GUI
sphere_col 26 \; eu-to-GUI src_col 1 26;
#X connect 0 0 10 0;
#X connect 1 0 0 0;
#X connect 2 0 0 0;
#X connect 3 0 6 0;
#X connect 4 0 6 0;
#X connect 6 0 5 0;
#X connect 7 0 9 0;
#X restore 36 21 pd GUI_init;
#X obj 36 -5 import iemgui iem_ambi iemlib iemmatrix;
#X obj 104 102 cube_sphere 32 120 20 42245 195567 42245 120 134 62783
84 162 44925 48 108 241290 164 130 260817 120 120 258698 120 120 128991
120 120 250684 120 120 62783 120 120 44925 120 120 241290 120 120 260817
120 120 258698 120 120 128991 120 120 250684 120 120 62783 120 120
44925 120 120 241290 120 120 260817 120 120 258698 120 120 128991 120
120 250684 120 120 62783 120 120 44925 120 120 241290 120 120 260817
120 120 258698 120 120 128991 120 120 250684 120 120 62783 120 120
44925 120 120 241290 120 120;
#X obj 54 69 r eu-to-GUI;
#X msg 437 64 \; eu-to-GUI src_dp 1 \$1 \$2;
#X msg 449 98 \; eu-to-GUI src_dp 2 \$1 \$2;
#N canvas 400 340 450 300 init_arg 0;
#X obj 106 111 f \$1;
#X obj 106 67 loadbang;
#X obj 120 87 bng 15 250 50 0 empty empty empty 17 7 0 10 -262144 -1
-1;
#X text 19 34 init arg1: interpolation time (ms);
#X obj 106 145 sel 0;
#X msg 92 188 200;
#X text 55 190 std:;
#X obj 136 231 outlet;
#X connect 0 0 4 0;
#X connect 1 0 0 0;
#X connect 2 0 0 0;
#X connect 4 0 5 0;
#X connect 4 1 7 0;
#X connect 5 0 7 0;
#X restore 146 504 pd init_arg;
#N canvas 355 22 976 552 speedlim_parameters 0;
#X obj 64 32 r \$0-from-GUI;
#X obj 64 84 route 1;
#X obj 197 111 r \$0-itime;
#X obj 64 230 pack 0 0;
#X obj 64 263 outlet theta_phi;
#X obj 292 120 unpack;
#X obj 425 115 r \$0-itime;
#X obj 292 234 pack 0 0;
#X obj 292 267 outlet theta_phi;
#X obj 520 114 unpack;
#X obj 653 109 r \$0-itime;
#X obj 520 228 pack 0 0;
#X obj 520 261 outlet theta_phi;
#X obj 292 88 route 2;
#X obj 520 82 route 3;
#X obj 68 127 unpack;
#X obj 66 169 iemlib/speedlim 50;
#X obj 115 197 iemlib/speedlim 50;
#X obj 343 201 iemlib/speedlim 50;
#X obj 293 174 iemlib/speedlim 50;
#X obj 519 166 iemlib/speedlim 50;
#X obj 571 195 iemlib/speedlim 50;
#X connect 0 0 1 0;
#X connect 0 0 14 0;
#X connect 0 0 13 0;
#X connect 1 0 15 0;
#X connect 2 0 16 1;
#X connect 2 0 17 1;
#X connect 3 0 4 0;
#X connect 5 0 19 0;
#X connect 5 1 18 0;
#X connect 6 0 18 1;
#X connect 6 0 19 1;
#X connect 7 0 8 0;
#X connect 9 0 20 0;
#X connect 9 1 21 0;
#X connect 10 0 20 1;
#X connect 10 0 21 1;
#X connect 11 0 12 0;
#X connect 13 0 5 0;
#X connect 14 0 9 0;
#X connect 15 0 16 0;
#X connect 15 1 17 0;
#X connect 16 0 3 0;
#X connect 17 0 3 1;
#X connect 18 0 7 1;
#X connect 19 0 7 0;
#X connect 20 0 11 0;
#X connect 21 0 11 1;
#X restore 433 261 pd speedlim_parameters;
#X text 148 380 encode 1 order ambisonic (B-Format);
#X obj 45 407 mtx 4 1;
#X obj 32 506 mtx_mul~ 4 1 200;
#X text 68 460 matrix multiplication to generate ambisonic signals:
;
#N canvas 400 340 450 300 init_arg 0;
#X obj 106 111 f \$1;
#X obj 106 67 loadbang;
#X obj 120 87 bng 15 250 50 0 empty empty empty 17 7 0 10 -262144 -1
-1;
#X text 19 34 init arg1: interpolation time (ms);
#X obj 106 145 sel 0;
#X msg 92 188 200;
#X text 55 190 std:;
#X obj 136 231 outlet;
#X connect 0 0 4 0;
#X connect 1 0 0 0;
#X connect 2 0 0 0;
#X connect 4 0 5 0;
#X connect 4 1 7 0;
#X connect 5 0 7 0;
#X restore 523 518 pd init_arg;
#X obj 438 391 ambi_encode 1;
#X obj 438 419 mtx 4 1;
#X obj 402 515 mtx_mul~ 4 1 200;
#N canvas 400 340 450 300 init_arg 0;
#X obj 106 111 f \$1;
#X obj 106 67 loadbang;
#X obj 120 87 bng 15 250 50 0 empty empty empty 17 7 0 10 -262144 -1
-1;
#X text 19 34 init arg1: interpolation time (ms);
#X obj 106 145 sel 0;
#X msg 92 188 200;
#X text 55 190 std:;
#X obj 136 231 outlet;
#X connect 0 0 4 0;
#X connect 1 0 0 0;
#X connect 2 0 0 0;
#X connect 4 0 5 0;
#X connect 4 1 7 0;
#X connect 5 0 7 0;
#X restore 781 525 pd init_arg;
#X obj 673 390 ambi_encode 1;
#X obj 673 418 mtx 4 1;
#X obj 673 532 mtx_mul~ 4 1 200;
#X obj 97 481 inlet~ signal1;
#X obj 490 493 inlet~ signal2;
#X obj 725 492 inlet~ signal3;
#X msg 459 136 \; eu-to-GUI src_dp 3 \$1 \$2;
#X msg 734 88 \; eu-to-GUI vis 2 \$1;
#X msg 766 124 \; eu-to-GUI vis 3 \$1;
#X msg 703 54 \; eu-to-GUI vis 1 \$1;
#X obj 23 149 route src_dp;
#X obj 45 379 ambi_encode 1;
#X text 278 551 posición de parlantes;
#X obj 132 615 ambi-4ch-2D-decoder~;
#X obj 385 585 ambi-4ch-2D-decoder~;
#X obj 640 592 ambi-4ch-2D-decoder~;
#X msg 798 159 \; eu-to-GUI vis 4 \$1;
#X obj 418 713 throw~ masterL;
#X obj 502 713 throw~ masterR;
#X obj 587 713 throw~ masterRL;
#X obj 671 714 throw~ masterRR;
#X obj 440 8 r mapToPan;
#X obj 437 30 route 1 2 3 4 5 6 7 8 9 10 11 12 13 14 15 16 17 18 19
20 21 22 23 24 25 26 27 28 29 30 31 32;
#X connect 3 0 0 0;
#X connect 4 0 3 0;
#X connect 4 0 28 0;
#X connect 7 0 11 2;
#X connect 8 0 29 0;
#X connect 8 1 14 0;
#X connect 8 2 18 0;
#X connect 10 0 11 0;
#X connect 11 0 31 0;
#X connect 11 1 31 1;
#X connect 11 2 31 2;
#X connect 13 0 16 2;
#X connect 14 0 15 0;
#X connect 15 0 16 0;
#X connect 16 0 32 0;
#X connect 16 1 32 1;
#X connect 16 2 32 2;
#X connect 17 0 20 2;
#X connect 18 0 19 0;
#X connect 19 0 20 0;
#X connect 20 0 33 0;
#X connect 20 1 33 1;
#X connect 20 2 33 2;
#X connect 21 0 11 1;
#X connect 22 0 16 1;
#X connect 23 0 20 1;
#X connect 28 0 0 0;
#X connect 29 0 10 0;
#X connect 31 0 35 0;
#X connect 31 1 36 0;
#X connect 31 2 37 0;
#X connect 31 3 38 0;
#X connect 32 0 35 0;
#X connect 32 1 36 0;
#X connect 32 2 37 0;
#X connect 32 3 38 0;
#X connect 33 0 35 0;
#X connect 33 1 36 0;
#X connect 33 2 37 0;
#X connect 33 3 38 0;
#X connect 39 0 40 0;
#X connect 40 0 5 0;
#X connect 40 1 6 0;
#X connect 40 2 24 0;
#X coords -1 -1 1 1 130 130 1 100 100;
