#N canvas 86 80 1169 754 10;
#X declare -lib iemgui -lib iem_ambi -lib iemlib -lib iemmatrix;
#X declare -lib iem_ambi -lib iemmatrix;
#X declare -lib iem_ambi -lib iemmatrix;
#X declare -lib iem_ambi -lib iemmatrix;
#X declare -lib iem_ambi -lib iemmatrix;
#X obj 35 253 s \$0-from-GUI;
#N canvas 0 22 450 300 GUI_init 0;
#X obj 40 121 f \$0;
#X obj 36 91 bng 15 250 50 0 empty empty empty 17 7 0 10 -262144 -1
-1;
#X msg 43 144 \; \$1-to-GUI size 120 \; \$1-to-GUI src_font 40 \; \$1-to-GUI
sphere_col 27 \; \$1-to-GUI src_col 1 15;
#X obj 65 93 loadbang;
#X obj 259 115 loadbang;
#X obj 240 114 bng 15 250 50 0 empty empty empty 17 7 0 10 -262144
-1 -1;
#X msg 258 166 \; eu-to-GUI nr_src \$1;
#X obj 260 138 4;
#X connect 0 0 2 0;
#X connect 1 0 0 0;
#X connect 3 0 0 0;
#X connect 4 0 7 0;
#X connect 5 0 7 0;
#X connect 7 0 6 0;
#X restore 36 21 pd GUI_init;
#X obj 36 -5 import iemgui iem_ambi iemlib iemmatrix;
#X obj 104 102 cube_sphere 4 60 40 1108 195567 241290 35 81 62783 29
31 44925 80 33 241290 82 65;
#X obj 54 69 r eu-to-GUI;
#X msg 437 54 \; eu-to-GUI src_dp 1 \$1 \$2;
#X msg 465 90 \; eu-to-GUI src_dp 2 \$1 \$2;
#N canvas 400 340 450 300 init_arg 0;
#X obj 106 111 f \$1;
#X obj 106 67 loadbang;
#X obj 120 87 bng 15 250 50 0 empty empty empty 17 7 0 10 -262144 -1
-1;
#X text 19 34 init arg1: interpolation time (ms);
#X obj 106 145 sel 0;
#X msg 92 188 200;
#X text 55 190 std:;
#X obj 136 231 outlet;
#X connect 0 0 4 0;
#X connect 1 0 0 0;
#X connect 2 0 0 0;
#X connect 4 0 5 0;
#X connect 4 1 7 0;
#X connect 5 0 7 0;
#X restore 146 504 pd init_arg;
#N canvas 355 22 976 552 speedlim_parameters 0;
#X obj 64 32 r \$0-from-GUI;
#X obj 64 84 route 1;
#X obj 197 111 r \$0-itime;
#X obj 64 230 pack 0 0;
#X obj 64 263 outlet theta_phi;
#X obj 292 120 unpack;
#X obj 425 115 r \$0-itime;
#X obj 292 234 pack 0 0;
#X obj 292 267 outlet theta_phi;
#X obj 520 114 unpack;
#X obj 653 109 r \$0-itime;
#X obj 520 228 pack 0 0;
#X obj 520 261 outlet theta_phi;
#X obj 741 106 unpack;
#X obj 874 101 r \$0-itime;
#X obj 741 220 pack 0 0;
#X obj 746 251 outlet theta_phi;
#X obj 292 88 route 2;
#X obj 520 82 route 3;
#X obj 741 74 route 4;
#X obj 68 127 unpack;
#X obj 66 169 iemlib/speedlim 50;
#X obj 115 197 iemlib/speedlim 50;
#X obj 343 201 iemlib/speedlim 50;
#X obj 293 174 iemlib/speedlim 50;
#X obj 519 166 iemlib/speedlim 50;
#X obj 571 195 iemlib/speedlim 50;
#X obj 741 158 iemlib/speedlim 50;
#X obj 792 187 iemlib/speedlim 50;
#X connect 0 0 1 0;
#X connect 0 0 18 0;
#X connect 0 0 17 0;
#X connect 0 0 19 0;
#X connect 1 0 20 0;
#X connect 2 0 21 1;
#X connect 2 0 22 1;
#X connect 3 0 4 0;
#X connect 5 0 24 0;
#X connect 5 1 23 0;
#X connect 6 0 23 1;
#X connect 6 0 24 1;
#X connect 7 0 8 0;
#X connect 9 0 25 0;
#X connect 9 1 26 0;
#X connect 10 0 25 1;
#X connect 10 0 26 1;
#X connect 11 0 12 0;
#X connect 13 0 27 0;
#X connect 13 1 28 0;
#X connect 14 0 27 1;
#X connect 14 0 28 1;
#X connect 15 0 16 0;
#X connect 17 0 5 0;
#X connect 18 0 9 0;
#X connect 19 0 13 0;
#X connect 20 0 21 0;
#X connect 20 1 22 0;
#X connect 21 0 3 0;
#X connect 22 0 3 1;
#X connect 23 0 7 1;
#X connect 24 0 7 0;
#X connect 25 0 11 0;
#X connect 26 0 11 1;
#X connect 27 0 15 0;
#X connect 28 0 15 1;
#X restore 433 261 pd speedlim_parameters;
#X text 148 380 encode 1 order ambisonic (B-Format);
#X obj 45 407 mtx 4 1;
#X obj 32 506 mtx_mul~ 4 1 200;
#X text 68 460 matrix multiplication to generate ambisonic signals:
;
#N canvas 400 340 450 300 init_arg 0;
#X obj 106 111 f \$1;
#X obj 106 67 loadbang;
#X obj 120 87 bng 15 250 50 0 empty empty empty 17 7 0 10 -262144 -1
-1;
#X text 19 34 init arg1: interpolation time (ms);
#X obj 106 145 sel 0;
#X msg 92 188 200;
#X text 55 190 std:;
#X obj 136 231 outlet;
#X connect 0 0 4 0;
#X connect 1 0 0 0;
#X connect 2 0 0 0;
#X connect 4 0 5 0;
#X connect 4 1 7 0;
#X connect 5 0 7 0;
#X restore 523 518 pd init_arg;
#X obj 438 391 ambi_encode 1;
#X obj 438 419 mtx 4 1;
#X obj 402 515 mtx_mul~ 4 1 200;
#N canvas 400 340 450 300 init_arg 0;
#X obj 106 111 f \$1;
#X obj 106 67 loadbang;
#X obj 120 87 bng 15 250 50 0 empty empty empty 17 7 0 10 -262144 -1
-1;
#X text 19 34 init arg1: interpolation time (ms);
#X obj 106 145 sel 0;
#X msg 92 188 200;
#X text 55 190 std:;
#X obj 136 231 outlet;
#X connect 0 0 4 0;
#X connect 1 0 0 0;
#X connect 2 0 0 0;
#X connect 4 0 5 0;
#X connect 4 1 7 0;
#X connect 5 0 7 0;
#X restore 781 525 pd init_arg;
#X obj 673 390 ambi_encode 1;
#X obj 673 418 mtx 4 1;
#X obj 673 532 mtx_mul~ 4 1 200;
#N canvas 400 340 450 300 init_arg 0;
#X obj 106 111 f \$1;
#X obj 106 67 loadbang;
#X obj 120 87 bng 15 250 50 0 empty empty empty 17 7 0 10 -262144 -1
-1;
#X text 19 34 init arg1: interpolation time (ms);
#X obj 106 145 sel 0;
#X msg 92 188 200;
#X text 55 190 std:;
#X obj 136 231 outlet;
#X connect 0 0 4 0;
#X connect 1 0 0 0;
#X connect 2 0 0 0;
#X connect 4 0 5 0;
#X connect 4 1 7 0;
#X connect 5 0 7 0;
#X restore 986 521 pd init_arg;
#X obj 880 390 ambi_encode 1;
#X obj 880 418 mtx 4 1;
#X obj 880 532 mtx_mul~ 4 1 200;
#X obj 418 713 outlet~ ch1;
#X obj 502 713 outlet~ ch2;
#X obj 587 713 outlet~ ch3;
#X obj 671 713 outlet~ ch4;
#N canvas 0 22 399 256 debug-signal~ 0;
#X obj 37 -83 inlet~;
#X obj 37 45 snapshot~;
#X obj 127 -83 inlet~;
#X obj 127 45 snapshot~;
#X obj 216 -83 inlet~;
#X obj 216 45 snapshot~;
#X obj 300 -83 inlet~;
#X obj 300 45 snapshot~;
#X obj 84 -3 metro 300;
#X floatatom 114 107 4 0 0 0 - - -;
#X floatatom 149 107 4 0 0 0 - - -;
#X floatatom 180 107 4 0 0 0 - - -;
#X floatatom 209 107 4 0 0 0 - - -;
#X obj 174 0 s debug_metro;
#X obj 251 110 tgl 15 0 empty empty empty 17 7 0 10 -262144 -1 -1 0
1;
#X connect 0 0 1 0;
#X connect 1 0 9 0;
#X connect 2 0 3 0;
#X connect 3 0 10 0;
#X connect 4 0 5 0;
#X connect 5 0 11 0;
#X connect 6 0 7 0;
#X connect 7 0 12 0;
#X connect 8 0 1 0;
#X connect 8 0 3 0;
#X connect 8 0 5 0;
#X connect 8 0 7 0;
#X connect 8 0 13 0;
#X connect 14 0 8 0;
#X coords 0 -1 1 1 180 30 1 100 100;
#X restore 14 659 pd debug-signal~;
#X obj 97 481 inlet~ signal1;
#X obj 490 493 inlet~ signal2;
#X obj 725 492 inlet~ signal3;
#X obj 932 492 inlet~ signal4;
#X msg 490 127 \; eu-to-GUI src_dp 3 \$1 \$2;
#X msg 519 162 \; eu-to-GUI src_dp 4 \$1 \$2;
#N canvas 0 22 450 300 OBJECT_ON_OFF 0;
#X obj 90 88 select 1 2 3 4;
#X obj 204 89 select 1 2 3 4;
#X obj 79 52 r ObjectON;
#X obj 184 54 r ObjectOFF;
#X obj 194 152 tgl 15 0 empty empty empty 17 7 0 10 -262144 -1 -1 0
1;
#X obj 159 151 tgl 15 0 empty empty empty 17 7 0 10 -262144 -1 -1 0
1;
#X obj 260 155 tgl 15 0 empty empty empty 17 7 0 10 -262144 -1 -1 0
1;
#X obj 225 154 tgl 15 0 empty empty empty 17 7 0 10 -262144 -1 -1 0
1;
#X obj 68 242 outlet;
#X obj 184 243 outlet;
#X obj 293 247 outlet;
#X obj 390 244 outlet;
#X connect 0 0 5 0;
#X connect 0 1 4 0;
#X connect 0 2 7 0;
#X connect 0 3 6 0;
#X connect 1 0 5 0;
#X connect 1 1 4 0;
#X connect 1 2 7 0;
#X connect 1 3 6 0;
#X connect 2 0 0 0;
#X connect 3 0 1 0;
#X connect 4 0 9 0;
#X connect 5 0 8 0;
#X connect 6 0 11 0;
#X connect 7 0 10 0;
#X restore 702 5 pd OBJECT_ON_OFF;
#X msg 734 88 \; eu-to-GUI vis 2 \$1;
#X msg 766 124 \; eu-to-GUI vis 3 \$1;
#X msg 798 159 \; eu-to-GUI vis 4 \$1;
#X msg 703 54 \; eu-to-GUI vis 1 \$1;
#X obj 23 149 route src_dp;
#X obj 45 379 ambi_encode 1;
#X obj 437 30 route 1 2 3 4;
#X obj 440 8 r mapped;
#X text 278 551 posición de parlantes;
#X obj 132 615 ambi-4ch-2D-decoder~;
#X obj 385 585 ambi-4ch-2D-decoder~;
#X obj 640 592 ambi-4ch-2D-decoder~;
#X obj 839 601 ambi-4ch-2D-decoder~;
#X connect 3 0 0 0;
#X connect 4 0 3 0;
#X connect 4 0 41 0;
#X connect 7 0 11 2;
#X connect 8 0 42 0;
#X connect 8 1 14 0;
#X connect 8 2 18 0;
#X connect 8 3 22 0;
#X connect 10 0 11 0;
#X connect 11 0 29 0;
#X connect 11 0 46 0;
#X connect 11 1 29 1;
#X connect 11 1 46 1;
#X connect 11 2 29 2;
#X connect 11 2 46 2;
#X connect 11 3 29 3;
#X connect 13 0 16 2;
#X connect 14 0 15 0;
#X connect 15 0 16 0;
#X connect 16 0 47 0;
#X connect 16 1 47 1;
#X connect 16 2 47 2;
#X connect 17 0 20 2;
#X connect 18 0 19 0;
#X connect 19 0 20 0;
#X connect 20 0 48 0;
#X connect 20 1 48 1;
#X connect 20 2 48 2;
#X connect 21 0 24 2;
#X connect 22 0 23 0;
#X connect 23 0 24 0;
#X connect 24 0 49 0;
#X connect 24 1 49 1;
#X connect 24 2 49 2;
#X connect 30 0 11 1;
#X connect 31 0 16 1;
#X connect 32 0 20 1;
#X connect 33 0 24 1;
#X connect 41 0 0 0;
#X connect 42 0 10 0;
#X connect 43 0 5 0;
#X connect 43 1 6 0;
#X connect 43 2 34 0;
#X connect 43 3 35 0;
#X connect 44 0 43 0;
#X connect 46 0 25 0;
#X connect 46 1 26 0;
#X connect 46 2 27 0;
#X connect 46 3 28 0;
#X connect 47 0 25 0;
#X connect 47 1 26 0;
#X connect 47 2 27 0;
#X connect 47 3 28 0;
#X connect 48 0 25 0;
#X connect 48 1 26 0;
#X connect 48 2 27 0;
#X connect 48 3 28 0;
#X connect 49 0 25 0;
#X connect 49 1 26 0;
#X connect 49 2 27 0;
#X connect 49 3 28 0;
#X coords -1 -1 1 1 130 130 1 100 100;
