#N canvas 140 105 789 780 10;
#X declare -lib iemgui -lib iem_ambi -lib iemlib -lib iemmatrix;
#X obj 52 307 s \$0-from-GUI;
#X obj 110 562 inlet~ signal;
#N canvas 0 22 450 300 GUI_init 0;
#X obj 121 121 f \$0;
#X obj 117 91 bng 15 250 50 0 empty empty empty 17 7 0 10 -262144 -1
-1;
#X msg 124 144 \; \$1-to-GUI size 120 \; \$1-to-GUI src_font 40 \;
\$1-to-GUI sphere_col 27 \; \$1-to-GUI src_col 1 15;
#X obj 146 93 loadbang;
#X connect 0 0 2 0;
#X connect 1 0 0 0;
#X connect 3 0 0 0;
#X restore 374 155 pd GUI_init;
#X text 237 31 arg1: imterpolation time for positions (in ms);
#N canvas 400 340 450 300 init_arg 0;
#X obj 106 111 f \$1;
#X obj 106 67 loadbang;
#X obj 120 87 bng 15 250 50 0 empty empty empty 17 7 0 10 -262144 -1
-1;
#X text 19 34 init arg1: interpolation time (ms);
#X obj 106 145 sel 0;
#X msg 92 188 200;
#X text 55 190 std:;
#X obj 136 231 outlet;
#X connect 0 0 4 0;
#X connect 1 0 0 0;
#X connect 2 0 0 0;
#X connect 4 0 5 0;
#X connect 4 1 7 0;
#X connect 5 0 7 0;
#X restore 177 602 pd init_arg;
#X obj 179 128 import iemgui iem_ambi iemlib iemmatrix;
#X text 120 23 AMBISONIC B-FORMAT ENCODER;
#N canvas 364 344 326 334 speedlim_parameters 0;
#X obj 64 32 r \$0-from-GUI;
#X obj 64 84 route 1;
#X obj 64 116 unpack;
#X obj 197 111 r \$0-itime;
#X obj 64 230 pack 0 0;
#X obj 64 263 outlet theta_phi;
#X obj 64 168 iemlib/speedlim 200;
#X obj 115 197 iemlib/speedlim 200;
#X connect 0 0 1 0;
#X connect 1 0 2 0;
#X connect 2 0 6 0;
#X connect 2 1 7 0;
#X connect 3 0 6 1;
#X connect 3 0 7 1;
#X connect 4 0 5 0;
#X connect 6 0 4 0;
#X connect 7 0 4 1;
#X restore 58 416 pd speedlim_parameters;
#X obj 52 158 cube_sphere 2 60 40 1108 195567 241290 33 69 62783 60
60;
#X obj 58 460 ambi_encode 1;
#X text 161 461 encode 1 order ambisonic (B-Format);
#X text 242 48 First Order Ambisonic Encoder (can be used for 2D or
3D ambisonic);
#X obj 58 488 mtx 4 1;
#X obj 58 602 mtx_mul~ 4 1 200;
#X text 81 541 matrix multiplication to generate ambisonic signals:
;
#X obj 57 690 outlet~ W;
#X obj 137 690 outlet~ X;
#X obj 215 690 outlet~ Y;
#X obj 294 690 outlet~ Z;
#X obj 337 194 r angulo;
#X obj 282 213 r modulo;
#X obj 300 290 pack;
#X obj 334 290 t b f;
#X floatatom 294 239 5 0 0 0 - - -;
#X floatatom 337 221 5 0 0 0 - - -;
#X obj 52 123 r eu-to-GUI;
#X msg 298 329 \; eu-to-GUI src_dp 1 \$1 \$2;
#X obj 385 247 + 90;
#X floatatom 403 270 5 0 0 0 - - -;
#X floatatom 195 302 5 0 0 0 - - -;
#X obj 230 257 - 90;
#X obj 254 295 abs;
#X obj 607 194 r angulo;
#X obj 552 213 r modulo;
#X obj 570 290 pack;
#X obj 604 290 t b f;
#X floatatom 564 239 5 0 0 0 - - -;
#X floatatom 607 221 5 0 0 0 - - -;
#X obj 655 247 + 90;
#X floatatom 673 270 5 0 0 0 - - -;
#X floatatom 465 302 5 0 0 0 - - -;
#X obj 500 257 - 90;
#X obj 524 295 abs;
#X msg 567 333 \; eu-to-GUI src_dp 2 \$1 \$2;
#X obj 599 65 loadbang;
#X obj 580 64 bng 15 250 50 0 empty empty empty 17 7 0 10 -262144 -1
-1;
#X msg 598 116 \; eu-to-GUI nr_src \$1;
#X obj 600 88 4;
#X connect 1 0 13 1;
#X connect 4 0 13 2;
#X connect 7 0 9 0;
#X connect 8 0 0 0;
#X connect 9 0 12 0;
#X connect 12 0 13 0;
#X connect 13 0 15 0;
#X connect 13 1 16 0;
#X connect 13 2 17 0;
#X connect 13 3 18 0;
#X connect 19 0 24 0;
#X connect 20 0 23 0;
#X connect 21 0 26 0;
#X connect 22 0 21 0;
#X connect 22 1 21 1;
#X connect 23 0 30 0;
#X connect 24 0 27 0;
#X connect 25 0 8 0;
#X connect 27 0 22 0;
#X connect 27 0 28 0;
#X connect 30 0 29 0;
#X connect 30 0 31 0;
#X connect 31 0 21 0;
#X connect 32 0 37 0;
#X connect 33 0 36 0;
#X connect 34 0 43 0;
#X connect 35 0 34 0;
#X connect 35 1 34 1;
#X connect 36 0 41 0;
#X connect 37 0 38 0;
#X connect 38 0 35 0;
#X connect 38 0 39 0;
#X connect 41 0 40 0;
#X connect 41 0 42 0;
#X connect 42 0 34 0;
#X connect 44 0 47 0;
#X connect 45 0 47 0;
#X connect 47 0 46 0;
#X coords 0 -1 1 1 124 138 1 50 150;
