#N canvas 302 169 879 706 10;
#X obj 431 101 cnv 15 83 58 empty empty empty 20 12 0 14 -258113 -66577
0;
#X obj 434 104 cnv 15 78 53 empty empty empty 20 12 0 14 -261234 -66577
0;
#X text 385 42 reverse para hacer compatible con objeto polar;
#X obj 437 139 tgl 15 0 empty empty empty 17 7 0 10 -4160 -258113 -1
0 1;
#X obj 437 116 tgl 15 0 empty empty empty 17 7 0 10 -260097 -258113
-1 1 1;
#X text 455 137 reverse Y;
#X text 455 115 reverse X;
#X floatatom 217 182 5 0 0 0 - - -;
#X floatatom 271 182 5 0 0 0 - - -;
#X text 271 205 y-axis;
#X text 212 205 x-axis;
#X obj 188 446 t b f;
#X obj 97 519 pack f f f;
#X obj 122 425 t b f;
#X obj 263 141 reverse;
#X obj 224 249 polar;
#X obj 136 340 * 90;
#X floatatom 144 381 5 0 0 0 - - -;
#X obj 136 315 reverse;
#X obj 228 308 * 360;
#X obj 228 333 moses 270;
#X floatatom 240 402 5 0 0 0 - - -;
#X obj 281 360 - 450;
#X obj 228 358 - 90;
#X obj 123 266 s revControl;
#X obj 138 160 reverse;
#N canvas 0 22 450 300 cambio 0;
#X obj 174 147 spigot;
#X floatatom 225 76 1 0 0 0 - - -;
#X obj 205 126 expr 1-$f1;
#X obj 271 46 loadbang;
#X obj 110 147 spigot;
#X obj 74 49 inlet;
#X obj 85 243 outlet;
#X obj 165 246 outlet;
#X obj 214 31 inlet;
#X connect 0 0 7 0;
#X connect 1 0 2 0;
#X connect 1 0 4 1;
#X connect 2 0 0 1;
#X connect 3 0 1 0;
#X connect 4 0 6 0;
#X connect 5 0 4 0;
#X connect 5 0 0 0;
#X connect 8 0 1 0;
#X restore 328 141 pd cambio;
#N canvas 0 22 450 300 cambio 0;
#X obj 174 147 spigot;
#X floatatom 225 76 1 0 0 0 - - -;
#X obj 205 126 expr 1-$f1;
#X obj 271 46 loadbang;
#X obj 110 147 spigot;
#X obj 74 49 inlet;
#X obj 85 243 outlet;
#X obj 165 246 outlet;
#X obj 214 31 inlet;
#X connect 0 0 7 0;
#X connect 1 0 2 0;
#X connect 1 0 4 1;
#X connect 2 0 0 1;
#X connect 3 0 1 0;
#X connect 4 0 6 0;
#X connect 5 0 4 0;
#X connect 5 0 0 0;
#X connect 8 0 1 0;
#X restore 164 130 pd cambio;
#X obj 219 91 pipe 1;
#X obj 334 92 pipe 1;
#X obj 120 601 s mapToPan;
#X obj 208 63 unpack \$0 \$1 \$2;
#X obj 209 39 r aS;
#X obj 460 104 tgl 15 0 empty empty empty 17 7 0 10 -260097 -258113
-1 0 1;
#X text 478 103 swipe;
#X obj 399 172 + 1;
#X floatatom 445 193 5 0 0 0 - - -;
#X obj 77 211 switch;
#X obj 321 215 switch;
#X obj 569 96 loadbang;
#X obj 570 144 del 1000;
#X connect 3 0 26 1;
#X connect 4 0 27 1;
#X connect 7 0 37 1;
#X connect 7 0 38 2;
#X connect 8 0 37 2;
#X connect 8 0 38 1;
#X connect 11 0 12 0;
#X connect 11 1 12 2;
#X connect 12 0 30 0;
#X connect 13 0 12 0;
#X connect 13 1 12 1;
#X connect 14 0 8 0;
#X connect 15 0 18 0;
#X connect 15 0 24 0;
#X connect 15 1 19 0;
#X connect 16 0 17 0;
#X connect 17 0 13 0;
#X connect 18 0 16 0;
#X connect 19 0 20 0;
#X connect 20 0 23 0;
#X connect 20 1 22 0;
#X connect 21 0 11 0;
#X connect 22 0 21 0;
#X connect 23 0 21 0;
#X connect 25 0 7 0;
#X connect 26 0 14 0;
#X connect 26 1 8 0;
#X connect 27 0 7 0;
#X connect 27 1 25 0;
#X connect 28 0 27 0;
#X connect 29 0 26 0;
#X connect 31 0 12 0;
#X connect 31 1 28 0;
#X connect 31 2 29 0;
#X connect 32 0 31 0;
#X connect 33 0 35 0;
#X connect 35 0 36 0;
#X connect 35 0 37 0;
#X connect 35 0 38 0;
#X connect 37 0 15 0;
#X connect 38 0 15 1;
#X connect 39 0 33 0;
#X connect 39 0 40 0;
#X connect 39 0 4 0;
#X connect 40 0 33 0;
#X coords 0 -1 1 1 85 60 2 430 100;
