#N canvas 406 67 940 622 10;
#X obj 31 51 cnv 15 238 220 empty empty empty 20 12 0 14 -260097 -66577
0;
#X obj 37 55 cnv 15 228 210 empty empty empty 20 12 0 14 -261682 -66577
0;
#X obj 327 465 *~;
#X obj 480 401 *~;
#X obj 302 425 line~;
#X msg 302 402 \$1 50;
#X text 549 -72 4-Channel Output with Volume Control;
#X obj 577 397 *~;
#X obj 680 401 *~;
#X obj 370 382 hip~ 5;
#X obj 473 369 hip~ 5;
#X obj 570 371 hip~ 5;
#X obj 674 375 hip~ 5;
#X obj 378 335 +compand~;
#X obj 382 304 r comp;
#X obj 498 306 r comp_ratio;
#X obj 469 333 +compand~;
#X obj 609 304 r comp_thresh;
#X obj 569 327 +compand~;
#X obj 667 338 +compand~;
#N canvas 733 273 450 300 compSettings 0;
#X obj 61 230 s comp_initratio;
#X obj 156 170 s comp;
#X obj 253 171 s comp;
#X obj 25 171 s comp;
#X msg 156 149 attack \$1;
#X msg 253 150 release \$1;
#X msg 25 150 softKnee \$1;
#X obj 341 169 s comp;
#X msg 341 148 makeupGain \$1;
#X obj 202 228 s comp_initthresh;
#X msg 24 125 0.1;
#X msg 197 197 -13.2;
#X msg 107 186 0.7;
#X msg 340 111 4;
#X obj 169 43 loadbang;
#X obj 342 234 s comp;
#X obj 342 193 tgl 15 0 empty comp_rms empty 17 7 0 10 -262144 -1 -1
1 1;
#X msg 342 213 rmsDetect \$1;
#X msg 155 119 2;
#X msg 241 118 114;
#X connect 4 0 1 0;
#X connect 5 0 2 0;
#X connect 6 0 3 0;
#X connect 8 0 7 0;
#X connect 10 0 6 0;
#X connect 11 0 9 0;
#X connect 12 0 0 0;
#X connect 13 0 8 0;
#X connect 14 0 10 0;
#X connect 14 0 18 0;
#X connect 14 0 19 0;
#X connect 14 0 13 0;
#X connect 14 0 12 0;
#X connect 14 0 11 0;
#X connect 14 0 16 0;
#X connect 16 0 17 0;
#X connect 17 0 15 0;
#X connect 18 0 4 0;
#X connect 19 0 5 0;
#X restore 740 370 pd compSettings;
#X obj 208 130 4ch_levelToVisualizeEnv2;
#X obj 381 -36 catch~ masterL;
#X obj 481 -37 catch~ masterR;
#X obj 579 -37 catch~ masterLR;
#X obj 681 -37 catch~ masterRR;
#X obj 40 66 vsl 30 170 0 1 0 0 empty empty empty 42 20 0 10 -260097
-1 -1 11830 1;
#X obj 758 461 ../logic/record;
#X obj 385 422 *~ 1.3;
#X obj 488 427 *~ 1.3;
#X obj 585 423 *~ 1.3;
#X obj 663 425 *~ 1.3;
#X obj 427 23 line~;
#X msg 427 0 \$1 50;
#X obj 682 -4 *~;
#X obj 580 -3 *~;
#X obj 480 -3 *~;
#X obj 381 1 *~;
#X obj 116 86 vsl 20 150 0 2 0 0 empty empty empty 42 20 0 10 -260097
-1 -1 14900 1;
#X obj 356 108 line~;
#X msg 356 85 \$1 50;
#X obj 728 110 *~;
#X obj 626 111 *~;
#X obj 526 111 *~;
#X obj 427 115 *~;
#X obj 427 78 catch~ ambL2;
#X obj 527 77 catch~ ambR2;
#X obj 625 77 catch~ ambLR2;
#X obj 727 77 catch~ ambRR2;
#X obj 84 86 vsl 20 150 0 2 0 0 empty empty empty 42 20 0 10 -260097
-1 -1 5364 1;
#X obj 148 88 vsl 20 150 0 2 0 0 empty empty empty 42 20 0 10 -260097
-1 -1 6705 1;
#X obj 437 150 catch~ fxL;
#X obj 732 150 catch~ fxRR;
#X obj 531 151 catch~ fxR;
#X obj 629 150 catch~ fxLR;
#X obj 373 184 line~;
#X msg 373 161 \$1 50;
#X obj 745 186 *~;
#X obj 643 187 *~;
#X obj 543 187 *~;
#X obj 444 191 *~;
#X obj 273 518 throw~ mastAnalysis;
#X obj 259 353 * 1.4;
#X obj 257 378 * 1.4;
#X obj 470 519 dac~ 1 2 3 4 5;
#X obj 634 483 *~ 0.25;
#X obj 634 533 *~ 1;
#X obj 634 506 lop~ 40;
#X obj 28 -60 loadbang;
#X obj 41 -19 1;
#X obj 98 -35 bng 15 250 50 0 empty empty empty 17 7 0 10 -262144 -1
-1;
#X obj 98 16 * 2;
#X obj 202 21 * 0.9;
#X obj 145 19 * 0.72;
#X obj 44 19 * 0.7;
#X obj 4 -6 r s4;
#X obj 109 -82 r s1;
#X obj 116 -34 * 2;
#X obj 150 -26 * 2;
#X obj 180 -20 * 2;
#X obj 181 -59 r s0;
#X obj 151 -65 r s2;
#X obj 417 398 r mC1;
#X obj 509 397 r mC2;
#X obj 610 398 r mC3;
#X obj 716 401 r mC4;
#X obj 182 88 vsl 20 150 0 2 0 0 empty empty empty 42 20 0 10 -260097
-1 -1 6705 1;
#X obj 433 259 line~;
#X msg 433 236 \$1 50;
#X obj 805 261 *~;
#X obj 703 262 *~;
#X obj 603 262 *~;
#X obj 504 266 *~;
#X obj 308 310 * 1.4;
#X text 44 240 main- amb - obj - fx - vox;
#X obj 497 225 catch~ voxL;
#X obj 591 226 catch~ voxR;
#X obj 792 225 catch~ voxRR;
#X obj 690 224 catch~ voxLR;
#X obj 243 -25 * 2;
#X obj 244 -64 r s3;
#X connect 2 0 27 0;
#X connect 2 0 28 0;
#X connect 3 0 27 1;
#X connect 3 0 29 0;
#X connect 4 0 2 1;
#X connect 4 0 3 1;
#X connect 4 0 7 1;
#X connect 4 0 8 1;
#X connect 5 0 4 0;
#X connect 7 0 27 2;
#X connect 7 0 30 0;
#X connect 8 0 27 3;
#X connect 8 0 31 0;
#X connect 9 0 2 0;
#X connect 10 0 3 0;
#X connect 11 0 7 0;
#X connect 12 0 8 0;
#X connect 13 0 9 0;
#X connect 14 0 13 0;
#X connect 14 0 16 0;
#X connect 14 0 18 0;
#X connect 14 0 19 0;
#X connect 15 0 13 1;
#X connect 15 0 16 1;
#X connect 15 0 18 1;
#X connect 15 0 19 1;
#X connect 16 0 10 0;
#X connect 17 0 16 2;
#X connect 17 0 13 2;
#X connect 17 0 18 2;
#X connect 17 0 19 2;
#X connect 18 0 11 0;
#X connect 19 0 12 0;
#X connect 22 0 37 0;
#X connect 23 0 36 0;
#X connect 24 0 35 0;
#X connect 25 0 34 0;
#X connect 26 0 63 0;
#X connect 28 0 61 0;
#X connect 28 0 21 0;
#X connect 28 0 64 0;
#X connect 28 0 65 0;
#X connect 29 0 61 0;
#X connect 29 0 21 1;
#X connect 29 0 64 1;
#X connect 29 0 65 0;
#X connect 30 0 61 0;
#X connect 30 0 21 2;
#X connect 30 0 65 0;
#X connect 30 0 64 2;
#X connect 31 0 61 0;
#X connect 31 0 21 3;
#X connect 31 0 65 0;
#X connect 31 0 64 3;
#X connect 32 0 34 1;
#X connect 32 0 35 1;
#X connect 32 0 36 1;
#X connect 32 0 37 1;
#X connect 33 0 32 0;
#X connect 34 0 19 0;
#X connect 35 0 18 0;
#X connect 36 0 16 0;
#X connect 37 0 13 0;
#X connect 38 0 33 0;
#X connect 39 0 41 1;
#X connect 39 0 42 1;
#X connect 39 0 43 1;
#X connect 39 0 44 1;
#X connect 40 0 39 0;
#X connect 41 0 19 0;
#X connect 42 0 18 0;
#X connect 43 0 16 0;
#X connect 44 0 13 0;
#X connect 45 0 44 0;
#X connect 46 0 43 0;
#X connect 47 0 42 0;
#X connect 48 0 41 0;
#X connect 49 0 40 0;
#X connect 50 0 62 0;
#X connect 51 0 60 0;
#X connect 52 0 57 0;
#X connect 53 0 59 0;
#X connect 54 0 58 0;
#X connect 55 0 57 1;
#X connect 55 0 58 1;
#X connect 55 0 59 1;
#X connect 55 0 60 1;
#X connect 56 0 55 0;
#X connect 57 0 19 0;
#X connect 58 0 18 0;
#X connect 59 0 16 0;
#X connect 60 0 13 0;
#X connect 62 0 56 0;
#X connect 63 0 5 0;
#X connect 65 0 67 0;
#X connect 66 0 64 4;
#X connect 67 0 66 0;
#X connect 68 0 69 0;
#X connect 69 0 71 0;
#X connect 69 0 72 0;
#X connect 69 0 73 0;
#X connect 69 0 74 0;
#X connect 70 0 69 0;
#X connect 71 0 38 0;
#X connect 72 0 50 0;
#X connect 72 0 86 0;
#X connect 73 0 49 0;
#X connect 74 0 26 0;
#X connect 75 0 26 0;
#X connect 76 0 77 0;
#X connect 77 0 38 0;
#X connect 78 0 49 0;
#X connect 79 0 50 0;
#X connect 80 0 79 0;
#X connect 81 0 78 0;
#X connect 82 0 28 1;
#X connect 83 0 29 1;
#X connect 84 0 30 1;
#X connect 85 0 31 1;
#X connect 86 0 93 0;
#X connect 87 0 89 1;
#X connect 87 0 90 1;
#X connect 87 0 91 1;
#X connect 87 0 92 1;
#X connect 88 0 87 0;
#X connect 89 0 19 0;
#X connect 90 0 18 0;
#X connect 91 0 16 0;
#X connect 92 0 13 0;
#X connect 93 0 88 0;
#X connect 95 0 92 0;
#X connect 96 0 91 0;
#X connect 97 0 89 0;
#X connect 98 0 90 0;
#X connect 99 0 86 0;
#X connect 100 0 99 0;
#X coords 0 -1 1 1 240 225 2 30 50;
