#N canvas 361 242 450 300 10;
#X declare -lib iem_ambi -lib iemmatrix;
#N canvas 400 340 450 300 init_arg 0;
#X obj 106 111 f \$1;
#X obj 106 67 loadbang;
#X obj 120 87 bng 15 250 50 0 empty empty empty 17 7 0 10 -262144 -1
-1;
#X text 19 34 init arg1: interpolation time (ms);
#X obj 106 145 sel 0;
#X msg 92 188 200;
#X text 55 190 std:;
#X obj 136 231 outlet;
#X connect 0 0 4 0;
#X connect 1 0 0 0;
#X connect 2 0 0 0;
#X connect 4 0 5 0;
#X connect 4 1 7 0;
#X connect 5 0 7 0;
#X restore 194 134 pd init_arg;
#X obj 95 69 ambi_encode 1;
#X obj 95 97 mtx 4 1;
#X obj 103 155 mtx_mul~ 4 1 200;
#X obj 70 215 ambi-4ch-2D-decoder~;
#X obj 81 25 inlet;
#X obj 52 247 throw~ masterL;
#X obj 136 247 throw~ masterR;
#X obj 252 232 throw~ masterRR;
#X obj 150 112 inlet~ signal;
#X obj 245 250 throw~ masterLR;
#X connect 0 0 3 2;
#X connect 1 0 2 0;
#X connect 2 0 3 0;
#X connect 3 0 4 0;
#X connect 3 1 4 1;
#X connect 3 2 4 2;
#X connect 4 0 6 0;
#X connect 4 1 7 0;
#X connect 4 2 10 0;
#X connect 4 3 8 0;
#X connect 5 0 1 0;
#X connect 9 0 3 1;
