#N canvas 586 239 478 272 10;
#X text 18 16 Some Testsignals;
#X obj 249 229 outlet~ signal;
#N canvas 0 0 450 300 EXTERNALS 0;
#X obj 18 18 import iemlib;
#X restore 20 38 pd EXTERNALS;
#X obj 22 105 tgl 13 0 empty empty IO 16 7 0 10 -260818 -1 -1 0 1;
#X obj 55 105 bng 13 250 50 0 empty empty sig 16 7 0 10 -260818 -1
-1;
#X obj 98 85 vsl 15 30 0 100 0 0 empty empty dB 2 16 0 10 -260818 -1
-1 0 1;
#X text 64 156 open signal window;
#N canvas 0 0 450 300 vol 0;
#X obj 104 142 dbtorms;
#X msg 104 164 \$1 50;
#X obj 104 187 line~;
#X obj 88 225 *~;
#X obj 86 53 inlet~ sig;
#X obj 330 52 inlet io;
#X obj 204 53 inlet vol;
#X obj 204 87 f;
#X obj 204 115 spigot 0;
#X obj 330 87 sel 0;
#X obj 360 115 t b b;
#X msg 239 88 1;
#X msg 271 88 0;
#X obj 330 149 t b b;
#X obj 88 267 outlet~;
#X msg 175 149 0;
#X connect 0 0 1 0;
#X connect 1 0 2 0;
#X connect 2 0 3 1;
#X connect 3 0 14 0;
#X connect 4 0 3 0;
#X connect 5 0 9 0;
#X connect 6 0 7 0;
#X connect 7 0 8 0;
#X connect 8 0 0 0;
#X connect 9 0 13 0;
#X connect 9 1 10 0;
#X connect 10 0 7 0;
#X connect 10 1 11 0;
#X connect 11 0 8 1;
#X connect 12 0 8 1;
#X connect 13 0 15 0;
#X connect 13 1 12 0;
#X connect 15 0 0 0;
#X restore 250 138 pd vol;
#N canvas 73 0 372 164 \$0-select-signal 0;
#X text 31 65 pink noise:;
#X obj 115 66 tgl 15 1 \$0-pink empty empty 17 7 0 10 -260818 -1 -1
0 1;
#X text 28 20 SELECT TEST-SIGNAL:;
#X obj 115 92 tgl 15 0 \$0-sf empty empty 17 7 0 10 -260818 -1 -1 0
1;
#X text 38 91 soundfile:;
#X text 153 92 open file:;
#X obj 226 92 bng 15 250 50 0 \$0-opensf empty empty 17 7 0 10 -99865
-262144 -1;
#N canvas 573 405 663 300 WORK 0;
#X obj 71 80 pink~;
#X obj 200 233 outlet~;
#X obj 87 109 r \$0-pink;
#X obj 71 137 *~;
#X obj 206 97 r \$0-sf;
#X obj 264 97 r \$0-opensf;
#X obj 206 126 ssampler~;
#X obj 391 166 *~;
#X obj 391 109 osc~ 440;
#X obj 391 85 r \$0-freq;
#X obj 407 138 r \$0-sine;
#X connect 0 0 3 0;
#X connect 2 0 3 1;
#X connect 3 0 1 0;
#X connect 4 0 6 0;
#X connect 5 0 6 1;
#X connect 6 0 1 0;
#X connect 7 0 1 0;
#X connect 8 0 7 0;
#X connect 9 0 8 0;
#X connect 10 0 7 1;
#X restore 297 20 pd WORK;
#X obj 297 42 outlet~;
#X obj 115 120 tgl 15 0 \$0-sine empty empty 17 7 0 10 -260818 -1 -1
0 1;
#X text 66 119 sinus:;
#X obj 156 120 hsl 100 15 20 20000 1 0 \$0-freq empty empty -2 -8 0
10 -99865 -262144 -1 0 1;
#X floatatom 261 121 6 0 0 1 Hz #0-freq -;
#X connect 7 0 8 0;
#X restore 250 79 pd \$0-select-signal;
#X obj 55 139 f \$0;
#X msg 55 174 \; pd-\$1-select-signal vis 1;
#X connect 3 0 7 2;
#X connect 4 0 9 0;
#X connect 5 0 7 1;
#X connect 7 0 1 0;
#X connect 8 0 7 0;
#X connect 9 0 10 0;
#X coords 0 -1 1 1 95 40 1 20 80;
