#N canvas 678 235 644 332 10;
#X obj -48 111 throw~ toFx1;
#X obj 37 111 throw~ toFx2;
#X obj 193 -123 r idF;
#X obj 213 -103 r speedF;
#X obj 192 -81 pack;
#X obj 192 -60 route 16;
#X obj 193 -39 > 0.01;
#X obj 267 -122 r idF;
#X obj 287 -102 r speedF;
#X obj 266 -80 pack;
#X obj 267 -38 > 0.01;
#X obj 266 -59 route 17;
#X obj -86 -34 hsl 30 15 0 1 0 0 empty empty empty -2 -8 0 10 -262144
-1 -1 0 1;
#X obj -39 73 *~;
#X obj 49 74 *~;
#X obj -89 -117 r setFX;
#X msg -83 -14 \$1 50;
#X obj 38 -16 *~;
#X obj -89 -66 unpack f;
#X obj -89 -90 route \$1;
#X msg 188 -15 \$1 500;
#X msg 265 -15 \$1 500;
#X obj -7 -40 s obj\$1Level;
#X obj -9 -68 env~;
#X obj 41 -73 *~ 1.6;
#X obj 189 16 line~;
#X obj 263 20 line~;
#X obj -82 8 line~;
#X obj 4 -116 inlet~;
#X obj 75 -122 inlet~;
#X obj 125 -122 inlet~;
#X connect 2 0 4 0;
#X connect 3 0 4 1;
#X connect 4 0 5 0;
#X connect 5 0 6 0;
#X connect 6 0 20 0;
#X connect 7 0 9 0;
#X connect 8 0 9 1;
#X connect 9 0 11 0;
#X connect 10 0 21 0;
#X connect 11 0 10 0;
#X connect 12 0 16 0;
#X connect 13 0 0 0;
#X connect 14 0 1 0;
#X connect 15 0 19 0;
#X connect 16 0 27 0;
#X connect 17 0 13 0;
#X connect 17 0 14 0;
#X connect 18 0 12 0;
#X connect 19 0 18 0;
#X connect 20 0 25 0;
#X connect 21 0 26 0;
#X connect 23 0 22 0;
#X connect 24 0 17 0;
#X connect 24 0 23 0;
#X connect 25 0 13 1;
#X connect 26 0 14 1;
#X connect 27 0 17 1;
#X connect 28 0 24 0;
#X connect 29 0 24 0;
#X connect 30 0 24 0;
