#N canvas 0 22 609 691 10;
#X obj 160 262 vline~;
#X obj 4 352 *~ 2048;
#X obj 4 373 tabread4~ grain-env;
#X obj 128 501 *~;
#X msg 160 241 0 \, 1 \$1 0;
#X obj 112 221 t f f;
#X obj 112 307 / 1000;
#X obj 144 362 *~;
#X obj 160 302 *~;
#X obj 176 282 r grainpitch;
#X obj 112 329 sig~;
#X obj 128 137 r graindur;
#X obj 112 158 f;
#X obj 144 407 +~;
#X obj 160 386 r grainstart;
#X obj 112 4 inlet;
#X obj 112 25 t b a;
#X obj 142 48 unpack f f f;
#X obj 160 341 *~ 1;
#X obj 112 201 * 1;
#X obj 144 448 +~;
#X obj 221 69 s \$0-mydur;
#X obj 128 179 r \$0-mydur;
#X obj 181 88 s \$0-mypitch;
#X obj 142 107 s \$0-mystart;
#X obj 160 428 r \$0-mystart;
#X obj 183 322 r \$0-mypitch;
#X obj 143 473 tabread4~;
#X msg 257 436 set fxArray\$1;
#X obj 257 410 r fxArrayRead;
#X obj 128 522 throw~ busGrain;
#X connect 0 0 1 0;
#X connect 0 0 8 0;
#X connect 1 0 2 0;
#X connect 2 0 3 0;
#X connect 3 0 30 0;
#X connect 4 0 0 0;
#X connect 5 0 6 0;
#X connect 5 1 4 0;
#X connect 6 0 10 0;
#X connect 7 0 13 0;
#X connect 8 0 18 0;
#X connect 9 0 8 1;
#X connect 10 0 7 0;
#X connect 11 0 12 1;
#X connect 12 0 19 0;
#X connect 13 0 20 0;
#X connect 14 0 13 1;
#X connect 15 0 16 0;
#X connect 16 0 12 0;
#X connect 16 1 17 0;
#X connect 17 0 24 0;
#X connect 17 1 23 0;
#X connect 17 2 21 0;
#X connect 18 0 7 1;
#X connect 19 0 5 0;
#X connect 20 0 27 0;
#X connect 22 0 19 1;
#X connect 25 0 20 1;
#X connect 26 0 18 1;
#X connect 27 0 3 1;
#X connect 28 0 27 0;
#X connect 29 0 28 0;
