#N canvas 410 110 704 817 10;
#N canvas 0 0 450 300 (subpatch) 0;
#X array fxArray1 352800 float 2;
#X coords 0 1 352800 -1 100 100 1;
#X restore 683 2 graph;
#N canvas 0 0 450 300 (subpatch) 0;
#X array grain-env 2048 float 0;
#X coords 0 1 2047 -1 100 100 1;
#X restore 409 131 graph;
#X obj 478 296 * 44100;
#X floatatom 488 277 5 0 0 0 - - -;
#X obj 478 319 s grainpitch;
#X obj 481 259 hsl 64 12 0.1 2 0 0 empty empty grainpitch 7 6 1 8 -262144
-1 -1 6300 1;
#X floatatom 412 277 5 0 0 0 - - -;
#X obj 405 257 hsl 64 12 1 352800 0 0 empty empty graindur 7 6 1 8
-262144 -1 -1 2861 1;
#X obj 402 319 s graindur;
#X obj 288 243 hsl 64 12 0 1 0 0 empty empty grainstart 7 6 1 8 -262144
-1 -1 1400 1;
#X obj 287 318 s grainstart;
#X obj 270 149 loadbang;
#N canvas 737 338 274 245 make-grain-env 0;
#X obj 16 42 t b b;
#X obj 16 106 f;
#X obj 44 106 + 1;
#X msg 54 63 0;
#X obj 16 85 until;
#X obj 16 127 t f f;
#X obj 16 20 inlet;
#X obj 16 188 tabwrite grain-env;
#X msg 16 63 2048;
#X obj 16 148 expr ($f1-1024)/1024;
#X obj 16 168 expr 0.5+(cos($f1 * 3.141)/2);
#X connect 0 0 8 0;
#X connect 0 1 3 0;
#X connect 1 0 2 0;
#X connect 1 0 5 0;
#X connect 2 0 1 1;
#X connect 3 0 1 1;
#X connect 4 0 1 0;
#X connect 5 0 9 0;
#X connect 5 1 7 1;
#X connect 6 0 0 0;
#X connect 8 0 4 0;
#X connect 9 0 10 0;
#X connect 10 0 7 0;
#X restore 270 170 pd make-grain-env;
#X obj 354 672 route 0 1 2 3;
#X obj 375 494 f;
#X obj 403 494 + 1;
#X obj 375 519 mod 4;
#X obj 375 543 t f b b;
#X obj 354 650 pack f f f;
#X obj 375 470 metro 100;
#X obj 419 630 + 1;
#X obj 419 609 / 10000;
#X obj 419 588 random 200;
#X msg 263 699 \$1 \$2 1;
#X msg 346 698 \$1 \$2 1;
#X msg 430 698 \$1 \$2 1;
#X msg 509 697 \$1 \$2 1;
#X obj 386 568 random 10000;
#X obj 148 395 rev3~ 95 90;
#X obj 401 360 r graindur;
#X floatatom 577 277 5 0 0 0 - - -;
#X obj 568 258 hsl 64 12 1 2 0 0 empty empty overlap 7 6 1 8 -262144
-1 -1 5600 1;
#X obj 433 382 r overlap;
#X obj 433 449 /;
#X obj 433 425 t b f;
#X obj 567 319 s overlap;
#X obj 401 382 / 2;
#X msg -17 172 bang;
#X msg 3 193 stop;
#X obj -17 250 tabwrite~;
#X msg 33 184 set fxArray\$1;
#N canvas 0 0 450 300 (subpatch) 0;
#X array fxArray0 352800 float 2;
#X coords 0 1 352800 -1 100 100 1;
#X restore 576 0 graph;
#X obj 287 296 * 352800;
#X obj 263 720 grainvoice;
#X obj 151 118 f;
#X obj 176 116 + 1;
#X obj 149 151 mod 2;
#X obj 177 210 s fxArrayRead;
#X obj 148 170 s fxArrayRec;
#X obj 177 191 expr 1 - $f1;
#X obj -14 94 r fxArrayRec;
#X obj -14 117 t b f b;
#X obj 149 88 metro 8000;
#X obj -14 220 inlet~;
#X obj 144 450 *~;
#X msg 201 449 \$1 200;
#X obj 170 450 line;
#X obj 23 484 outlet~;
#X obj 62 507 outlet~;
#X obj 101 483 outlet~;
#X obj 139 505 outlet~;
#X obj 102 451 *~;
#X obj 62 449 *~;
#X obj 23 448 *~;
#X obj 245 448 r fx3ReturnLevel;
#X obj 161 321 inlet;
#X obj 177 343 inlet;
#X obj 216 362 inlet;
#X obj 140 297 inlet;
#X obj 401 238 inlet;
#X obj 509 718 grainvoice;
#X obj 346 719 grainvoice;
#X obj 430 719 grainvoice;
#X obj 26 371 catch~ busGrain;
#X obj 133 -9 s grainON;
#X obj 373 444 r grainON;
#X obj 145 61 r grainON;
#X obj 134 -24 tgl 15 0 empty empty empty 17 7 0 10 -262144 -1 -1 1
1;
#X connect 2 0 4 0;
#X connect 5 0 3 0;
#X connect 5 0 2 0;
#X connect 7 0 6 0;
#X connect 7 0 8 0;
#X connect 9 0 42 0;
#X connect 11 0 12 0;
#X connect 13 0 23 0;
#X connect 13 1 24 0;
#X connect 13 2 25 0;
#X connect 13 3 26 0;
#X connect 14 0 15 0;
#X connect 14 0 16 0;
#X connect 15 0 14 1;
#X connect 16 0 17 0;
#X connect 17 0 18 0;
#X connect 17 1 27 0;
#X connect 17 2 22 0;
#X connect 18 0 13 0;
#X connect 19 0 14 0;
#X connect 20 0 18 2;
#X connect 21 0 20 0;
#X connect 22 0 21 0;
#X connect 23 0 43 0;
#X connect 24 0 71 0;
#X connect 25 0 72 0;
#X connect 26 0 70 0;
#X connect 27 0 18 1;
#X connect 28 0 63 0;
#X connect 28 1 62 0;
#X connect 28 2 61 0;
#X connect 28 3 54 0;
#X connect 29 0 36 0;
#X connect 31 0 30 0;
#X connect 31 0 35 0;
#X connect 32 0 34 0;
#X connect 33 0 19 1;
#X connect 34 0 33 0;
#X connect 34 1 33 1;
#X connect 36 0 33 0;
#X connect 37 0 39 0;
#X connect 38 0 39 0;
#X connect 40 0 39 0;
#X connect 42 0 10 0;
#X connect 44 0 45 0;
#X connect 44 0 46 0;
#X connect 45 0 44 1;
#X connect 46 0 48 0;
#X connect 46 0 49 0;
#X connect 49 0 47 0;
#X connect 50 0 51 0;
#X connect 51 0 37 0;
#X connect 51 1 40 0;
#X connect 51 2 38 0;
#X connect 52 0 44 0;
#X connect 53 0 39 0;
#X connect 53 0 63 0;
#X connect 53 0 61 0;
#X connect 54 0 60 0;
#X connect 55 0 56 0;
#X connect 56 0 54 1;
#X connect 56 0 61 1;
#X connect 56 0 62 1;
#X connect 56 0 63 1;
#X connect 61 0 59 0;
#X connect 62 0 58 0;
#X connect 63 0 57 0;
#X connect 64 0 55 0;
#X connect 65 0 28 3;
#X connect 66 0 28 4;
#X connect 67 0 28 5;
#X connect 68 0 28 2;
#X connect 69 0 7 0;
#X connect 73 0 28 0;
#X connect 73 0 63 0;
#X connect 73 0 62 0;
#X connect 73 0 61 0;
#X connect 73 0 54 0;
#X connect 75 0 19 0;
#X connect 76 0 52 0;
#X connect 77 0 74 0;
