#N canvas 0 22 450 300 10;
#X obj -71 114 rev2~ 100 90 3000 70;
#X floatatom -9 42 0 0 120 0 - - -;
#X text 15 43 level \, dB;
#X floatatom -1 67 0 0 100 0 - - -;
#X text 21 67 liveness \, 0-100;
#X floatatom 18 90 0 0 5000 0 - - -;
#X floatatom 64 100 0 0 120 0 - - -;
#X text 42 83 crossover frequency \, Hz.;
#X text 89 104 HF damping \, percent;
#X obj -78 44 inlet~;
#X obj 50 156 *~;
#X msg 107 155 \$1 200;
#X obj 76 156 line;
#X obj -71 190 outlet~;
#X obj -32 213 outlet~;
#X obj 7 189 outlet~;
#X obj 45 211 outlet~;
#X obj 8 157 *~;
#X obj -32 155 *~;
#X obj -71 154 *~;
#X obj 151 154 r fx3ReturnLevel;
#X obj 26 24 inlet;
#X obj 72 29 inlet;
#X obj 130 28 inlet;
#X obj -13 17 inlet;
#X connect 0 0 19 0;
#X connect 0 1 18 0;
#X connect 0 2 17 0;
#X connect 0 3 10 0;
#X connect 1 0 0 1;
#X connect 3 0 0 2;
#X connect 5 0 0 3;
#X connect 6 0 0 4;
#X connect 9 0 0 0;
#X connect 10 0 16 0;
#X connect 11 0 12 0;
#X connect 12 0 10 1;
#X connect 12 0 17 1;
#X connect 12 0 18 1;
#X connect 12 0 19 1;
#X connect 17 0 15 0;
#X connect 18 0 14 0;
#X connect 19 0 13 0;
#X connect 20 0 11 0;
#X connect 21 0 3 0;
#X connect 22 0 5 0;
#X connect 23 0 6 0;
#X connect 24 0 1 0;
