#N canvas 567 22 1072 783 10;
#N canvas 0 246 708 462 ambRouter 0;
#X obj 124 88 r idFA;
#X obj 124 115 select 12 13 14 15;
#X obj 249 114 select 12 13 14 15;
#X obj 249 87 r idFR;
#X obj 151 171 tgl 15 0 empty empty empty 17 7 0 10 -262144 -1 -1 0
1;
#X obj 208 171 tgl 15 0 empty empty empty 17 7 0 10 -262144 -1 -1 0
1;
#X obj 259 171 tgl 15 0 empty empty empty 17 7 0 10 -262144 -1 -1 0
1;
#X obj 317 171 tgl 15 0 empty empty empty 17 7 0 10 -262144 -1 -1 0
1;
#X msg 126 141 1;
#X msg 157 141 1;
#X msg 189 141 1;
#X msg 220 141 1;
#X msg 253 141 0;
#X msg 282 141 0;
#X msg 312 141 0;
#X msg 343 141 0;
#X obj 150 211 s amb0State;
#X obj 208 239 s amb1State;
#X obj 258 264 s amb2State;
#X obj 316 291 s amb3State;
#X connect 0 0 1 0;
#X connect 1 0 8 0;
#X connect 1 1 9 0;
#X connect 1 2 10 0;
#X connect 1 3 11 0;
#X connect 2 0 12 0;
#X connect 2 1 13 0;
#X connect 2 2 14 0;
#X connect 2 3 15 0;
#X connect 3 0 2 0;
#X connect 4 0 16 0;
#X connect 5 0 17 0;
#X connect 6 0 18 0;
#X connect 7 0 19 0;
#X connect 8 0 4 0;
#X connect 9 0 5 0;
#X connect 10 0 6 0;
#X connect 11 0 7 0;
#X connect 12 0 4 0;
#X connect 13 0 5 0;
#X connect 14 0 6 0;
#X connect 15 0 7 0;
#X restore 173 -57 pd ambRouter;
#X text 358 130 0 - 1;
#X obj -21 16 r bec_part;
#X text -131 52 TXT file number;
#X text 47 43 part to play;
#X obj 285 322 r bec_part;
#X msg 285 375 3;
#X obj -10 332 r bec_part;
#X obj -10 357 sel 1 4;
#X msg -10 385 1;
#X msg 53 384 7;
#X obj 254 -2 r bec_part;
#X obj 254 23 sel 1 4;
#X text 318 25 part to play;
#X text -140 88 lo2 = 0 - 6;
#X text -140 102 lo4 = 1 - 7;
#X text -139 115 hi2 = 2 - 8;
#X text -138 128 hi4 = 3 - 9;
#X text -140 141 loToHi2 = 4 - 10;
#X text -140 154 loToHi4 = 5 - 11;
#X msg 348 374 9;
#X obj -10 437 quadReader 1;
#X msg 254 51 2;
#X msg 46 68 6;
#X msg 317 50 8;
#X msg -17 69 0;
#X obj -17 93 ambSelect 0;
#X obj 285 399 ambSelect 3;
#X obj -10 409 ambSelect 1;
#X obj 254 75 ambSelect 2;
#X obj 285 347 sel 2 3;
#X obj -18 41 sel 1 3;
#X obj -17 122 stereoReader 0;
#X obj -17 148 stereoPlayer3 0 0.3;
#X obj -18 481 quadPlayer3 1 0.5;
#X obj 244 474 quadPlayer3 3 0.4;
#X obj 240 156 stereoPlayer3 2 0.5;
#X obj 254 100 stereoReader 2;
#X obj 285 426 quadReader 3;
#X connect 2 0 31 0;
#X connect 5 0 30 0;
#X connect 6 0 27 0;
#X connect 7 0 8 0;
#X connect 8 0 9 0;
#X connect 8 1 10 0;
#X connect 9 0 28 0;
#X connect 10 0 28 1;
#X connect 11 0 12 0;
#X connect 12 0 22 0;
#X connect 12 1 24 0;
#X connect 20 0 27 1;
#X connect 22 0 29 0;
#X connect 23 0 26 1;
#X connect 24 0 29 1;
#X connect 25 0 26 0;
#X connect 26 0 32 0;
#X connect 27 0 38 0;
#X connect 28 0 21 0;
#X connect 29 0 37 0;
#X connect 30 0 6 0;
#X connect 30 1 20 0;
#X connect 31 0 25 0;
#X connect 31 1 23 0;
