#N canvas -5 168 1046 754 10;
#N canvas 262 165 804 480 ambRouter 0;
#X obj 71 44 r idFA;
#X obj 196 43 r idFR;
#X obj 89 190 tgl 15 0 empty empty empty 17 7 0 10 -262144 -1 -1 0
1;
#X obj 146 190 tgl 15 0 empty empty empty 17 7 0 10 -262144 -1 -1 0
1;
#X msg 64 160 1;
#X msg 95 160 1;
#X msg 199 122 0;
#X msg 228 122 0;
#X obj 290 366 s amb6State;
#X obj 309 389 s amb7State;
#X obj 564 48 r loToHi;
#X obj 565 79 route 1 2;
#X obj 546 389 s amb8State;
#X obj 648 417 s amb11State;
#X obj 71 70 select 12 14;
#X obj 196 70 select 12 14;
#X obj 480 202 tgl 15 0 empty empty empty 17 7 0 10 -262144 -1 -1 0
1;
#X obj 93 313 s amb0State;
#X obj 117 346 s amb1State;
#X obj 131 368 s amb2State;
#X obj 153 395 s amb3State;
#X obj 250 313 s amb4State;
#X obj 271 340 s amb5State;
#X obj 549 417 s amb9State;
#X obj 638 386 s amb10State;
#X obj 533 135 pipe 10;
#X obj 480 230 ../logic/randomRouter2 4;
#X obj 96 230 ../logic/randomRouter2;
#X obj 257 230 ../logic/randomRouter3;
#X connect 0 0 14 0;
#X connect 1 0 15 0;
#X connect 2 0 27 0;
#X connect 3 0 28 0;
#X connect 4 0 2 0;
#X connect 5 0 3 0;
#X connect 6 0 2 0;
#X connect 6 0 16 0;
#X connect 7 0 3 0;
#X connect 7 0 16 0;
#X connect 10 0 11 0;
#X connect 11 0 25 0;
#X connect 11 1 25 0;
#X connect 14 0 4 0;
#X connect 14 1 5 0;
#X connect 15 0 6 0;
#X connect 15 1 7 0;
#X connect 16 0 26 0;
#X connect 25 0 16 0;
#X connect 26 0 12 0;
#X connect 26 1 23 0;
#X connect 27 0 18 0;
#X connect 27 1 19 0;
#X connect 28 0 21 0;
#X connect 28 1 22 0;
#X connect 28 2 8 0;
#X restore 161 18 pd ambRouter;
#X text 358 130 0 - 1;
#X text -123 5 TXT file number;
#X text 658 143 0 - 1;
#X text -135 547 lo4 = 1 - 7;
#X text -134 560 hi2 = 2 - 8;
#X text -133 573 hi4 = 3 - 9;
#X text -136 594 loToHi2 = 4 - 10;
#X text -136 607 loToHi4 = 5 - 11;
#X text -132 529 lo2 = 0 - 6;
#X text -132 499 old;
#X text -130 41 lo2 = 0 - 1;
#X text -129 55 lo4 = 2 - 3;
#X text -128 68 hi2 = 4 - 5;
#X text -127 81 hi4 = 6 - 7;
#X text -129 94 loToHi2 = 8 - 9;
#X text -129 107 loToHi4 = 10 - 11;
#X text 439 202 pajaros - change;
#X text 300 16 Todos los archivos se cargan en buffers desde principio
para evitar cortes;
#X text 701 196 gaviotas;
#X obj -20 417 quadReader 2;
#X obj -19 281 stereoPlayer4 1 0.7 1;
#X obj -9 75 stereoReader 0;
#X obj 398 419 quadReader 7;
#X obj 576 392 quadReader 10;
#X obj 307 417 quadReader 6;
#X obj 71 416 quadReader 3;
#X obj 94 76 stereoReader 1;
#X obj 298 71 stereoReader 4;
#X obj 407 71 stereoReader 5;
#X obj 582 73 stereoReader 8;
#X obj 682 72 stereoReader 9;
#X obj 667 393 stereoReader 11;
#X obj -18 491 quadPlayer4 2 0.7 1;
#X obj -14 170 stereoPlayer4 0 0.7 1;
#X obj 301 159 stereoPlayer4 4 0.7 1;
#X obj 582 160 stereoPlayer4 8 0.7 1;
#X obj 588 269 stereoPlayer4 9 0.7 1;
#X obj 305 276 stereoPlayer4 5 0.7 1;
#X obj 586 605 stereoPlayer4 11 0.7 1;
#X obj -16 604 quadPlayer4 3 0.7 1;
#X obj 303 613 quadPlayer4 7 0.7 1;
#X obj 303 504 quadPlayer4 6 0.7 1;
#X obj 586 479 quadPlayer4 10 0.7 1;
