#N canvas 757 137 762 506 10;
#X declare -lib iemgui -lib iem_ambi -lib iemlib -lib iemmatrix;
#X declare -lib iem_ambi -lib iemmatrix;
#X declare -lib iem_ambi -lib iemmatrix;
#X declare -lib iem_ambi -lib iemmatrix;
#X declare -lib iem_ambi -lib iemmatrix;
#X declare -lib iem_ambi -lib iemmatrix;
#X declare -lib iem_ambi -lib iemmatrix;
#X declare -lib iem_ambi -lib iemmatrix;
#X declare -lib iem_ambi -lib iemmatrix;
#X declare -lib iem_ambi -lib iemmatrix;
#X declare -lib iem_ambi -lib iemmatrix;
#X declare -lib iem_ambi -lib iemmatrix;
#X declare -lib iem_ambi -lib iemmatrix;
#X declare -lib iem_ambi -lib iemmatrix;
#X declare -lib iem_ambi -lib iemmatrix;
#X declare -lib iem_ambi -lib iemmatrix;
#X declare -lib iem_ambi -lib iemmatrix;
#X declare -lib iem_ambi -lib iemmatrix;
#X declare -lib iem_ambi -lib iemmatrix;
#X declare -lib iem_ambi -lib iemmatrix;
#X declare -lib iem_ambi -lib iemmatrix;
#X declare -lib iem_ambi -lib iemmatrix;
#X declare -lib iem_ambi -lib iemmatrix;
#X declare -lib iem_ambi -lib iemmatrix;
#X declare -lib iem_ambi -lib iemmatrix;
#X declare -lib iem_ambi -lib iemmatrix;
#X declare -lib iem_ambi -lib iemmatrix;
#X declare -lib iem_ambi -lib iemmatrix;
#X declare -lib iem_ambi -lib iemmatrix;
#X declare -lib iem_ambi -lib iemmatrix;
#X declare -lib iem_ambi -lib iemmatrix;
#X declare -lib iem_ambi -lib iemmatrix;
#X declare -lib iem_ambi -lib iemmatrix;
#X declare -lib iem_ambi -lib iemmatrix;
#X declare -lib iem_ambi -lib iemmatrix;
#X declare -lib iem_ambi -lib iemmatrix;
#X declare -lib iem_ambi -lib iemmatrix;
#X obj 1 -55 cnv 15 760 500 empty empty empty 20 12 0 14 -228856 -66577
0;
#X obj 536 59 osc/oscReceive 10001;
#X obj 544 217 osc/blobUnpacker;
#X obj 333 -33 ambiAbs/mapToPanner;
#X obj 12 22 ambiAbs/ambi_36in_3out;
#X obj 546 -5 osc/auraReceive;
#X obj 332 47 ambiAbs/quadrophon-out~;
#X obj 539 151 osc/fidUnpacker;
#X obj 12 -48 cnv 15 250 55 empty empty empty 20 12 0 14 -4160 -66577
0;
#X obj 624 75 osc/fxReceive;
#N canvas 151 207 450 312 fxEngine 0;
#X obj 286 34 catch~ toFx1;
#X obj 287 82 catch~ toFx2;
#X obj 289 127 catch~ toFx4;
#X obj 110 52 vsl 15 128 0 1 0 0 fx1ReturnLevel empty empty 0 -9 0
10 -262144 -1 -1 10160 1;
#X obj 205 49 vsl 15 128 0 2 0 0 fx2ReturnLevel empty empty 0 -9 0
10 -262144 -1 -1 10160 1;
#X obj 9 42 s fxInit;
#X obj 8 -2 loadbang;
#X obj 110 15 r fxInit;
#X obj 205 14 r fxInit;
#X obj 286 57 s~ toFx1;
#X obj 290 154 s~ toFx4;
#X obj 288 105 s~ toFx2;
#N canvas 484 184 1092 475 bubbler 0;
#X obj 106 273 throw~ fxL;
#X obj 260 271 throw~ fxR;
#X obj 406 271 throw~ fxLR;
#X obj 611 271 throw~ fxRR;
#X obj 107 159 r~ toFx1;
#X obj 260 156 r~ toFx1;
#X obj 407 153 r~ toFx1;
#X obj 612 151 r~ toFx1;
#N canvas 271 344 260 170 map0 0;
#X obj 83 129 outlet;
#X obj 83 48 logic/sinTransform 21;
#X obj 83 17 osc/fRouterAccel 16;
#X obj 83 104 + 1;
#X obj 83 79 * 99;
#X connect 1 0 4 0;
#X connect 2 0 1 0;
#X connect 3 0 0 0;
#X connect 4 0 3 0;
#X restore 176 157 pd map0;
#X obj 261 178 fx/bubbler 1;
#N canvas 271 344 260 170 map1 0;
#X obj 83 129 outlet;
#X obj 83 17 osc/fRouterSpeed 16;
#X obj 83 79 * 99;
#X obj 83 104 + 1;
#X obj 83 48 logic/sinTransform 22;
#X connect 1 0 4 0;
#X connect 2 0 3 0;
#X connect 3 0 0 0;
#X connect 4 0 2 0;
#X restore 330 159 pd map1;
#N canvas 271 344 260 170 map2 0;
#X obj 83 129 outlet;
#X obj 83 17 osc/fRouterX 16;
#X obj 204 6 loadbang;
#X msg 204 26 0;
#X obj 83 79 * 99;
#X obj 83 104 + 1;
#X obj 83 49 logic/sinTransform 23;
#X connect 1 0 6 0;
#X connect 2 0 3 0;
#X connect 3 0 6 1;
#X connect 4 0 5 0;
#X connect 5 0 0 0;
#X connect 6 0 4 0;
#X restore 477 154 pd map2;
#N canvas 271 344 260 170 map3 0;
#X obj 83 129 outlet;
#X obj 204 6 loadbang;
#X msg 204 26 0;
#X obj 83 17 osc/fRouterY 16;
#X obj 83 104 + 1;
#X obj 83 79 * 99;
#X obj 83 49 logic/sinTransform 24;
#X connect 1 0 2 0;
#X connect 2 0 6 1;
#X connect 3 0 6 0;
#X connect 4 0 0 0;
#X connect 5 0 4 0;
#X connect 6 0 5 0;
#X restore 681 154 pd map3;
#N canvas 271 344 260 170 map0 0;
#X obj 83 129 outlet;
#X obj 83 17 osc/fRouterAccel 16;
#X obj 83 104 + 1;
#X obj 83 79 * 99;
#X obj 83 48 logic/sinTransform 28;
#X connect 1 0 4 0;
#X connect 2 0 0 0;
#X connect 3 0 2 0;
#X connect 4 0 3 0;
#X restore 663 131 pd map0;
#N canvas 271 344 260 151 map1 0;
#X obj 83 129 outlet;
#X obj 83 17 osc/fRouterSpeed 16;
#X obj 83 79 * 99;
#X obj 83 104 + 1;
#X obj 83 48 logic/sinTransform 25;
#X connect 1 0 4 0;
#X connect 2 0 3 0;
#X connect 3 0 0 0;
#X connect 4 0 2 0;
#X restore 158 134 pd map1;
#N canvas 271 344 260 170 map2 0;
#X obj 83 129 outlet;
#X obj 83 17 osc/fRouterX 16;
#X obj 204 6 loadbang;
#X msg 204 26 0;
#X obj 83 79 * 99;
#X obj 83 104 + 1;
#X obj 83 49 logic/sinTransform 26;
#X connect 1 0 6 0;
#X connect 2 0 3 0;
#X connect 3 0 6 1;
#X connect 4 0 5 0;
#X connect 5 0 0 0;
#X connect 6 0 4 0;
#X restore 312 139 pd map2;
#N canvas 271 344 260 170 map3 0;
#X obj 83 129 outlet;
#X obj 204 6 loadbang;
#X msg 204 26 0;
#X obj 83 17 osc/fRouterY 16;
#X obj 83 104 + 1;
#X obj 83 79 * 99;
#X obj 83 49 logic/sinTransform 27;
#X connect 1 0 2 0;
#X connect 2 0 6 1;
#X connect 3 0 6 0;
#X connect 4 0 0 0;
#X connect 5 0 4 0;
#X connect 6 0 5 0;
#X restore 459 132 pd map3;
#N canvas 271 344 260 151 map0 0;
#X obj 83 129 outlet;
#X obj 83 17 osc/fRouterAccel 16;
#X obj 83 48 logic/sinTransform 32;
#X obj 83 79 * 50;
#X connect 1 0 2 0;
#X connect 2 0 3 0;
#X connect 3 0 0 0;
#X restore 450 104 pd map0;
#N canvas 271 344 260 151 map1 0;
#X obj 83 129 outlet;
#X obj 83 17 osc/fRouterSpeed 16;
#X obj 83 79 * 50;
#X obj 83 48 logic/sinTransform 33;
#X connect 1 0 3 0;
#X connect 2 0 0 0;
#X connect 3 0 2 0;
#X restore 656 109 pd map1;
#N canvas 271 344 260 151 map2 0;
#X obj 83 129 outlet;
#X obj 83 17 osc/fRouterX 16;
#X obj 204 6 loadbang;
#X msg 204 26 0;
#X obj 83 49 logic/sinTransform 30;
#X obj 83 79 * 50;
#X connect 1 0 4 0;
#X connect 2 0 3 0;
#X connect 3 0 4 1;
#X connect 4 0 5 0;
#X connect 5 0 0 0;
#X restore 150 105 pd map2;
#N canvas 271 344 260 170 map3 0;
#X obj 83 129 outlet;
#X obj 204 6 loadbang;
#X msg 204 26 0;
#X obj 83 17 osc/fRouterY 16;
#X obj 83 49 logic/sinTransform 31;
#X obj 83 79 * 50;
#X connect 1 0 2 0;
#X connect 2 0 4 1;
#X connect 3 0 4 0;
#X connect 4 0 5 0;
#X connect 5 0 0 0;
#X restore 304 117 pd map3;
#N canvas 271 344 260 170 map0 0;
#X obj 83 129 outlet;
#X obj 83 17 osc/fRouterAccel 16;
#X obj 83 79 * 200;
#X obj 83 48 logic/sinTransform 36;
#X connect 1 0 3 0;
#X connect 2 0 0 0;
#X connect 3 0 2 0;
#X restore 295 91 pd map0;
#N canvas 271 344 260 170 map1 0;
#X obj 83 129 outlet;
#X obj 83 17 osc/fRouterSpeed 16;
#X obj 83 48 logic/sinTransform 37;
#X obj 83 79 * 200;
#X connect 1 0 2 0;
#X connect 2 0 3 0;
#X connect 3 0 0 0;
#X restore 443 84 pd map1;
#N canvas 271 344 260 170 map2 0;
#X obj 83 129 outlet;
#X obj 83 17 osc/fRouterX 16;
#X obj 204 6 loadbang;
#X msg 204 26 0;
#X obj 83 49 logic/sinTransform 38;
#X obj 83 79 * 200;
#X connect 1 0 4 0;
#X connect 2 0 3 0;
#X connect 3 0 4 1;
#X connect 4 0 5 0;
#X connect 5 0 0 0;
#X restore 646 88 pd map2;
#N canvas 271 344 260 151 map3 0;
#X obj 83 129 outlet;
#X obj 204 6 loadbang;
#X msg 204 26 0;
#X obj 83 17 osc/fRouterY 16;
#X obj 83 79 * 200;
#X obj 83 49 logic/sinTransform 35;
#X connect 1 0 2 0;
#X connect 2 0 5 1;
#X connect 3 0 5 0;
#X connect 4 0 0 0;
#X connect 5 0 4 0;
#X restore 143 77 pd map3;
#N canvas 271 344 260 151 map0 0;
#X obj 83 129 outlet;
#X obj 83 104 + 1;
#X obj 83 79 * 99;
#X obj 83 17 osc/fRouterAccel 39;
#X connect 1 0 0 0;
#X connect 2 0 1 0;
#X connect 3 0 2 0;
#X restore 133 54 pd map0;
#N canvas 271 344 260 170 map1 0;
#X obj 83 129 outlet;
#X obj 83 79 * 99;
#X obj 83 104 + 1;
#X obj 83 17 osc/fRouterX 16;
#X connect 1 0 2 0;
#X connect 2 0 0 0;
#X connect 3 0 1 0;
#X restore 287 70 pd map1;
#N canvas 271 344 260 170 map2 0;
#X obj 83 129 outlet;
#X obj 83 17 osc/fRouterX 16;
#X obj 83 79 * 99;
#X obj 83 104 + 1;
#X connect 1 0 2 0;
#X connect 2 0 3 0;
#X connect 3 0 0 0;
#X restore 434 60 pd map2;
#N canvas 271 344 260 151 map3 0;
#X obj 83 129 outlet;
#X obj 83 17 osc/fRouterY 16;
#X obj 83 104 + 1;
#X obj 83 79 * 99;
#X connect 1 0 3 0;
#X connect 2 0 0 0;
#X connect 3 0 2 0;
#X restore 638 67 pd map3;
#N canvas 271 344 260 151 map0 0;
#X obj 83 129 outlet;
#X obj 83 17 osc/fRouterAccel 39;
#X obj 81 67 * 19880;
#X obj 81 92 + 20;
#X connect 1 0 2 0;
#X connect 2 0 3 0;
#X connect 3 0 0 0;
#X restore 631 46 pd map0;
#N canvas 271 344 260 151 map1 0;
#X obj 83 129 outlet;
#X obj 83 17 osc/fRouterSpeed 16;
#X obj 83 79 * 19880;
#X obj 83 104 + 20;
#X connect 1 0 2 0;
#X connect 2 0 3 0;
#X connect 3 0 0 0;
#X restore 126 33 pd map1;
#N canvas 271 344 260 170 map2 0;
#X obj 83 138 outlet;
#X obj 83 17 osc/fRouterX 16;
#X obj 93 89 * 19880;
#X obj 93 114 + 20;
#X connect 1 0 2 0;
#X connect 2 0 3 0;
#X connect 3 0 0 0;
#X restore 278 47 pd map2;
#N canvas 271 344 260 170 map3 0;
#X obj 83 129 outlet;
#X obj 83 17 osc/fRouterY 16;
#X obj 82 73 * 19880;
#X obj 82 98 + 20;
#X connect 1 0 2 0;
#X connect 2 0 3 0;
#X connect 3 0 0 0;
#X restore 426 37 pd map3;
#N canvas 271 344 260 170 map0 0;
#X obj 83 129 outlet;
#X obj 83 17 osc/fRouterAccel 39;
#X obj 81 92 + 20;
#X obj 81 67 * 3000;
#X connect 1 0 3 0;
#X connect 2 0 0 0;
#X connect 3 0 2 0;
#X restore 412 16 pd map0;
#N canvas 271 344 260 170 map1 0;
#X obj 83 129 outlet;
#X obj 83 17 osc/fRouterSpeed 16;
#X obj 83 104 + 20;
#X obj 83 79 * 3000;
#X connect 1 0 3 0;
#X connect 2 0 0 0;
#X connect 3 0 2 0;
#X restore 616 23 pd map1;
#N canvas 271 344 260 170 map2 0;
#X obj 83 138 outlet;
#X obj 83 17 osc/fRouterX 16;
#X obj 93 114 + 20;
#X obj 93 89 * 3000;
#X connect 1 0 3 0;
#X connect 2 0 0 0;
#X connect 3 0 2 0;
#X restore 111 9 pd map2;
#N canvas 271 344 260 170 map3 0;
#X obj 83 129 outlet;
#X obj 83 17 osc/fRouterY 16;
#X obj 82 98 + 20;
#X obj 82 73 * 3000;
#X connect 1 0 3 0;
#X connect 2 0 0 0;
#X connect 3 0 2 0;
#X restore 266 24 pd map3;
#N canvas 11 59 696 653 init 0;
#X msg 399 160 20000;
#X msg 137 283 0;
#X msg 462 130 832.6;
#X msg 509 61 50;
#X obj 167 436 s bub_initfb;
#X obj 167 390 s bub_initoctave;
#X obj 167 413 s bub_initoctvari;
#X obj 167 367 s bub_initgvar;
#X obj 167 344 s bub_initgrev;
#X msg 249 264 80;
#X msg 302 231 10;
#X obj 462 153 s bub_inittime;
#X obj 400 183 s bub_initfilterFreq;
#X obj 529 88 s bub_initres;
#X obj 529 112 s bub_inittimevar;
#X obj 302 256 s bub_initgrainsize;
#X obj 249 289 s bub_initdensity;
#X msg 355 197 1;
#X obj 355 222 s bub_but0;
#X obj 31 -8 loadbang;
#X obj 31 15 t b b b b b b b b b b;
#X obj 189 318 s bub_initdryvol;
#X msg 189 291 0;
#X msg 566 19 4;
#X obj 566 42 s bub_initoct;
#X obj 109 -5 bng 15 250 50 0 empty empty empty 17 7 0 10 -262144 -1
-1;
#X connect 0 0 12 0;
#X connect 1 0 4 0;
#X connect 1 0 5 0;
#X connect 1 0 6 0;
#X connect 1 0 7 0;
#X connect 1 0 8 0;
#X connect 2 0 11 0;
#X connect 3 0 13 0;
#X connect 3 0 14 0;
#X connect 9 0 16 0;
#X connect 10 0 15 0;
#X connect 17 0 18 0;
#X connect 19 0 20 0;
#X connect 20 1 1 0;
#X connect 20 2 22 0;
#X connect 20 3 9 0;
#X connect 20 4 10 0;
#X connect 20 5 17 0;
#X connect 20 6 0 0;
#X connect 20 7 2 0;
#X connect 20 8 3 0;
#X connect 20 9 23 0;
#X connect 22 0 21 0;
#X connect 23 0 24 0;
#X connect 25 0 20 0;
#X restore 773 58 pd init;
#X obj 107 181 fx/bubbler 0;
#X obj 407 174 fx/bubbler 2;
#X obj 612 174 fx/bubbler 3;
#X obj 18 259 s fx0Level;
#X obj 188 441 switch~;
#X obj 19 177 env~;
#X obj 189 362 sel 0 1;
#X msg 209 385 1;
#X msg 186 382 0;
#X obj 264 405 s~ bubbVol;
#X obj 263 386 line~;
#X obj 625 209 r~ bubbVol;
#X obj 610 230 *~;
#X obj 424 205 r~ bubbVol;
#X obj 409 226 *~;
#X obj 275 206 r~ bubbVol;
#X obj 260 227 *~;
#X obj 111 213 r~ bubbVol;
#X obj 96 234 *~;
#X obj 188 404 pipe 1100;
#X msg 264 367 \$1 3000;
#X obj 189 306 logic/idRouter 16;
#X connect 4 0 38 0;
#X connect 5 0 9 0;
#X connect 6 0 39 0;
#X connect 7 0 40 0;
#X connect 8 0 38 8;
#X connect 9 0 43 0;
#X connect 9 0 54 0;
#X connect 10 0 9 8;
#X connect 11 0 39 8;
#X connect 12 0 40 8;
#X connect 13 0 40 6;
#X connect 14 0 38 6;
#X connect 15 0 9 6;
#X connect 16 0 39 6;
#X connect 17 0 39 5;
#X connect 18 0 40 5;
#X connect 19 0 38 5;
#X connect 20 0 9 5;
#X connect 21 0 9 4;
#X connect 22 0 39 4;
#X connect 23 0 40 4;
#X connect 24 0 38 4;
#X connect 25 0 38 3;
#X connect 26 0 9 3;
#X connect 27 0 39 3;
#X connect 28 0 40 3;
#X connect 29 0 40 2;
#X connect 30 0 38 2;
#X connect 31 0 9 2;
#X connect 32 0 39 2;
#X connect 33 0 39 1;
#X connect 34 0 40 1;
#X connect 35 0 38 1;
#X connect 36 0 9 1;
#X connect 38 0 43 0;
#X connect 38 0 56 0;
#X connect 39 0 43 0;
#X connect 39 0 52 0;
#X connect 40 0 43 0;
#X connect 43 0 41 0;
#X connect 44 0 46 0;
#X connect 44 1 45 0;
#X connect 45 0 42 0;
#X connect 46 0 57 0;
#X connect 48 0 47 0;
#X connect 49 0 50 1;
#X connect 50 0 3 0;
#X connect 51 0 52 1;
#X connect 52 0 2 0;
#X connect 53 0 54 1;
#X connect 54 0 1 0;
#X connect 55 0 56 1;
#X connect 56 0 0 0;
#X connect 58 0 48 0;
#X connect 59 0 44 0;
#X connect 59 0 58 0;
#X restore 96 195 pd bubbler;
#N canvas 98 23 702 562 pitchDelay 0;
#X obj 56 40 r~ toFx2;
#X obj 194 38 r~ toFx2;
#X obj 42 253 r~ toFx2;
#X obj 234 237 r~ toFx2;
#X obj 81 424 throw~ fxL;
#X obj 54 86 *~ 0.3;
#X obj 285 415 throw~ fxR;
#X obj 193 88 *~ 0.3;
#X obj 82 147 throw~ fxLR;
#X obj 42 300 *~ 0.3;
#X obj 174 201 throw~ fxRR;
#X obj 234 283 *~ 0.3;
#N canvas 271 344 260 170 map1 0;
#X obj 83 144 outlet;
#X obj 83 110 + 1;
#X obj 83 79 * 4999;
#X obj 83 48 logic/sinTransform 40;
#X obj 83 17 r variableRandom;
#X connect 1 0 0 0;
#X connect 2 0 1 0;
#X connect 3 0 2 0;
#X connect 4 0 3 0;
#X restore 78 -34 pd map1;
#N canvas 271 344 260 170 map2 0;
#X obj 83 129 outlet;
#X obj 83 79 * 30;
#X obj 83 103 + 10;
#X obj 83 17 osc/fRouterX 17;
#X connect 1 0 2 0;
#X connect 2 0 0 0;
#X connect 3 0 1 0;
#X restore 120 8 pd map2;
#N canvas 271 344 260 170 map3 0;
#X obj 83 129 outlet;
#X obj 204 6 loadbang;
#X msg 204 26 0;
#X obj 83 79 * 30;
#X obj 83 49 logic/sinTransform 41;
#X obj 83 17 osc/fRouterY 17;
#X connect 1 0 2 0;
#X connect 2 0 4 1;
#X connect 3 0 0 0;
#X connect 4 0 3 0;
#X connect 5 0 4 0;
#X restore 142 31 pd map3;
#N canvas 271 344 260 170 map0 0;
#X obj 83 129 outlet;
#X obj 83 104 + 2.1;
#X obj 83 79 * 31.9;
#X obj 83 17 osc/fRouterAccel 17;
#X connect 1 0 0 0;
#X connect 2 0 1 0;
#X connect 3 0 2 0;
#X restore 100 -14 pd map0;
#N canvas 271 344 260 170 map1 0;
#X obj 83 129 outlet;
#X obj 83 101 + 2.1;
#X obj 83 76 * 31.9;
#X obj 83 48 logic/sinTransform 42;
#X obj 83 17 osc/fRouterSpeed 17;
#X connect 1 0 0 0;
#X connect 2 0 1 0;
#X connect 3 0 2 0;
#X connect 4 0 3 0;
#X restore 237 -19 pd map1;
#N canvas 271 344 260 170 map2 0;
#X obj 83 129 outlet;
#X obj 83 79 * 30;
#X obj 83 17 osc/fRouterX 17;
#X connect 1 0 0 0;
#X connect 2 0 1 0;
#X restore 281 34 pd map2;
#N canvas 500 349 260 170 map3 0;
#X obj 83 129 outlet;
#X obj 204 6 loadbang;
#X msg 204 26 0;
#X obj 87 79 * 30;
#X obj 83 103 + 10;
#X obj 83 49 logic/sinTransform 43;
#X obj 83 17 osc/fRouterY 17;
#X connect 1 0 2 0;
#X connect 2 0 5 1;
#X connect 3 0 4 0;
#X connect 4 0 0 0;
#X connect 5 0 3 0;
#X connect 6 0 5 0;
#X restore 259 7 pd map3;
#N canvas 572 349 260 170 map0 0;
#X obj 83 129 outlet;
#X obj 83 104 + 1;
#X obj 83 79 * 4999;
#X obj 83 17 r variableRandom;
#X connect 1 0 0 0;
#X connect 2 0 1 0;
#X connect 3 0 2 0;
#X restore 216 -40 pd map0;
#N canvas 271 344 260 151 map1 0;
#X obj 83 129 outlet;
#X obj 83 101 + 2.1;
#X obj 83 76 * 31.9;
#X obj 83 48 logic/sinTransform 44;
#X obj 83 16 osc/fRouterSpeed 17;
#X connect 1 0 0 0;
#X connect 2 0 1 0;
#X connect 3 0 2 0;
#X connect 4 0 3 0;
#X restore 86 196 pd map1;
#N canvas 271 344 260 151 map2 0;
#X obj 83 129 outlet;
#X obj 83 79 * 30;
#X obj 83 17 osc/fRouterX 17;
#X connect 1 0 0 0;
#X connect 2 0 1 0;
#X restore 130 243 pd map2;
#N canvas 500 349 260 151 map3 0;
#X obj 83 129 outlet;
#X obj 204 6 loadbang;
#X msg 204 26 0;
#X obj 87 79 * 30;
#X obj 83 103 + 10;
#X obj 83 49 logic/sinTransform 45;
#X obj 83 17 osc/fRouterY 17;
#X connect 1 0 2 0;
#X connect 2 0 5 1;
#X connect 3 0 4 0;
#X connect 4 0 0 0;
#X connect 5 0 3 0;
#X connect 6 0 5 0;
#X restore 107 221 pd map3;
#N canvas 572 349 260 151 map0 0;
#X obj 83 129 outlet;
#X obj 83 104 + 1;
#X obj 83 79 * 4999;
#X obj 83 17 r variableRandom;
#X connect 1 0 0 0;
#X connect 2 0 1 0;
#X connect 3 0 2 0;
#X restore 64 175 pd map0;
#N canvas 271 344 260 170 map1 0;
#X obj 83 129 outlet;
#X obj 83 104 + 1;
#X obj 83 79 * 4999;
#X obj 83 48 logic/sinTransform 47;
#X obj 83 17 r variableRandom;
#X connect 1 0 0 0;
#X connect 2 0 1 0;
#X connect 3 0 2 0;
#X connect 4 0 3 0;
#X restore 257 161 pd map1;
#N canvas 271 344 260 170 map2 0;
#X obj 83 129 outlet;
#X obj 83 79 * 30;
#X obj 83 103 + 10;
#X obj 83 16 osc/fRouterX 17;
#X connect 1 0 2 0;
#X connect 2 0 0 0;
#X connect 3 0 1 0;
#X restore 299 204 pd map2;
#N canvas 271 344 260 170 map3 0;
#X obj 83 129 outlet;
#X obj 204 6 loadbang;
#X msg 204 26 0;
#X obj 83 79 * 30;
#X obj 83 17 osc/fRouterY 16;
#X obj 83 49 logic/sinTransform 46;
#X connect 1 0 2 0;
#X connect 2 0 5 1;
#X connect 3 0 0 0;
#X connect 4 0 5 0;
#X connect 5 0 3 0;
#X restore 322 227 pd map3;
#N canvas 271 344 260 170 map0 0;
#X obj 83 129 outlet;
#X obj 83 104 + 2.1;
#X obj 83 79 * 31.9;
#X obj 83 17 osc/fRouterAccel 17;
#X connect 1 0 0 0;
#X connect 2 0 1 0;
#X connect 3 0 2 0;
#X restore 279 182 pd map0;
#N canvas 351 72 450 447 init 0;
#X msg 77 302 12.9;
#X msg 137 209 0;
#X msg 193 173 25;
#X obj 77 325 s pit_time;
#X obj 137 287 s pit_pitfact;
#X obj 137 256 s pit_fb;
#X obj 137 234 s pit_oct;
#X msg 253 118 85;
#X obj 193 199 s pit_lpdepth;
#X obj 253 143 s pit_dryvol;
#X obj 253 167 s pit_delvol;
#X msg 38 359 \; pd dsp 1 \;;
#X obj 38 -18 loadbang;
#X obj 38 5 t b b b b b b;
#X obj 306 105 s octave-set;
#X msg 306 82 2;
#X obj 109 -13 bng 15 250 50 0 empty empty empty 17 7 0 10 -262144
-1 -1;
#X connect 0 0 3 0;
#X connect 1 0 4 0;
#X connect 1 0 5 0;
#X connect 1 0 6 0;
#X connect 2 0 8 0;
#X connect 7 0 9 0;
#X connect 7 0 10 0;
#X connect 12 0 13 0;
#X connect 13 0 11 0;
#X connect 13 1 0 0;
#X connect 13 2 1 0;
#X connect 13 3 2 0;
#X connect 13 4 7 0;
#X connect 13 5 15 0;
#X connect 15 0 14 0;
#X connect 16 0 13 0;
#X restore 353 -22 pd init;
#X obj 55 62 fx/pitchDelay 0;
#X obj 194 65 fx/pitchDelay 1;
#X obj 42 276 fx/pitchDelay 2;
#X obj 234 259 fx/pitchDelay 3;
#X obj 17 192 s fx1Level;
#X obj 27 158 env~;
#X obj 432 324 switch~;
#X obj 434 203 sel 0 1;
#X msg 454 226 1;
#X msg 431 223 0;
#X obj 508 227 line~;
#X obj 433 245 delay 1100;
#X obj 169 143 *~;
#X obj 184 122 r~ pdelVol;
#X obj 509 246 s~ pdelVol;
#X obj 109 122 *~;
#X obj 124 101 r~ pdelVol;
#X obj 72 343 *~;
#X obj 85 311 r~ pdelVol;
#X obj 310 372 *~;
#X obj 325 351 r~ pdelVol;
#X obj 431 276 0;
#X msg 509 208 \$1 3000;
#X floatatom 15 225 5 0 0 0 - - -;
#X obj 434 147 logic/idRouter 17;
#X connect 0 0 29 0;
#X connect 1 0 30 0;
#X connect 2 0 31 0;
#X connect 3 0 32 0;
#X connect 5 0 34 0;
#X connect 5 0 44 0;
#X connect 7 0 34 0;
#X connect 7 0 41 0;
#X connect 9 0 34 0;
#X connect 9 0 46 0;
#X connect 11 0 34 0;
#X connect 11 0 48 0;
#X connect 12 0 29 1;
#X connect 13 0 29 3;
#X connect 14 0 29 4;
#X connect 17 0 30 4;
#X connect 18 0 30 3;
#X connect 19 0 30 1;
#X connect 21 0 31 4;
#X connect 22 0 31 3;
#X connect 23 0 31 1;
#X connect 24 0 32 1;
#X connect 25 0 32 3;
#X connect 26 0 32 4;
#X connect 29 0 5 0;
#X connect 30 0 7 0;
#X connect 31 0 9 0;
#X connect 32 0 11 0;
#X connect 34 0 33 0;
#X connect 34 0 52 0;
#X connect 36 0 38 0;
#X connect 36 1 37 0;
#X connect 37 0 35 0;
#X connect 38 0 40 0;
#X connect 39 0 43 0;
#X connect 40 0 50 0;
#X connect 41 0 10 0;
#X connect 42 0 41 1;
#X connect 44 0 8 0;
#X connect 45 0 44 1;
#X connect 46 0 4 0;
#X connect 47 0 46 1;
#X connect 48 0 6 0;
#X connect 49 0 48 1;
#X connect 51 0 39 0;
#X connect 53 0 36 0;
#X connect 53 0 51 0;
#X restore 183 195 pd pitchDelay;
#X obj 138 52 * 0.5;
#X obj 391 92 env~;
#X floatatom 391 132 5 0 0 0 - - -;
#X msg 9 18 1.6;
#X connect 0 0 9 0;
#X connect 1 0 11 0;
#X connect 1 0 15 0;
#X connect 2 0 10 0;
#X connect 6 0 17 0;
#X connect 7 0 14 0;
#X connect 8 0 4 0;
#X connect 14 0 3 0;
#X connect 15 0 16 0;
#X connect 17 0 5 0;
#X restore 238 -41 pd fxEngine;
#X obj 667 -24 osc/oscSend2;
#X obj 10 282 logic/logicEngine3;
#X obj 542 288 osc/loToHiReceive;
#N canvas 197 58 1625 880 sintEngine_A 0;
#X obj 774 -166 loadbang;
#X obj 775 -128 s initSintA;
#X obj 305 -344 r initSintA;
#X obj 731 -352 r initSintA;
#X obj 1117 -354 r initSintA;
#X obj 1131 -31 r initSintA;
#X obj 690 -70 r initSintA;
#X obj 301 -52 r initSintA;
#X obj 325 265 r initSintA;
#X obj 688 263 r initSintA;
#X obj 1140 240 r initSintA;
#X obj 843 -159 bng 15 250 50 0 empty empty empty 17 7 0 10 -262144
-1 -1;
#X obj 1487 -339 r initSintB;
#X obj 1490 -27 r initSintB;
#X obj 1499 255 r initSintB;
#X msg 305 -305 \; sampLev1 0.9 \; sampLev2 0.4 \; sampLev3 0.4 \;
mainSamp100 1 \; mapVal2 1 \; mapVal3 1 \;;
#X msg 732 -324 \; sampLev4 0.9 \; sampLev5 0.6 \; sampLev6 0.7 \;
mainSamp101 0.7 \; mapVal5 1 \; mapVal6 1 \;;
#X msg 1119 -319 \; sampLev7 0.9 \; sampLev8 0.6 \; sampLev9 0.7 \;
mainSamp102 0.7 \; mapVal8 1 \; mapVal9 1 \;;
#X msg 1489 -304 \; sampLev10 0.9 \; sampLev11 0.6 \; sampLev12 0.7
\; mainSamp103 0.7 \; mapVal11 1 \; mapVal12 1 \;;
#X msg 300 -29 \; sampLev13 0.9 \; sampLev14 0.4 \; sampLev15 0.4 \;
mainSamp104 1 \; mapVal14 1 \; mapVal5 1 \;;
#X msg 689 -47 \; sampLev16 0.9 \; sampLev17 0.4 \; sampLev18 0.4 \;
mainSamp105 1 \; mapVal17 1 \; mapVal8 1 \;;
#X msg 1133 -8 \; sampLev19 0.9 \; sampLev20 0.4 \; sampLev21 0.4 \;
mainSamp106 1 \; mapVal20 1 \; mapVal21 1 \;;
#X msg 1493 8 \; sampLev22 0.9 \; sampLev23 0.6 \; sampLev24 0.7 \;
mainSamp107 0.7 \; mapVal23 1 \; mapVal24 1 \;;
#X msg 1501 290 \; sampLev34 0.9 \; sampLev35 0.6 \; sampLev36 0.7
\; mainSamp111 0.7 \; mapVal35 1 \; mapVal36 1 \;;
#X msg 1139 264 \; sampLev31 0.9 \; sampLev32 0.4 \; sampLev33 0.4
\; mainSamp110 1 \; mapVal32 1 \; mapVa33 1 \;;
#X msg 689 287 \; sampLev28 0.9 \; sampLev29 0.4 \; sampLev30 0.4 \;
mainSamp109 1 \; mapVal29 1 \; mapVa30 1 \;;
#X msg 324 288 \; sampLev25 0.9 \; sampLev26 0.4 \; sampLev27 0.4 \;
mainSamp108 1 \; mapVal26 1 \; mapVa27 1 \;;
#X obj 849 -125 s r initSamples;
#X obj 878 -151 bng 15 250 50 0 empty empty empty 17 7 0 10 -262144
-1 -1;
#X obj 871 -357 samp/sampPlayer 7 8 9 2 102;
#X obj 473 -364 samp/sampPlayer 4 5 6 1 101;
#X obj 52 -76 samp/sampPlayer 13 14 15 4 104;
#X obj 420 -66 samp/sampPlayer 16 17 18 5 105;
#X obj 888 -35 samp/sampPlayer 19 20 21 6 106;
#X obj 65 257 samp/sampPlayer 25 26 27 8 108;
#X obj 428 258 samp/sampPlayer 28 29 30 9 109;
#X obj 866 247 samp/sampPlayer 31 32 33 10 110;
#X obj 63 -339 samp/sampPlayer 1 2 3 0 100;
#X obj 1247 -346 samp/sampPlayer 10 11 12 3 103;
#X obj 1250 -35 samp/sampPlayer 22 23 24 7 107;
#X obj 1259 259 samp/sampPlayer 34 35 36 11 111;
#X obj 62 -403 logic/idRouter 0 1;
#X obj 504 -411 logic/idRouter 1 1;
#X obj 878 -416 logic/idRouter 2 1;
#X obj 1309 -396 logic/idRouter 3 1;
#X obj 1248 -101 logic/idRouter 7 1;
#X obj 930 -91 logic/idRouter 6 1;
#X obj 481 -124 logic/idRouter 5 1;
#X obj 90 -149 logic/idRouter 4 1;
#X obj 86 197 logic/idRouter 8 1;
#X obj 441 189 logic/idRouter 9 1;
#X obj 900 188 logic/idRouter 10 1;
#X obj 1257 193 logic/idRouter 11 1;
#X connect 0 0 1 0;
#X connect 2 0 15 0;
#X connect 3 0 16 0;
#X connect 4 0 17 0;
#X connect 5 0 21 0;
#X connect 6 0 20 0;
#X connect 7 0 19 0;
#X connect 8 0 26 0;
#X connect 9 0 25 0;
#X connect 10 0 24 0;
#X connect 11 0 1 0;
#X connect 12 0 18 0;
#X connect 13 0 22 0;
#X connect 14 0 23 0;
#X connect 28 0 27 0;
#X connect 41 0 37 0;
#X connect 42 0 30 0;
#X connect 43 0 29 0;
#X connect 44 0 38 0;
#X connect 45 0 39 0;
#X connect 46 0 33 0;
#X connect 47 0 32 0;
#X connect 48 0 31 0;
#X connect 49 0 34 0;
#X connect 50 0 35 0;
#X connect 51 0 36 0;
#X connect 52 0 40 0;
#X restore 14 -41 pd sintEngine_A;
#N canvas 22 107 1623 928 sintEngine_B 0;
#X obj 57 -253 samp/sampPlayer 1 2 3 0 200;
#X obj 1136 -21 s initSintB;
#X obj 1135 -59 loadbang;
#X obj 314 -321 r initSintB;
#X obj 719 -323 r initSintB;
#X obj 1138 -309 r initSintB;
#X obj 1128 72 r initSintB;
#X obj 720 43 r initSintB;
#X obj 309 58 r initSintB;
#X obj 333 375 r initSintB;
#X obj 718 376 r initSintB;
#X obj 1135 341 r initSintB;
#X obj 1195 -69 bng 30 250 50 0 empty empty empty 17 7 0 10 -262144
-1 -1;
#X obj 1509 -292 r initSintB;
#X obj 1492 98 r initSintB;
#X msg 1495 133 \; sampLev22 0.9 \; sampLev23 0.6 \; sampLev24 0.7
\; mainSamp207 0.7 \; mapVal23 1 \; mapVal24 1 \;;
#X obj 1510 346 r initSintB;
#X msg 1512 381 \; sampLev34 0.9 \; sampLev35 0.6 \; sampLev36 0.7
\; mainSamp211 0.7 \; mapVal35 1 \; mapVal36 1 \;;
#X msg 314 -283 \; sampLev1 0.9 \; sampLev2 0.4 \; sampLev3 0.4 \;
mainSamp200 1 \; mapVal2 1 \; mapVal3 1 \;;
#X msg 720 -295 \; sampLev4 0.9 \; sampLev5 0.6 \; sampLev6 0.7 \;
mainSamp201 0.7 \; mapVal5 1 \; mapVal6 1 \;;
#X msg 1140 -274 \; sampLev7 0.9 \; sampLev8 0.6 \; sampLev9 0.7 \;
mainSamp202 0.7 \; mapVal8 1 \; mapVal9 1 \;;
#X msg 1511 -257 \; sampLev10 0.9 \; sampLev11 0.6 \; sampLev12 0.7
\; mainSamp203 0.7 \; mapVal11 1 \; mapVal12 1 \;;
#X msg 1127 95 \; sampLev19 0.9 \; sampLev20 0.4 \; sampLev21 0.4 \;
mainSamp206 1 \; mapVal20 1 \; mapVal21 1 \;;
#X msg 332 398 \; sampLev25 0.9 \; sampLev26 0.4 \; sampLev27 0.4 \;
mainSamp208 1 \; mapVal26 1 \; mapVa27 1 \;;
#X msg 717 400 \; sampLev28 0.9 \; sampLev29 0.4 \; sampLev30 0.4 \;
mainSamp209 1 \; mapVal29 1 \; mapVa30 1 \;;
#X msg 1140 376 \; sampLev31 0.9 \; sampLev32 0.4 \; sampLev33 0.4
\; mainSamp210 1 \; mapVal32 1 \; mapVa33 1 \;;
#X obj 479 -299 samp/sampPlayer 4 5 6 1 201;
#X obj 870 -292 samp/sampPlayer 7 8 9 2 202;
#X obj 75 71 samp/sampPlayer 13 14 15 4 204;
#X obj 443 81 samp/sampPlayer 16 17 18 5 205;
#X obj 863 88 samp/sampPlayer 19 20 21 6 206;
#X obj 88 404 samp/sampPlayer 25 26 27 8 208;
#X obj 452 405 samp/sampPlayer 28 29 30 9 209;
#X obj 889 363 samp/sampPlayer 31 32 33 10 210;
#X obj 1271 -287 samp/sampPlayer 10 11 12 3 203;
#X obj 1254 102 samp/sampPlayer 22 23 24 7 207;
#X obj 1272 362 samp/sampPlayer 34 35 36 11 211;
#X obj 68 -337 logic/idRouter 0 2;
#X obj 511 -346 logic/idRouter 1 2;
#X obj 877 -351 logic/idRouter 2 2;
#X obj 1333 -337 logic/idRouter 3 2;
#X obj 113 -2 logic/idRouter 4 2;
#X obj 504 23 logic/idRouter 5 2;
#X obj 905 32 logic/idRouter 6 2;
#X obj 1252 36 logic/idRouter 7 2;
#X obj 1270 296 logic/idRouter 11 2;
#X obj 932 311 logic/idRouter 10 2;
#X obj 464 336 logic/idRouter 9 2;
#X obj 109 344 logic/idRouter 8 2;
#X msg 308 81 \; sampLev13 0.9 \; sampLev14 0.4 \; sampLev15 0.4 \;
mainSamp204 1 \; mapVal14 1 \; mapVal15 1 \;;
#X msg 719 66 \; sampLev16 0.9 \; sampLev17 0.4 \; sampLev18 0.4 \;
mainSamp205 1 \; mapVal17 1 \; mapVal18 1 \;;
#X connect 2 0 1 0;
#X connect 3 0 18 0;
#X connect 4 0 19 0;
#X connect 5 0 20 0;
#X connect 6 0 22 0;
#X connect 7 0 50 0;
#X connect 8 0 49 0;
#X connect 9 0 23 0;
#X connect 10 0 24 0;
#X connect 11 0 25 0;
#X connect 12 0 1 0;
#X connect 13 0 21 0;
#X connect 14 0 15 0;
#X connect 16 0 17 0;
#X connect 37 0 0 0;
#X connect 38 0 26 0;
#X connect 39 0 27 0;
#X connect 40 0 34 0;
#X connect 41 0 28 0;
#X connect 42 0 29 0;
#X connect 43 0 30 0;
#X connect 44 0 35 0;
#X connect 45 0 36 0;
#X connect 46 0 33 0;
#X connect 47 0 32 0;
#X connect 48 0 31 0;
#X restore 13 -19 pd sintEngine_B;
#X msg 442 -28 1;
#X msg 475 -29 2;
#X msg 503 -28 3;
#X obj 439 6 s activeBank;
#N canvas 46 35 1028 521 ambEngine_A 0;
#X text -9 72 LO - FI;
#X text 632 69 HI - FI;
#X text 335 71 MID - FI;
#X text -170 364 lo2 = 0 - 1;
#X text -169 378 lo4 = 2 - 3;
#X text -168 391 hi2 = 4 - 5;
#X text -167 404 hi4 = 6 - 7;
#X text -169 417 loToHi2 = 8 - 9;
#X text -169 430 loToHi4 = 10 - 11;
#X text -164 335 OLD;
#X obj -45 119 amb/quadReader 0;
#X obj 62 119 amb/quadReader 1;
#X obj -43 193 amb/quadPlayer4 0 0.7 1;
#X obj -41 306 amb/quadPlayer4 1 0.7 1;
#X obj 277 121 amb/quadReader 2;
#X obj 384 121 amb/quadReader 3;
#X obj 549 114 amb/quadReader 4;
#X obj 659 112 amb/quadReader 5;
#X obj 278 206 amb/quadPlayer4 2 0.7 1;
#X obj 278 315 amb/quadPlayer4 3 0.7 1;
#X obj 549 198 amb/quadPlayer4 4 0.7 1;
#X obj 548 317 amb/quadPlayer4 5 0.7 1;
#X obj 39 28 ambSelector 0 1 2 3 4 5;
#X restore 131 -39 pd ambEngine_A;
#X connect 16 0 19 0;
#X connect 17 0 19 0;
#X connect 18 0 19 0;
#X coords 0 0 200 1 200 60 0;
