#N canvas 131 43 783 510 10;
#X obj 244 4 r idFA;
#X obj 235 144 select 12 13 14 15;
#X obj 360 143 select 12 13 14 15;
#X obj 359 96 r idFR;
#X obj 262 200 tgl 15 0 empty empty empty 17 7 0 10 -262144 -1 -1 1
1;
#X obj 319 200 tgl 15 0 empty empty empty 17 7 0 10 -262144 -1 -1 0
1;
#X obj 370 200 tgl 15 0 empty empty empty 17 7 0 10 -262144 -1 -1 0
1;
#X obj 428 200 tgl 15 0 empty empty empty 17 7 0 10 -262144 -1 -1 1
1;
#X msg 237 170 1;
#X msg 268 170 1;
#X msg 300 170 1;
#X msg 331 170 1;
#X msg 364 170 0;
#X msg 393 170 0;
#X msg 423 170 0;
#X msg 454 170 0;
#X obj 562 65 r loToHi;
#X obj 557 145 route 1 2;
#X obj 548 218 tgl 15 0 empty empty empty 17 7 0 10 -262144 -1 -1 1
1;
#X obj 548 188 pipe 10;
#X obj 613 216 tgl 15 0 empty empty empty 17 7 0 10 -262144 -1 -1 0
1;
#X obj 613 186 pipe 10;
#X obj 259 240 s amb\$1State;
#X obj 319 268 s amb\$2State;
#X msg 109 49 1;
#X obj 245 110 spigot;
#X obj 112 127 tgl 20 0 empty empty empty 17 7 0 10 -204786 -258113
-1 1 1;
#X obj 117 -7 r activeBank;
#X obj 116 22 sel \$7;
#X obj 359 117 spigot;
#X obj 563 106 spigot;
#X text 110 146 Bank Active;
#X floatatom 144 130 5 0 0 0 - - -;
#X obj 369 293 s amb\$5State;
#X obj 427 320 s amb\$6State;
#X obj 535 328 s amb\$3State;
#X obj 627 326 s amb\$4State;
#X msg 173 44 0;
#X obj 109 74 f;
#X obj 173 183 b;
#X obj 137 240 s bankOff\$1;
#X obj 150 264 s bankOff\$2;
#X obj 171 288 s bankOff\$3;
#X obj 182 307 s bankOff\$4;
#X obj 193 329 s bankOff\$5;
#X obj 200 354 s bankOff\$6;
#X connect 0 0 25 0;
#X connect 1 0 8 0;
#X connect 1 1 9 0;
#X connect 1 2 10 0;
#X connect 1 3 11 0;
#X connect 2 0 12 0;
#X connect 2 1 13 0;
#X connect 2 2 14 0;
#X connect 2 3 15 0;
#X connect 3 0 29 0;
#X connect 4 0 22 0;
#X connect 5 0 23 0;
#X connect 6 0 33 0;
#X connect 7 0 34 0;
#X connect 8 0 4 0;
#X connect 9 0 5 0;
#X connect 10 0 6 0;
#X connect 11 0 7 0;
#X connect 12 0 4 0;
#X connect 13 0 5 0;
#X connect 14 0 6 0;
#X connect 15 0 7 0;
#X connect 16 0 30 0;
#X connect 17 0 19 0;
#X connect 17 1 21 0;
#X connect 18 0 35 0;
#X connect 19 0 18 0;
#X connect 20 0 36 0;
#X connect 21 0 20 0;
#X connect 24 0 38 0;
#X connect 25 0 1 0;
#X connect 27 0 28 0;
#X connect 27 0 32 0;
#X connect 28 0 24 0;
#X connect 28 1 37 0;
#X connect 29 0 2 0;
#X connect 30 0 17 0;
#X connect 37 0 38 0;
#X connect 37 0 39 0;
#X connect 38 0 26 0;
#X connect 38 0 25 1;
#X connect 38 0 29 1;
#X connect 38 0 30 1;
#X connect 39 0 40 0;
#X connect 39 0 41 0;
#X connect 39 0 42 0;
#X connect 39 0 43 0;
#X connect 39 0 44 0;
#X connect 39 0 45 0;
#X coords 0 -1 1 1 85 60 1 100 100;
