#N canvas 0 22 1280 786 10;
#X obj -19 -173 bng 15 250 50 0 empty empty empty 17 7 0 10 -262144
-1 -1;
#X msg -10 -147 1 open ../LOFI/ciudadSirenasLO1.aif;
#X msg -6 -126 2 open ../LOFI/ciudadSirenasLO2.aif;
#X msg -2 -103 3 open ../LOFI/ciudadSirenasLO3.aif;
#X msg 0 -79 4 open ../LOFI/ciudadSirenasLO4.aif;
#X obj -8 -40 s ambDirectory1;
#X obj 315 -177 bng 15 250 50 0 empty empty empty 17 7 0 10 -262144
-1 -1;
#X obj 322 -49 s ambDirectory2;
#X msg 331 -148 1 open ../LOtoHIFI/tormenta1.wav;
#X msg 335 -127 2 open ../LOtoHIFI/tormenta2.wav;
#X msg 339 -104 3 open ../LOtoHIFI/tormenta3.wav;
#X msg 340 -80 4 open ../LOtoHIFI/tormenta4.wav;
#X text -23 -2 LOFI;
#X text 168 -17 LO To HIFI;
#X text 409 -4 HIFI;
#X obj 740 -169 bng 15 250 50 0 empty empty empty 17 7 0 10 -262144
-1 -1;
#X obj 747 -41 s ambDirectory3;
#X obj 617 62 r idFA;
#X obj 617 89 select 12 13 14 15;
#X obj 742 88 select 12 13 14 15;
#X obj 742 61 r idFR;
#X obj 644 145 tgl 15 0 empty empty empty 17 7 0 10 -262144 -1 -1 0
1;
#X obj 701 145 tgl 15 0 empty empty empty 17 7 0 10 -262144 -1 -1 0
1;
#X obj 752 145 tgl 15 0 empty empty empty 17 7 0 10 -262144 -1 -1 0
1;
#X obj 810 145 tgl 15 0 empty empty empty 17 7 0 10 -262144 -1 -1 0
1;
#X msg 619 115 1;
#X msg 650 115 1;
#X msg 682 115 1;
#X msg 713 115 1;
#X msg 746 115 0;
#X msg 775 115 0;
#X msg 805 115 0;
#X msg 836 115 0;
#X obj 628 211 s lo1ON;
#X obj 657 233 s lo1OFF;
#X obj 702 253 s lo2ON;
#X obj 730 278 s lo2OFF;
#X obj 757 251 s hi1ON;
#X obj 783 281 s hi1OFF;
#X obj 815 305 s hi2ON;
#X obj 841 334 s hi2OFF;
#X obj 9 -199 r lo1ON;
#X obj -89 0 r lo1OFF;
#X obj 628 178 select 1 0;
#X obj 701 199 select 1 0;
#X obj 755 221 select 1 0;
#X obj 812 247 select 1 0;
#X msg 756 -140 1 open ../HIFI/hifi1.L.aif;
#X msg 760 -119 2 open ../HIFI/hifi1.R.aif;
#X msg 764 -96 3 open ../HIFI/hifi1.Ls.aif;
#X msg 765 -72 4 open ../HIFI/hifi1.Rs.aif;
#X obj -92 165 r lo2OFF;
#X obj 21 -366 bng 15 250 50 0 empty empty empty 17 7 0 10 -262144
-1 -1;
#X obj 49 -392 r lo2ON;
#X msg 54 -341 1 open ../LOFI/industrialLO.L.aif;
#X msg 58 -320 2 open ../LOFI/industrialLO.R.aif;
#X obj 52 -289 s ambDirectory4;
#X obj 904 63 r loToHi;
#X obj 124 2 r lToHi1OFF;
#X obj 930 125 select 1 0;
#X obj 906 152 select 1 0;
#X obj 958 235 s lToHi2OFF;
#X obj 930 213 s lToHi2ON;
#X obj 906 173 s lToHi1ON;
#X obj 935 193 s lToHi1OFF;
#X obj 313 -210 r lToHi1ON;
#X obj 221 6 bng 15 250 50 0 empty empty empty 17 7 0 10 -262144 -1
-1;
#X obj 905 94 route 1 2;
#X obj 337 -243 s ambDirectory5;
#X obj 333 -450 r lToHi2ON;
#X obj 854 -389 bng 15 250 50 0 empty empty empty 17 7 0 10 -262144
-1 -1;
#X obj 855 -411 r hi2ON;
#X msg 870 -360 1 open ../HIFI/molino_Agua_L.aif;
#X msg 874 -339 2 open ../HIFI/molino_Agua_R.aif;
#X obj 332 -1 r hi1OFF;
#X obj 347 167 r hi2OFF;
#X obj 741 -191 r hi1ON;
#X msg 337 -328 1 open ../LOtoHIFI/marautoL.aif;
#X msg 348 -304 2 open ../LOtoHIFI/marautoR.aif;
#X msg 456 -254 2 open ../LOtoHIFI/plazaVicunna1.R.aif;
#X msg 452 -273 1 open ../LOtoHIFI/plazaVicuna1.L.aif;
#X obj 276 -438 bng 15 250 50 0 empty empty empty 17 7 0 10 -262144
-1 -1;
#X obj 861 -261 s ambDirectory6;
#X floatatom 264 -389 5 0 0 0 - - -;
#X obj 302 -377 select 0;
#X obj 304 -415 random 2;
#X obj 127 166 r lToHi2OFF;
#X obj -98 26 quad_Sampler 1;
#X obj 117 28 quad_Sampler 2;
#X obj 335 24 quad_Sampler 3;
#X obj 344 194 stereoToQuad_Sampler 6;
#X obj 127 195 stereoToQuad_Sampler 5;
#X obj -93 192 stereoToQuad_Sampler 4;
#X connect 0 0 1 0;
#X connect 0 0 2 0;
#X connect 0 0 3 0;
#X connect 0 0 4 0;
#X connect 1 0 5 0;
#X connect 2 0 5 0;
#X connect 3 0 5 0;
#X connect 4 0 5 0;
#X connect 6 0 8 0;
#X connect 6 0 9 0;
#X connect 6 0 10 0;
#X connect 6 0 11 0;
#X connect 8 0 7 0;
#X connect 9 0 7 0;
#X connect 10 0 7 0;
#X connect 11 0 7 0;
#X connect 15 0 47 0;
#X connect 15 0 48 0;
#X connect 15 0 49 0;
#X connect 15 0 50 0;
#X connect 17 0 18 0;
#X connect 18 0 25 0;
#X connect 18 1 26 0;
#X connect 18 2 27 0;
#X connect 18 3 28 0;
#X connect 19 0 29 0;
#X connect 19 1 30 0;
#X connect 19 2 31 0;
#X connect 19 3 32 0;
#X connect 20 0 19 0;
#X connect 21 0 43 0;
#X connect 22 0 44 0;
#X connect 23 0 45 0;
#X connect 24 0 46 0;
#X connect 25 0 21 0;
#X connect 26 0 22 0;
#X connect 27 0 23 0;
#X connect 28 0 24 0;
#X connect 29 0 21 0;
#X connect 30 0 22 0;
#X connect 31 0 23 0;
#X connect 32 0 24 0;
#X connect 41 0 0 0;
#X connect 42 0 87 0;
#X connect 43 0 33 0;
#X connect 43 1 34 0;
#X connect 44 0 35 0;
#X connect 44 1 36 0;
#X connect 45 0 37 0;
#X connect 45 1 38 0;
#X connect 46 0 39 0;
#X connect 46 1 40 0;
#X connect 47 0 16 0;
#X connect 48 0 16 0;
#X connect 49 0 16 0;
#X connect 50 0 16 0;
#X connect 51 0 92 0;
#X connect 52 0 54 0;
#X connect 52 0 55 0;
#X connect 53 0 52 0;
#X connect 54 0 56 0;
#X connect 55 0 56 0;
#X connect 57 0 67 0;
#X connect 58 0 66 0;
#X connect 58 0 88 0;
#X connect 59 0 62 0;
#X connect 59 1 61 0;
#X connect 60 0 63 0;
#X connect 60 1 64 0;
#X connect 65 0 6 0;
#X connect 67 0 60 0;
#X connect 67 1 59 0;
#X connect 69 0 85 0;
#X connect 70 0 72 0;
#X connect 70 0 73 0;
#X connect 71 0 70 0;
#X connect 72 0 82 0;
#X connect 73 0 82 0;
#X connect 74 0 89 0;
#X connect 75 0 90 0;
#X connect 76 0 15 0;
#X connect 77 0 68 0;
#X connect 78 0 68 0;
#X connect 79 0 68 0;
#X connect 80 0 68 0;
#X connect 81 0 85 0;
#X connect 84 0 77 0;
#X connect 84 0 78 0;
#X connect 84 1 80 0;
#X connect 84 1 79 0;
#X connect 85 0 83 0;
#X connect 85 0 84 0;
#X connect 86 0 91 0;
