#N canvas 140 22 450 300 10;
#X obj 89 62 inlet;
#X obj 87 272 outlet;
#X obj 68 132 openpanel;
#X msg 68 163 add \$1;
#X obj 157 195 \$1;
#X msg 157 219 write \$1.txt cr;
#X obj 157 172 b;
#X msg 158 145 clear;
#X obj 69 97 t b b b b b;
#X obj 23 141 + 1;
#X obj 23 165 f;
#X obj 24 191 % 4;
#X obj 24 214 sel 1;
#X msg 19 114 1;
#X obj 166 257 b;
#X obj 215 278 outlet;
#X connect 0 0 8 0;
#X connect 2 0 3 0;
#X connect 2 0 13 0;
#X connect 3 0 1 0;
#X connect 4 0 5 0;
#X connect 5 0 1 0;
#X connect 5 0 14 0;
#X connect 6 0 4 0;
#X connect 7 0 1 0;
#X connect 7 0 6 0;
#X connect 8 0 2 0;
#X connect 8 1 2 0;
#X connect 8 2 2 0;
#X connect 8 3 2 0;
#X connect 8 4 7 0;
#X connect 9 0 10 0;
#X connect 10 0 9 1;
#X connect 10 0 11 0;
#X connect 11 0 12 0;
#X connect 12 0 4 0;
#X connect 13 0 9 0;
#X connect 14 0 15 0;
