#N canvas 208 312 899 651 10;
#X obj -212 349 *~;
#X obj -155 347 *~;
#X obj -217 174 tabplay~;
#X obj -114 170 tabplay~;
#X msg -233 104 set \$1-s11-\$2;
#X msg -112 104 set \$1-s12-\$2;
#X obj -232 74 pack;
#X obj -206 45 \$1;
#X obj -80 136 r play\$1;
#X text -84 11 \$1 = ID;
#X obj 6 377 *~;
#X obj 67 381 *~;
#X obj -8 208 tabplay~;
#X obj 108 204 tabplay~;
#X text 138 45 \$1 = ID;
#X msg -11 105 set \$1-s13-\$2;
#X msg 110 106 set \$1-s14-\$2;
#X obj -341 18 r initID\$1;
#X obj -241 50 f;
#X obj -277 393 env~;
#X obj -288 427 s amb\$1Level;
#X msg 244 132 \$1 4000;
#X obj 244 169 line~;
#X obj -230 -3 sel 1;
#X obj -230 -25 r amb\$1State;
#X obj -94 299 *~ \$2;
#X obj -231 22 t b b b;
#X obj -172 48 s getInitID\$1;
#X obj 89 524 throw~ ambRR2;
#X obj -18 521 throw~ ambLR2;
#X obj -115 517 throw~ ambR2;
#X obj -211 516 throw~ ambL2;
#X obj 403 154 s play\$1;
#X obj 339 116 sel 1;
#X obj 276 32 r amb\$1State;
#X obj 276 60 f;
#X obj 489 44 / 44.1;
#X obj 457 90 metro;
#X obj 488 65 - 10000;
#X obj 488 15 r \$1Size;
#X obj 450 130 s play\$1;
#X obj 337 253 tgl 30 0 empty empty loop 38 15 0 10 -204800 -258113
-1 1 1;
#X obj 323 58 spigot;
#X obj 292 185 \$3;
#X obj 251 251 tgl 30 0 empty empty state 38 15 0 10 -204800 -258113
-1 0 1;
#X obj 296 154 loadbang;
#X text 237 378 - 2 Player Level - Volume;
#X text 237 362 - 1 Reader/Player ID;
#X text 236 394 - 3 loop ON/OFF;
#X text 239 341 Object Arguments;
#X floatatom 345 -14 5 0 0 0 - - -;
#X msg 194 59 0 12000;
#X msg 225 90 0;
#X obj 194 -12 r bankOff\$1;
#X obj 92 264 r quadLevel\$1;
#X floatatom 251 292 5 0 0 0 - - -;
#X text 295 292 level;
#X connect 0 0 19 0;
#X connect 0 0 31 0;
#X connect 1 0 19 0;
#X connect 1 0 30 0;
#X connect 2 0 0 0;
#X connect 3 0 1 0;
#X connect 4 0 2 0;
#X connect 5 0 3 0;
#X connect 6 0 4 0;
#X connect 6 0 5 0;
#X connect 6 0 15 0;
#X connect 6 0 16 0;
#X connect 7 0 6 1;
#X connect 8 0 2 0;
#X connect 8 0 3 0;
#X connect 8 0 12 0;
#X connect 8 0 13 0;
#X connect 10 0 19 0;
#X connect 10 0 29 0;
#X connect 11 0 19 0;
#X connect 11 0 28 0;
#X connect 12 0 10 0;
#X connect 13 0 11 0;
#X connect 15 0 12 0;
#X connect 16 0 13 0;
#X connect 17 0 18 1;
#X connect 18 0 6 0;
#X connect 19 0 20 0;
#X connect 21 0 22 0;
#X connect 22 0 25 0;
#X connect 23 0 26 0;
#X connect 24 0 23 0;
#X connect 25 0 1 1;
#X connect 25 0 0 1;
#X connect 25 0 10 1;
#X connect 25 0 11 1;
#X connect 26 0 18 0;
#X connect 26 1 7 0;
#X connect 26 2 27 0;
#X connect 33 0 32 0;
#X connect 34 0 35 0;
#X connect 35 0 21 0;
#X connect 35 0 33 0;
#X connect 35 0 44 0;
#X connect 35 0 42 0;
#X connect 35 0 50 0;
#X connect 36 0 38 0;
#X connect 37 0 40 0;
#X connect 38 0 37 1;
#X connect 39 0 36 0;
#X connect 41 0 42 1;
#X connect 42 0 37 0;
#X connect 43 0 41 0;
#X connect 45 0 43 0;
#X connect 51 0 22 0;
#X connect 52 0 44 0;
#X connect 53 0 51 0;
#X connect 53 0 52 0;
#X connect 54 0 55 0;
#X connect 55 0 25 1;
#X coords 0 -1 1 1 190 100 1 225 215;
