#N canvas 498 36 567 490 10;
#X floatatom 507 195 3 0 0 0 - - -;
#X obj 349 196 dbtorms;
#X obj 349 238 sig~;
#X obj 351 262 lop~ 1;
#X obj 410 146 hsl 160 30 1 100 1 0 empty empty empty -2 -8 0 10 -260097
-1 -1 0 1;
#X obj 34 327 *~;
#X obj 78 326 *~;
#X obj 172 373 *~;
#X obj 216 372 *~;
#X text 409 36 Load;
#X text 517 16 Play;
#X obj 55 431 throw~ masterL;
#X obj 150 430 throw~ masterR;
#X obj 353 434 throw~ masterRR;
#X obj 248 434 throw~ masterLR;
#X obj 27 262 readsf~;
#X obj 85 265 readsf~;
#X obj 141 265 readsf~;
#X obj 195 267 readsf~;
#X msg 209 84 1;
#X obj 23 196 route 1 2 3 4;
#X obj 122 59 b;
#X obj 18 172 r ambDirectory\$1;
#X obj 157 59 delay 100;
#X text 417 121 Volumen;
#X obj 276 43 inlet off;
#X obj 334 162 line;
#X msg 278 70 0;
#X obj 282 181 line;
#X obj 290 131 * 100;
#X msg 271 155 \$1 4000;
#X msg 335 134 \$1 3000;
#X obj 63 409 throw~ ambL;
#X obj 159 408 throw~ ambR;
#X obj 256 412 throw~ ambLR;
#X obj 363 412 throw~ ambRR;
#X obj 256 98 moses 5000;
#X connect 1 0 0 0;
#X connect 1 0 2 0;
#X connect 2 0 3 0;
#X connect 3 0 6 1;
#X connect 3 0 5 1;
#X connect 3 0 7 1;
#X connect 3 0 8 1;
#X connect 4 0 1 0;
#X connect 5 0 11 0;
#X connect 5 0 32 0;
#X connect 6 0 12 0;
#X connect 6 0 33 0;
#X connect 7 0 14 0;
#X connect 7 0 34 0;
#X connect 8 0 13 0;
#X connect 8 0 35 0;
#X connect 15 0 5 0;
#X connect 16 0 6 0;
#X connect 17 0 7 0;
#X connect 18 0 8 0;
#X connect 18 1 27 0;
#X connect 19 0 18 0;
#X connect 19 0 17 0;
#X connect 19 0 16 0;
#X connect 19 0 15 0;
#X connect 19 0 29 0;
#X connect 20 0 15 0;
#X connect 20 1 16 0;
#X connect 20 2 17 0;
#X connect 20 3 18 0;
#X connect 20 3 21 0;
#X connect 21 0 23 0;
#X connect 22 0 20 0;
#X connect 23 0 19 0;
#X connect 25 0 27 0;
#X connect 26 0 4 0;
#X connect 27 0 31 0;
#X connect 27 0 36 0;
#X connect 28 0 4 0;
#X connect 29 0 30 0;
#X connect 30 0 28 0;
#X connect 31 0 26 0;
#X connect 36 0 18 0;
#X connect 36 0 17 0;
#X connect 36 0 16 0;
#X connect 36 0 15 0;
#X coords 0 -1 1 1 180 120 1 400 100;
