#N canvas 744 179 899 651 10;
#X obj -212 349 *~;
#X obj -155 347 *~;
#X obj -195 490 throw~ ambL;
#X obj -99 489 throw~ ambR;
#X obj -2 493 throw~ ambLR;
#X obj 105 493 throw~ ambRR;
#X obj -217 174 tabplay~;
#X obj -114 170 tabplay~;
#X obj 444 90 / 44.1;
#X obj 412 136 metro;
#X obj 443 111 - 10000;
#X obj 443 61 r \$1Size;
#X msg -233 104 set \$1-s11-\$2;
#X msg -112 104 set \$1-s12-\$2;
#X obj -232 74 pack;
#X obj -206 45 \$1;
#X obj 405 176 s play\$1;
#X obj -80 136 r play\$1;
#X text -84 11 \$1 = ID;
#X obj 6 377 *~;
#X obj 67 381 *~;
#X obj -8 208 tabplay~;
#X obj 108 204 tabplay~;
#X text 138 45 \$1 = ID;
#X msg -11 105 set \$1-s13-\$2;
#X msg 110 106 set \$1-s14-\$2;
#X obj -341 18 r initID\$1;
#X obj -241 50 f;
#X obj -277 393 env~;
#X obj -288 427 s amb\$1Level;
#X obj 317 58 r amb\$1State;
#X msg 244 132 \$1 4000;
#X obj 245 169 line~;
#X obj -230 -3 sel 1;
#X obj -230 -25 r amb\$1State;
#X obj -75 248 *~ \$2;
#X obj -231 22 t b b b;
#X obj -172 48 s getInitID\$1;
#X obj 276 255 tgl 30 0 empty empty empty 17 7 0 10 -262144 -1 -1 0
1;
#X obj 89 524 throw~ ambRR2;
#X obj -18 521 throw~ ambLR2;
#X obj -115 517 throw~ ambR2;
#X obj -211 516 throw~ ambL2;
#X connect 0 0 2 0;
#X connect 0 0 28 0;
#X connect 0 0 42 0;
#X connect 1 0 3 0;
#X connect 1 0 28 0;
#X connect 1 0 41 0;
#X connect 6 0 0 0;
#X connect 7 0 1 0;
#X connect 8 0 10 0;
#X connect 9 0 16 0;
#X connect 10 0 9 1;
#X connect 11 0 8 0;
#X connect 12 0 6 0;
#X connect 13 0 7 0;
#X connect 14 0 12 0;
#X connect 14 0 13 0;
#X connect 14 0 24 0;
#X connect 14 0 25 0;
#X connect 15 0 14 1;
#X connect 17 0 6 0;
#X connect 17 0 7 0;
#X connect 17 0 21 0;
#X connect 17 0 22 0;
#X connect 19 0 4 0;
#X connect 19 0 28 0;
#X connect 19 0 40 0;
#X connect 20 0 5 0;
#X connect 20 0 28 0;
#X connect 20 0 39 0;
#X connect 21 0 19 0;
#X connect 22 0 20 0;
#X connect 24 0 21 0;
#X connect 25 0 22 0;
#X connect 26 0 27 1;
#X connect 27 0 14 0;
#X connect 28 0 29 0;
#X connect 30 0 9 0;
#X connect 30 0 31 0;
#X connect 30 0 38 0;
#X connect 31 0 32 0;
#X connect 32 0 35 0;
#X connect 33 0 36 0;
#X connect 34 0 33 0;
#X connect 35 0 1 1;
#X connect 35 0 0 1;
#X connect 35 0 19 1;
#X connect 35 0 20 1;
#X connect 36 0 27 0;
#X connect 36 1 15 0;
#X connect 36 2 37 0;
#X coords 0 -1 1 1 190 100 1 225 215;
