#N canvas 1014 87 491 714 10;
#X obj 57 646 textfile;
#X msg 54 348 rewind;
#X msg 235 467 0;
#X obj 158 522 + 1;
#X obj 166 447 until;
#X obj 166 396 t b b;
#X obj 166 495 f;
#X obj 94 576 t b f;
#X obj 54 759 soundfiler;
#X obj 57 677 pack s s;
#X obj 181 273 \$0;
#N canvas 0 22 450 300 (subpatch) 0;
#X array \$0-s11-\$1 4.5423e+006 float 0;
#X coords 0 1 4.5423e+006 -1 100 40 1;
#X restore 294 248 graph;
#X obj 121 625 + 1;
#X msg 135 348 read \$1.txt cr;
#X obj 121 648 makefilename \$0-s1%d-\$1;
#X obj 55 786 s \$1Size;
#X obj 179 308 s initID\$1;
#N canvas 0 22 450 300 (subpatch) 0;
#X array \$0-s12-\$1 4.5423e+006 float 0;
#X coords 0 1 4.5423e+006 -1 100 40 1;
#X restore 298 314 graph;
#X obj 169 551 sel 4;
#X msg 166 425 4;
#N canvas 0 22 450 300 (subpatch) 0;
#X array \$0-s13-\$1 4.5423e+006 float 0;
#X coords 0 1 4.5423e+006 -1 100 40 1;
#X restore 297 375 graph;
#N canvas 0 22 450 300 (subpatch) 0;
#X array \$0-s14-\$1 4.5423e+006 float 0;
#X coords 0 1 4.5423e+006 -1 100 40 1;
#X restore 292 442 graph;
#X obj 121 601 mod 4;
#X obj 183 238 bng 15 250 50 0 empty empty empty 17 7 0 10 -262144
-1 -1;
#X obj 82 298 t b b f b;
#X obj 206 231 r getInitID\$1;
#X floatatom 223 285 5 0 0 0 - - -;
#X obj 60 217 loadbang;
#X obj 84 255 \$1;
#X obj 104 116 bng 24 250 50 0 empty empty load 2 32 0 8 -204786 -204800
-258113;
#X obj 151 231 bng 15 250 50 0 empty empty empty 17 7 0 10 -262144
-1 -1;
#X obj 12 185 panelLoad4 \$1;
#X obj 136 117 bng 18 250 50 0 empty empty init 2 32 0 8 -261234 -204800
-258113;
#X obj 143 58 r initAmbs;
#X msg 55 713 read -maxsize 4.5e+006 -resize \$1 \$2;
#X connect 0 0 9 0;
#X connect 1 0 0 0;
#X connect 2 0 6 1;
#X connect 3 0 6 1;
#X connect 3 0 18 0;
#X connect 3 0 7 0;
#X connect 4 0 6 0;
#X connect 5 0 19 0;
#X connect 5 1 2 0;
#X connect 6 0 3 0;
#X connect 7 0 0 0;
#X connect 7 1 22 0;
#X connect 8 0 15 0;
#X connect 9 0 34 0;
#X connect 10 0 16 0;
#X connect 10 0 26 0;
#X connect 12 0 14 0;
#X connect 13 0 0 0;
#X connect 14 0 9 1;
#X connect 18 1 6 1;
#X connect 19 0 4 0;
#X connect 22 0 12 0;
#X connect 23 0 10 0;
#X connect 24 0 5 0;
#X connect 24 1 1 0;
#X connect 24 2 13 0;
#X connect 24 3 10 0;
#X connect 25 0 10 0;
#X connect 28 0 24 0;
#X connect 29 0 31 0;
#X connect 30 0 28 0;
#X connect 31 0 0 0;
#X connect 31 1 28 0;
#X connect 32 0 28 0;
#X connect 33 0 32 0;
#X connect 34 0 8 0;
#X coords 0 -1 1 1 85 60 1 100 100;
