#N canvas 184 98 450 300 10;
#X obj 55 48 inlet;
#X obj 88 71 r bec_part;
#X obj 89 101 == \$1;
#X obj 55 164 spigot;
#X obj 55 192 outlet;
#X obj 179 59 r bec_part;
#X obj 267 70 r bec_part;
#X obj 129 146 ||;
#X obj 180 119 t b f;
#X obj 147 182 ||;
#X obj 232 119 t b f;
#X obj 179 92 == \$2;
#X obj 267 93 == \$3;
#X obj 147 206 == 0;
#X obj 147 279 outlet;
#X msg 147 253 0;
#X obj 146 229 del 10000;
#X connect 0 0 3 0;
#X connect 1 0 2 0;
#X connect 2 0 7 0;
#X connect 3 0 4 0;
#X connect 5 0 11 0;
#X connect 6 0 12 0;
#X connect 7 0 9 0;
#X connect 8 0 7 0;
#X connect 8 1 7 1;
#X connect 9 0 3 1;
#X connect 9 0 13 0;
#X connect 10 0 9 0;
#X connect 10 1 9 1;
#X connect 11 0 8 0;
#X connect 12 0 10 0;
#X connect 13 0 16 0;
#X connect 15 0 14 0;
#X connect 16 0 15 0;
