#N canvas 612 208 629 603 10;
#X obj 198 397 delay~ 22000;
#X obj 116 399 delay~ 22000;
#X obj 241 321 * 441;
#X obj 53 358 *~;
#X obj 110 356 *~;
#X obj 241 294 hsl 128 15 0 10 0 0 empty empty empty -2 -8 0 10 -257985
-1 -1 6350 1;
#X floatatom 376 295 5 0 0 0 - - -;
#X text 239 275 BackDelay - C11;
#X obj 33 184 tabplay~;
#X obj 151 179 tabplay~;
#X obj 444 90 / 44.1;
#X obj 407 132 metro;
#X obj 443 111 - 10000;
#X obj 443 61 r \$1Size;
#X msg 153 113 set \$1-s12-\$2;
#X obj 27 82 pack;
#X obj 405 176 s play\$1;
#X obj 98 151 r play\$1;
#X text 181 20 \$1 = ID;
#X obj 47 148 bng 15 250 50 0 empty empty empty 17 7 0 10 -262144 -1
-1;
#X msg 17 127 set \$1-s11-\$2;
#X obj 64 62 \$1;
#X obj 21 58 f;
#X obj -79 24 r initID\$1;
#X obj 70 499 throw~ ambL;
#X obj 166 498 throw~ ambR;
#X obj 263 502 throw~ ambLR;
#X obj 370 502 throw~ ambRR;
#X obj -19 432 env~;
#X obj -23 465 s amb\$1Level;
#X obj 224 159 loadbang;
#X msg 228 185 5;
#X obj 259 29 r amb\$1State;
#X obj 164 309 *~ \$2;
#X obj 459 156 bng 15 250 50 0 empty empty empty 17 7 0 10 -262144
-1 -1;
#X msg 232 62 \$1 4000;
#X obj 235 89 line~;
#X obj 39 -5 sel 1;
#X obj 39 -27 r amb\$1State;
#X obj 260 235 tgl 30 0 empty empty empty 17 7 0 10 -262144 -1 -1 0
1;
#X obj 34 31 t b b b;
#X obj 101 50 s getInitID\$1;
#X obj -34 84 != 0;
#X obj 14 104 spigot;
#X obj 380 533 throw~ ambRR2;
#X obj 273 530 throw~ ambLR2;
#X obj 176 526 throw~ ambR2;
#X obj 80 525 throw~ ambL2;
#X connect 0 0 27 0;
#X connect 0 0 28 0;
#X connect 0 0 44 0;
#X connect 1 0 26 0;
#X connect 1 0 28 0;
#X connect 1 0 45 0;
#X connect 2 0 0 1;
#X connect 2 0 1 1;
#X connect 2 0 6 0;
#X connect 3 0 1 0;
#X connect 3 0 24 0;
#X connect 3 0 47 0;
#X connect 4 0 0 0;
#X connect 4 0 25 0;
#X connect 4 0 46 0;
#X connect 5 0 2 0;
#X connect 8 0 3 0;
#X connect 8 0 28 0;
#X connect 9 0 4 0;
#X connect 9 0 28 0;
#X connect 10 0 12 0;
#X connect 11 0 16 0;
#X connect 11 0 34 0;
#X connect 12 0 11 1;
#X connect 13 0 10 0;
#X connect 14 0 9 0;
#X connect 15 0 14 0;
#X connect 15 0 43 0;
#X connect 17 0 8 0;
#X connect 17 0 9 0;
#X connect 19 0 8 0;
#X connect 19 0 9 0;
#X connect 20 0 8 0;
#X connect 21 0 15 1;
#X connect 22 0 15 0;
#X connect 23 0 22 1;
#X connect 23 0 42 0;
#X connect 28 0 29 0;
#X connect 30 0 31 0;
#X connect 31 0 5 0;
#X connect 32 0 11 0;
#X connect 32 0 35 0;
#X connect 32 0 39 0;
#X connect 33 0 4 1;
#X connect 33 0 3 1;
#X connect 35 0 36 0;
#X connect 36 0 33 0;
#X connect 37 0 40 0;
#X connect 38 0 37 0;
#X connect 40 0 22 0;
#X connect 40 1 21 0;
#X connect 40 2 41 0;
#X connect 42 0 43 1;
#X connect 43 0 20 0;
#X coords 0 -1 1 1 190 100 1 225 215;
