#N canvas 865 201 629 603 10;
#X obj 198 397 delay~ 22000;
#X obj 116 399 delay~ 22000;
#X obj 241 321 * 441;
#X obj 53 358 *~;
#X obj 110 356 *~;
#X obj 241 294 hsl 128 15 0 10 0 0 empty empty empty -2 -8 0 10 -257985
-1 -1 6350 1;
#X floatatom 376 295 5 0 0 0 - - -;
#X text 239 275 BackDelay - C11;
#X obj 33 184 tabplay~;
#X obj 151 179 tabplay~;
#X msg 153 113 set \$1-s12-\$2;
#X obj 27 82 pack;
#X obj 98 151 r play\$1;
#X text 181 20 \$1 = ID;
#X msg 17 127 set \$1-s11-\$2;
#X obj 64 62 \$1;
#X obj 21 58 f;
#X obj -79 24 r initID\$1;
#X obj -19 432 env~;
#X obj -23 465 s amb\$1Level;
#X obj 224 159 loadbang;
#X msg 228 185 5;
#X obj 164 309 *~ \$2;
#X msg 232 62 \$1 4000;
#X obj 235 89 line~;
#X obj 39 -5 sel 1;
#X obj 39 -27 r amb\$1State;
#X obj 34 31 t b b b;
#X obj 101 50 s getInitID\$1;
#X obj -34 84 != 0;
#X obj 14 104 spigot;
#X obj 380 533 throw~ ambRR2;
#X obj 273 530 throw~ ambLR2;
#X obj 176 526 throw~ ambR2;
#X obj 80 525 throw~ ambL2;
#X obj 413 164 s play\$1;
#X obj 349 126 sel 1;
#X obj 254 -32 r amb\$1State;
#X obj 265 4 f;
#X obj 405 -3 / 44.1;
#X obj 373 43 metro;
#X obj 404 18 - 10000;
#X obj 404 -32 r \$1Size;
#X obj 366 83 s play\$1;
#X floatatom 429 57 5 0 0 0 - - -;
#X obj 325 240 tgl 30 0 empty empty loop 38 15 0 10 -204800 -258113
-1 1 1;
#X obj 241 241 tgl 30 0 empty empty state 38 15 0 10 -204800 -258113
-1 0 1;
#X obj 319 34 spigot;
#X text 335 369 - 2 Player Level - Volume;
#X obj 288 187 \$3;
#X text 335 353 - 1 Reader/Player ID;
#X text 334 385 - 3 loop ON/OFF;
#X text 337 332 Object Arguments;
#X connect 0 0 18 0;
#X connect 0 0 31 0;
#X connect 1 0 18 0;
#X connect 1 0 32 0;
#X connect 2 0 0 1;
#X connect 2 0 1 1;
#X connect 2 0 6 0;
#X connect 3 0 1 0;
#X connect 3 0 34 0;
#X connect 4 0 0 0;
#X connect 4 0 33 0;
#X connect 5 0 2 0;
#X connect 8 0 3 0;
#X connect 8 0 18 0;
#X connect 9 0 4 0;
#X connect 9 0 18 0;
#X connect 10 0 9 0;
#X connect 11 0 10 0;
#X connect 11 0 30 0;
#X connect 12 0 8 0;
#X connect 12 0 9 0;
#X connect 14 0 8 0;
#X connect 15 0 11 1;
#X connect 16 0 11 0;
#X connect 17 0 16 1;
#X connect 17 0 29 0;
#X connect 18 0 19 0;
#X connect 20 0 21 0;
#X connect 20 0 49 0;
#X connect 21 0 5 0;
#X connect 22 0 4 1;
#X connect 22 0 3 1;
#X connect 23 0 24 0;
#X connect 24 0 22 0;
#X connect 25 0 27 0;
#X connect 26 0 25 0;
#X connect 27 0 16 0;
#X connect 27 1 15 0;
#X connect 27 2 28 0;
#X connect 29 0 30 1;
#X connect 30 0 14 0;
#X connect 36 0 35 0;
#X connect 37 0 38 0;
#X connect 38 0 23 0;
#X connect 38 0 36 0;
#X connect 38 0 46 0;
#X connect 38 0 47 0;
#X connect 39 0 41 0;
#X connect 40 0 43 0;
#X connect 41 0 40 1;
#X connect 41 0 44 0;
#X connect 42 0 39 0;
#X connect 45 0 47 1;
#X connect 47 0 40 0;
#X connect 49 0 45 0;
#X coords 0 -1 1 1 190 100 1 225 215;
