#N canvas 773 73 491 714 10;
#X obj 38 585 textfile;
#X msg 39 312 rewind;
#X msg 197 432 0;
#X obj 120 487 + 1;
#X obj 140 412 until;
#X obj 140 361 t b b;
#X obj 128 467 f;
#X obj 39 723 soundfiler;
#X obj 42 641 pack s s;
#X obj 180 245 \$0;
#N canvas 0 22 450 300 (subpatch) 0;
#X array \$0-s11-\$1 1.56996e+07 float 0;
#X coords 0 1 1.56996e+07 -1 100 40 1;
#X restore 288 213 graph;
#N canvas 0 22 450 300 (subpatch) 0;
#X array \$0-s12-\$1 1.56996e+07 float 0;
#X coords 0 1 1.56996e+07 -1 100 40 1;
#X restore 288 276 graph;
#X msg 140 390 2;
#X obj 134 514 sel 2;
#X msg 103 320 read \$1.txt cr;
#X obj 104 605 makefilename \$0-s1%d-\$1;
#X obj 40 750 s \$1Size;
#X obj 179 284 s initID\$1;
#X obj 206 353 bng 15 250 50 0 empty empty empty 17 7 0 10 -262144
-1 -1;
#X obj 78 519 t b f;
#X obj 104 582 + 1;
#X obj 106 559 mod 2;
#X obj 67 262 t b b f b;
#X obj 180 207 r getInitID\$1;
#X msg 40 675 read -maxsize 1.67772e+07 -resize \$1 \$2;
#X floatatom 211 267 5 0 0 0 - - -;
#X obj 148 229 bng 15 250 50 0 empty empty empty 17 7 0 10 -262144
-1 -1;
#X obj 63 206 loadbang;
#X obj 70 235 \$1;
#X obj 110 118 bng 24 250 50 0 empty empty load 2 32 0 8 -204786 -204800
-258113;
#X msg -8 494 rewind;
#X obj -7 524 bng 15 250 50 0 empty empty empty 17 7 0 10 -262144 -1
-1;
#X obj 3 629 print;
#X obj 13 169 panelLoad2 \$1;
#X obj 141 119 bng 18 250 50 0 empty empty init 2 32 0 8 -261234 -204800
-258113;
#X connect 0 0 8 0;
#X connect 0 0 32 0;
#X connect 1 0 0 0;
#X connect 2 0 6 1;
#X connect 3 0 6 1;
#X connect 3 0 13 0;
#X connect 3 0 19 0;
#X connect 4 0 6 0;
#X connect 5 0 12 0;
#X connect 5 1 2 0;
#X connect 6 0 3 0;
#X connect 7 0 16 0;
#X connect 8 0 24 0;
#X connect 9 0 17 0;
#X connect 9 0 25 0;
#X connect 12 0 4 0;
#X connect 13 1 6 1;
#X connect 14 0 0 0;
#X connect 15 0 8 1;
#X connect 18 0 5 0;
#X connect 19 0 0 0;
#X connect 19 1 21 0;
#X connect 20 0 15 0;
#X connect 21 0 20 0;
#X connect 22 0 5 0;
#X connect 22 1 1 0;
#X connect 22 2 14 0;
#X connect 22 3 9 0;
#X connect 23 0 9 0;
#X connect 24 0 7 0;
#X connect 26 0 9 0;
#X connect 27 0 28 0;
#X connect 28 0 22 0;
#X connect 29 0 33 0;
#X connect 30 0 0 0;
#X connect 31 0 0 0;
#X connect 33 0 0 0;
#X connect 33 1 28 0;
#X coords 0 -1 1 1 85 60 1 100 100;
