#N canvas 154 49 491 714 10;
#X obj 37 437 textfile;
#X msg 37 164 rewind;
#X obj 172 99 \$0;
#X msg 101 172 read \$1.txt cr;
#X obj 171 138 s initID\$1;
#X obj 61 58 inlet read;
#X msg 12 351 print;
#X obj 65 114 t b b f b;
#X obj 172 61 r getInitID\$1;
#X obj 42 505 prepend open;
#X obj 44 622 s readAmb\$1;
#X obj 128 511 f;
#X obj 163 511 + 1;
#X obj 126 538 mod 2;
#X obj 126 479 t s b;
#X obj 44 561 pack f s;
#X connect 0 0 14 0;
#X connect 1 0 0 0;
#X connect 2 0 4 0;
#X connect 3 0 0 0;
#X connect 5 0 7 0;
#X connect 6 0 0 0;
#X connect 7 1 1 0;
#X connect 7 2 3 0;
#X connect 7 3 2 0;
#X connect 8 0 2 0;
#X connect 9 0 15 1;
#X connect 11 0 13 0;
#X connect 11 0 12 0;
#X connect 12 0 11 1;
#X connect 13 0 15 0;
#X connect 14 0 9 0;
#X connect 14 1 11 0;
#X connect 15 0 10 0;
