#N canvas 140 192 573 461 10;
#X obj 210 338 delay~ 22000;
#X obj 128 340 delay~ 22000;
#X obj 274 286 * 441;
#X obj 185 189 dbtorms;
#X obj 185 231 sig~;
#X obj 185 255 lop~ 1;
#X obj 309 159 hsl 128 15 1 100 0 0 empty empty empty -2 -8 0 10 -260097
-1 -1 12700 1;
#X obj 72 281 *~;
#X obj 116 280 *~;
#X obj 309 200 hsl 128 15 0 10 0 0 empty empty empty -2 -8 0 10 -257985
-1 -1 0 1;
#X floatatom 447 197 5 0 0 0 - - -;
#X floatatom 449 159 5 0 0 0 - - -;
#X text 306 142 Volumen - F2;
#X text 307 181 BackDelay - C11;
#X obj 57 226 readsf~;
#X obj 115 229 readsf~;
#X obj 55 126 r ambDirectory\$1;
#X obj 53 160 route 1 2;
#X obj 198 -8 inlet off;
#X obj 256 111 line;
#X msg 200 19 0;
#X obj 204 130 line;
#X obj 212 80 * 100;
#X msg 156 72 1;
#X obj 69 47 b;
#X obj 104 47 delay 100;
#X obj 62 417 throw~ masterL;
#X obj 157 416 throw~ masterR;
#X obj 360 420 throw~ masterRR;
#X obj 255 420 throw~ masterLR;
#X msg 257 83 \$1 5000;
#X obj 74 391 throw~ ambL;
#X obj 170 390 throw~ ambR;
#X obj 267 394 throw~ ambLR;
#X obj 374 394 throw~ ambRR;
#X obj 203 52 moses 5000;
#X msg 204 103 \$1 3000;
#X connect 0 0 28 0;
#X connect 0 0 34 0;
#X connect 1 0 29 0;
#X connect 1 0 33 0;
#X connect 2 0 0 1;
#X connect 2 0 1 1;
#X connect 2 0 10 0;
#X connect 3 0 4 0;
#X connect 3 0 11 0;
#X connect 4 0 5 0;
#X connect 5 0 8 1;
#X connect 5 0 7 1;
#X connect 6 0 3 0;
#X connect 7 0 1 0;
#X connect 7 0 26 0;
#X connect 7 0 31 0;
#X connect 8 0 0 0;
#X connect 8 0 27 0;
#X connect 8 0 32 0;
#X connect 9 0 2 0;
#X connect 14 0 7 0;
#X connect 15 0 8 0;
#X connect 15 1 20 0;
#X connect 16 0 17 0;
#X connect 17 0 14 0;
#X connect 17 1 15 0;
#X connect 17 1 24 0;
#X connect 18 0 20 0;
#X connect 19 0 6 0;
#X connect 20 0 30 0;
#X connect 20 0 35 0;
#X connect 21 0 6 0;
#X connect 22 0 36 0;
#X connect 23 0 14 0;
#X connect 23 0 15 0;
#X connect 23 0 22 0;
#X connect 24 0 25 0;
#X connect 25 0 23 0;
#X connect 30 0 19 0;
#X connect 35 0 15 0;
#X connect 35 0 14 0;
#X connect 36 0 21 0;
#X coords 0 -1 1 1 190 120 1 300 100;
