#N canvas 360 364 385 311 10;
#X obj 66 32 inlet;
#X obj 66 249 outlet;
#X obj 66 181 line;
#X obj 66 110 / 127;
#X msg 66 143 \$1 10;
#X connect 0 0 3 0;
#X connect 2 0 1 0;
#X connect 3 0 4 0;
#X connect 4 0 2 0;
