#N canvas 102 526 714 433 10;
#X obj 100 102 cnv 15 98 38 empty empty empty 20 12 0 14 -4032 -66577
0;
#X obj 106 106 cnv 15 86 30 empty empty empty 20 12 0 14 -204800 -66577
0;
#X obj 154 120 tgl 15 0 empty empty prnt 18 8 0 10 -261682 -1 -1 0
1;
#X obj 121 152 spigot;
#X obj 355 108 route 0 1 2 3 4 5;
#X obj 355 295 s s0;
#X obj 371 326 s s1;
#X obj 388 351 s s2;
#X obj 404 291 s s3;
#X obj 421 316 s s4;
#X obj 437 341 s s5;
#X text 114 103 midiReceive;
#X obj 121 185 print midi;
#X obj 404 135 mapMidi;
#X obj 355 134 mapMidi;
#X obj 421 163 mapMidi;
#X obj 371 157 mapMidi;
#X obj 388 185 mapMidi;
#X obj 437 190 mapMidi;
#X obj 488 26 ctlin;
#X obj 535 133 mapMidi;
#X obj 486 132 mapMidi;
#X obj 552 161 mapMidi;
#X obj 502 155 mapMidi;
#X obj 519 183 mapMidi;
#X obj 568 188 mapMidi;
#X obj 486 293 s s6;
#X obj 502 324 s s7;
#X obj 519 349 s s8;
#X obj 535 289 s s9;
#X obj 552 314 s s10;
#X obj 568 339 s s11;
#X obj 355 26 ctlin;
#X text 108 121 s0->s5;
#X obj 486 52 pack;
#X floatatom 487 218 5 0 0 0 - - -;
#X obj 486 106 route 6 7 8 9 10 11;
#X obj 355 62 pack;
#X msg 355 83 \$2 \$1;
#X msg 486 77 \$2 \$1;
#X connect 2 0 3 1;
#X connect 3 0 12 0;
#X connect 4 0 14 0;
#X connect 4 1 16 0;
#X connect 4 2 17 0;
#X connect 4 3 13 0;
#X connect 4 4 15 0;
#X connect 4 5 18 0;
#X connect 13 0 8 0;
#X connect 14 0 5 0;
#X connect 15 0 9 0;
#X connect 16 0 6 0;
#X connect 17 0 7 0;
#X connect 18 0 10 0;
#X connect 19 0 34 0;
#X connect 19 1 34 1;
#X connect 20 0 29 0;
#X connect 21 0 26 0;
#X connect 21 0 35 0;
#X connect 22 0 30 0;
#X connect 23 0 27 0;
#X connect 24 0 28 0;
#X connect 25 0 31 0;
#X connect 32 0 3 0;
#X connect 32 0 37 0;
#X connect 32 1 37 1;
#X connect 34 0 39 0;
#X connect 36 0 21 0;
#X connect 36 1 23 0;
#X connect 36 2 24 0;
#X connect 36 3 20 0;
#X connect 36 4 22 0;
#X connect 36 5 25 0;
#X connect 37 0 38 0;
#X connect 38 0 4 0;
#X connect 39 0 36 0;
#X coords 0 -1 1 1 100 40 2 100 100;
