#N canvas 258 360 551 411 10;
#X obj 228 60 tgl 15 0 empty empty empty 17 7 0 10 -262144 -1 -1 0
1;
#X obj 452 101 tgl 15 0 empty empty empty 17 7 0 10 -262144 -1 -1 0
1;
#X obj 392 100 tgl 15 0 empty empty empty 17 7 0 10 -262144 -1 -1 0
1;
#X obj 189 223 *~;
#X obj 104 222 *~;
#X obj 392 42 r aA;
#X obj 443 45 r aR;
#X obj 392 141 line;
#X msg 389 120 \$1 200;
#X obj 447 145 line;
#X msg 448 123 \$1 200;
#X obj 405 75 route \$1 \$2 \$3;
#X obj 36 356 outlet~ sig33;
#X obj 123 357 outlet~ sig31;
#X obj 227 361 outlet~ sig32;
#X obj 250 0 inlet;
#X obj 245 24 t b f;
#X obj 238 95 sel 1;
#X msg 233 116 1;
#X msg 262 120 0;
#X obj 198 153 delay 4000;
#X obj 52 227 *~;
#X obj 303 162 tgl 15 0 empty empty empty 17 7 0 10 -262144 -1 -1 0
1;
#X obj 321 243 line;
#X msg 322 218 \$1 1000;
#X obj -22 251 inlet;
#X obj 187 303 *~;
#X obj 102 302 *~;
#X obj 50 307 *~;
#X obj -25 320 line;
#X msg -25 297 \$1 100;
#X obj 344 142 *~ 0.3;
#X obj 446 165 *~ 0.3;
#X obj 267 277 * 1.4;
#X obj 67 101 adc~ 1;
#X obj 67 167 sigmund-1in-3out;
#X connect 0 0 17 0;
#X connect 1 0 10 0;
#X connect 2 0 8 0;
#X connect 3 0 26 0;
#X connect 4 0 27 0;
#X connect 5 0 11 0;
#X connect 6 0 11 0;
#X connect 7 0 31 0;
#X connect 8 0 7 0;
#X connect 9 0 32 0;
#X connect 10 0 9 0;
#X connect 11 0 2 0;
#X connect 11 1 1 0;
#X connect 15 0 16 0;
#X connect 16 1 0 0;
#X connect 17 0 18 0;
#X connect 17 1 19 0;
#X connect 18 0 22 0;
#X connect 19 0 20 0;
#X connect 19 0 22 0;
#X connect 19 0 2 0;
#X connect 19 0 1 0;
#X connect 21 0 28 0;
#X connect 22 0 24 0;
#X connect 23 0 33 0;
#X connect 24 0 23 0;
#X connect 25 0 30 0;
#X connect 26 0 14 0;
#X connect 27 0 13 0;
#X connect 28 0 12 0;
#X connect 29 0 28 1;
#X connect 29 0 27 1;
#X connect 29 0 26 1;
#X connect 30 0 29 0;
#X connect 31 0 4 1;
#X connect 32 0 3 1;
#X connect 33 0 21 1;
#X connect 34 0 21 0;
#X connect 34 0 4 0;
#X connect 34 0 3 0;
#X connect 35 0 21 0;
#X connect 35 1 4 0;
#X connect 35 2 3 0;
#X connect 35 3 3 0;
