#N canvas 156 408 659 473 10;
#X obj 228 60 tgl 15 0 empty empty empty 17 7 0 10 -262144 -1 -1 0
1;
#X obj 452 101 tgl 15 0 empty empty empty 17 7 0 10 -262144 -1 -1 0
1;
#X obj 392 100 tgl 15 0 empty empty empty 17 7 0 10 -262144 -1 -1 0
1;
#X obj 189 223 *~;
#X obj 104 222 *~;
#X obj 392 42 r aA;
#X obj 443 45 r aR;
#X obj 392 141 line;
#X msg 389 120 \$1 200;
#X obj 447 145 line;
#X msg 448 123 \$1 200;
#X obj 405 75 route \$1 \$2 \$3;
#X obj 52 356 outlet~ sig33;
#X obj 104 329 outlet~ sig31;
#X obj 189 361 outlet~ sig32;
#X obj 250 0 inlet;
#X obj 245 24 t b f;
#X obj 238 95 sel 1;
#X msg 233 116 1;
#X msg 262 120 0;
#X obj 52 227 *~;
#X obj 303 162 tgl 15 0 empty empty empty 17 7 0 10 -262144 -1 -1 0
1;
#X msg 322 218 \$1 1000;
#X obj -19 178 inlet;
#X obj 189 305 *~;
#X obj 104 304 *~;
#X obj 52 309 *~;
#X msg -22 224 \$1 100;
#X obj 115 77 hip~ 200;
#X obj 321 243 line~;
#X obj 267 277 *~ 1.4;
#X obj -23 247 line~;
#X obj -21 277 *~ \$5;
#X obj -47 114 tgl 15 0 empty empty empty 17 7 0 10 -262144 -1 -1 0
1;
#X obj -66 51 ../osc/fRouterspeed3 \$4;
#X obj -65 86 > 0;
#X obj -43 136 input-re-player 2 \$1 \$2 \$3;
#X obj 344 142 *~ 1.4;
#X obj 446 165 *~ 1.4;
#X obj 114 36 adc~ \$5;
#X connect 0 0 17 0;
#X connect 1 0 10 0;
#X connect 2 0 8 0;
#X connect 3 0 24 0;
#X connect 4 0 25 0;
#X connect 5 0 11 0;
#X connect 6 0 11 0;
#X connect 7 0 37 0;
#X connect 8 0 7 0;
#X connect 9 0 38 0;
#X connect 10 0 9 0;
#X connect 11 0 2 0;
#X connect 11 1 1 0;
#X connect 15 0 16 0;
#X connect 16 1 0 0;
#X connect 17 0 18 0;
#X connect 17 1 19 0;
#X connect 18 0 21 0;
#X connect 18 0 36 1;
#X connect 19 0 21 0;
#X connect 19 0 2 0;
#X connect 19 0 1 0;
#X connect 20 0 26 0;
#X connect 21 0 22 0;
#X connect 22 0 29 0;
#X connect 23 0 27 0;
#X connect 24 0 14 0;
#X connect 25 0 13 0;
#X connect 26 0 12 0;
#X connect 27 0 31 0;
#X connect 28 0 20 0;
#X connect 29 0 30 0;
#X connect 30 0 20 1;
#X connect 31 0 32 0;
#X connect 32 0 24 1;
#X connect 32 0 25 1;
#X connect 32 0 26 1;
#X connect 34 0 35 0;
#X connect 35 0 33 0;
#X connect 35 0 36 0;
#X connect 36 0 20 0;
#X connect 36 1 4 0;
#X connect 36 2 3 0;
#X connect 37 0 4 1;
#X connect 38 0 3 1;
#X connect 39 0 28 0;
