#N canvas 97 365 736 462 10;
#X obj 164 264 t b;
#X obj 71 366 outlet~;
#X msg 72 222 bang;
#X obj 164 286 spigot 1;
#X obj 84 58 inlet;
#X obj 72 292 *~;
#X obj -28 -59 inlet;
#X obj 71 242 tabplay~ \$0-a;
#X obj 335 101 sampleRead4 \$0 \$3;
#X obj 334 148 outlet~;
#X obj 450 145 outlet~;
#X obj 316 328 s sampSize\$0;
#X obj 447 104 sampleRead4 \$0 \$2;
#X obj 25 185 tabwrite~ \$0-a;
#X msg -21 144 start;
#X msg 30 136 stop;
#X obj 152 118 sel 1;
#X obj 172 59 inlet~;
#X obj 25 103 del 1000;
#X obj -34 33 onebang 1;
#X obj -30 -32 select 1 0;
#X obj 114 96 tgl 15 0 empty empty empty 17 7 0 10 -262144 -1 -1 1
1;
#X obj 235 88 -~ 0.5;
#X obj 235 112 *~ 0.5;
#X obj 232 140 cos~;
#X obj 71 321 *~;
#X obj 310 58 phasor~ 1;
#X obj 315 249 loadbang;
#X obj 178 177 table \$0-a 88200;
#X msg 317 287 88200;
#X connect 0 0 3 0;
#X connect 2 0 7 0;
#X connect 3 0 7 0;
#X connect 4 0 3 1;
#X connect 4 0 5 1;
#X connect 4 0 16 0;
#X connect 4 0 21 0;
#X connect 5 0 25 0;
#X connect 6 0 20 0;
#X connect 7 0 5 0;
#X connect 7 1 0 0;
#X connect 8 0 9 0;
#X connect 12 0 10 0;
#X connect 14 0 13 0;
#X connect 15 0 13 0;
#X connect 16 0 2 0;
#X connect 17 0 13 0;
#X connect 18 0 15 0;
#X connect 19 0 14 0;
#X connect 20 0 19 0;
#X connect 20 1 19 1;
#X connect 20 1 18 0;
#X connect 22 0 23 0;
#X connect 23 0 24 0;
#X connect 24 0 25 1;
#X connect 25 0 1 0;
#X connect 26 0 22 0;
#X connect 27 0 29 0;
#X connect 29 0 11 0;
