#N canvas 198 374 227 282 10;
#X obj 0 134 soundfiler;
#X obj 93 202 t b;
#X obj 0 234 outlet~;
#X msg 0 111 read -resize \$1 \$2;
#X obj 0 89 pack s s;
#X obj 0 42 t a b;
#X msg 0 156 bang;
#X obj 93 224 spigot 1;
#X obj 159 13 inlet;
#X obj 104 39 sel 1;
#X obj 85 156 table \$0-a;
#X obj 0 180 tabplay~ \$0-a;
#X obj 30 63 symbol \$0-a;
#X obj 3 209 *~;
#X obj 0 0 inlet;
#X connect 0 0 6 0;
#X connect 1 0 7 0;
#X connect 3 0 0 0;
#X connect 4 0 3 0;
#X connect 5 0 4 0;
#X connect 5 1 12 0;
#X connect 6 0 11 0;
#X connect 7 0 11 0;
#X connect 8 0 9 0;
#X connect 8 0 7 1;
#X connect 8 0 13 1;
#X connect 9 0 6 0;
#X connect 11 0 13 0;
#X connect 11 1 1 0;
#X connect 12 0 4 1;
#X connect 13 0 2 0;
#X connect 14 0 5 0;
