#N canvas 140 22 326 353 10;
#X obj 106 59 inlet;
#X obj 95 280 outlet;
#X obj 76 136 openpanel;
#X msg 85 160 add \$1;
#X obj 174 192 \$1;
#X msg 174 216 write \$1.txt cr;
#X obj 174 169 b;
#X msg 175 142 clear;
#X obj 183 254 b;
#X obj 232 275 outlet;
#X obj 93 80 t b b;
#X msg 52 110 bang;
#X connect 0 0 10 0;
#X connect 2 0 3 0;
#X connect 3 0 1 0;
#X connect 3 0 6 0;
#X connect 4 0 5 0;
#X connect 5 0 1 0;
#X connect 5 0 8 0;
#X connect 6 0 4 0;
#X connect 7 0 1 0;
#X connect 7 0 6 0;
#X connect 8 0 9 0;
#X connect 10 0 11 0;
#X connect 10 1 7 0;
#X connect 11 0 2 0;
