#N canvas 937 22 553 865 10;
#X obj 47 658 textfile;
#X msg 48 385 rewind;
#X obj 49 787 soundfiler;
#X obj 189 318 \$0;
#N canvas 0 22 450 300 (subpatch) 0;
#X array \$0-s11-\$1 132989 float 0;
#X coords 0 1 132988 -1 100 40 1;
#X restore 105 168 graph;
#X msg 112 393 read \$1.txt cr;
#X obj 188 357 s initID\$1;
#X obj 87 592 t b f;
#X obj 76 335 t b b f b;
#X obj 189 280 r getInitID\$1;
#X msg 49 748 read -maxsize 1.67772e+07 -resize \$1 \$2;
#X floatatom 220 340 5 0 0 0 - - -;
#X obj 157 302 bng 15 250 50 0 empty empty empty 17 7 0 10 -262144
-1 -1;
#X obj 72 279 loadbang;
#X obj 79 308 \$1;
#X obj 108 110 bng 24 250 50 0 empty empty load 2 32 0 8 -204786 -204800
-258113;
#X msg 1 567 rewind;
#X obj 2 597 bng 15 250 50 0 empty empty empty 17 7 0 10 -262144 -1
-1;
#X obj 139 111 bng 18 250 50 0 empty empty init 2 32 0 8 -261234 -204800
-258113;
#X obj 22 242 panelLoad \$1;
#X obj 48 823 s sampSize\$1;
#X obj 61 713 pack s s;
#X obj 123 679 makefilename \$0-s1%d-\$1;
#X obj 120 627 + 1;
#X obj 160 253 s samp\$1Init;
#X obj 219 110 r initSamples;
#X connect 0 0 21 0;
#X connect 1 0 0 0;
#X connect 2 0 20 0;
#X connect 3 0 6 0;
#X connect 3 0 11 0;
#X connect 5 0 0 0;
#X connect 7 0 0 0;
#X connect 7 1 23 0;
#X connect 8 0 7 0;
#X connect 8 1 1 0;
#X connect 8 2 5 0;
#X connect 8 3 3 0;
#X connect 9 0 3 0;
#X connect 10 0 2 0;
#X connect 12 0 3 0;
#X connect 13 0 14 0;
#X connect 14 0 8 0;
#X connect 15 0 19 0;
#X connect 16 0 0 0;
#X connect 17 0 0 0;
#X connect 18 0 14 0;
#X connect 18 0 24 0;
#X connect 19 0 0 0;
#X connect 19 1 14 0;
#X connect 21 0 10 0;
#X connect 22 0 21 1;
#X connect 23 0 22 0;
#X connect 25 0 18 0;
#X coords 0 -1 1 1 110 130 2 100 100;
