#N canvas 293 209 1156 765 10;
#X obj 417 283 tgl 20 0 empty empty state -3 30 0 10 -204800 -258113
-1 0 1;
#X text 212 508 Object Arguments;
#X text 197 555 - 4 = fid ID;
#X text 197 533 - 1^2^3 = sig Number to multichannel panner;
#X obj 669 243 *~;
#X obj 584 242 *~;
#X obj 538 239 *~;
#X obj 922 234 switch~;
#X obj 657 360 *~;
#X obj 845 360 *~;
#X obj 532 359 *~;
#X obj 376 27 inlet on_off;
#X text 687 359 General level Control;
#X obj 353 252 vsl 15 50 1 20 0 0 empty mapVal\$2 empty 0 -9 0 10 -262144
-1 -1 0 1;
#X obj 384 252 vsl 15 50 1 20 0 0 empty mapVal\$3 empty 0 -9 0 10 -262144
-1 -1 0 1;
#X floatatom 352 311 3 0 0 0 - - -;
#X floatatom 385 310 3 0 0 0 - - -;
#X obj 851 236 *~;
#X obj 866 208 r mainSamp\$5;
#X floatatom 401 339 3 0 0 0 - sampLev#2 -;
#X floatatom 425 339 3 0 0 0 - sampLev#3 -;
#X floatatom 350 340 3 0 0 0 - mainSamp#5 -;
#X floatatom 377 339 3 0 0 0 - sampLev#1 -;
#X text 347 360 main/;
#X text 377 359 ch1/;
#X text 401 359 ch2/;
#X text 425 359 ch3/;
#X text 196 578 - 5 = Reader/Player ID > 100;
#X obj 300 138 sampSR \$5;
#X obj 611 461 ../fx/fxSend \$4 \$1 \$2 \$3;
#X obj 535 392 throw~ sig\$1;
#X obj 657 396 throw~ sig\$2;
#X obj 851 397 throw~ sig\$3;
#X obj 231 246 samplerReader \$5;
#X obj 497 132 sampleRead4 \$5 \$2;
#X obj 373 140 sampleRead4 \$5 \$1;
#X obj 604 146 ../logic/samplerLogic \$1 \$2 \$3 \$4;
#X text 698 242 Mixer for each channel;
#X connect 4 0 8 0;
#X connect 5 0 10 0;
#X connect 6 0 9 0;
#X connect 8 0 29 1;
#X connect 8 0 31 0;
#X connect 9 0 29 2;
#X connect 9 0 32 0;
#X connect 10 0 29 0;
#X connect 10 0 30 0;
#X connect 11 0 0 0;
#X connect 11 0 28 0;
#X connect 11 0 36 0;
#X connect 13 0 15 0;
#X connect 14 0 16 0;
#X connect 17 0 9 1;
#X connect 17 0 8 1;
#X connect 17 0 10 1;
#X connect 18 0 17 1;
#X connect 28 0 6 0;
#X connect 34 0 4 0;
#X connect 35 0 5 0;
#X connect 36 0 6 1;
#X connect 36 1 5 1;
#X connect 36 2 4 1;
#X connect 36 3 17 0;
#X connect 36 4 7 0;
#X coords 0 -1 1 1 230 165 1 225 215;
