#N canvas 366 202 753 508 10;
#X obj 52 250 outlet~;
#X obj 32 79 phasor~;
#X obj 51 123 *~;
#X obj 88 102 - 3;
#X obj 52 161 +~ 1;
#X obj 154 -146 r dp;
#X msg 151 -98 \$1;
#X obj 200 -77 * 2;
#X obj 152 -122 route \$2;
#X obj 96 68 r sampSize\$1;
#X obj 22 -8 sig~;
#X obj 103 186 r setPlayer\$1;
#X obj 53 212 tabread4~;
#X obj 299 -94 r mapVal\$2;
#X obj 115 41 bng 15 250 50 0 empty empty empty 17 7 0 10 -262144 -1
-1;
#X obj 27 39 /~ 10000;
#X obj 201 -44 -;
#X obj 84 -82 ftom;
#X obj 84 -33 mtof;
#X obj 84 -56 i;
#X connect 1 0 2 0;
#X connect 2 0 4 0;
#X connect 3 0 2 1;
#X connect 4 0 12 0;
#X connect 5 0 8 0;
#X connect 6 0 7 0;
#X connect 7 0 16 0;
#X connect 8 0 6 0;
#X connect 9 0 3 0;
#X connect 10 0 15 0;
#X connect 11 0 12 0;
#X connect 12 0 0 0;
#X connect 13 0 16 1;
#X connect 14 0 3 0;
#X connect 15 0 1 0;
#X connect 16 0 17 0;
#X connect 17 0 19 0;
#X connect 18 0 10 0;
#X connect 19 0 18 0;
