#N canvas 229 308 450 300 10;
#X obj 16 42 tabplay~;
#X obj 241 80 pack;
#X msg 244 126 set \$1-s11-\$2;
#X obj 264 60 \$1;
#X obj 235 56 f;
#X obj 153 22 r initID\$1;
#X obj 247 30 t b b b;
#X obj 314 49 s getInitID\$1;
#X obj 153 46 != 0;
#X obj 241 103 spigot;
#X obj 15 -14 inlet;
#X obj 16 111 outlet~;
#X obj 60 85 spigot 1;
#X obj 60 63 b;
#X obj 16 15 sel 1;
#X obj 293 6 loadbang;
#X obj 244 150 s setPlayer\$1;
#X obj 74 -3 r setPlayer\$1;
#X obj 209 -12 r samp\$1Init;
#X connect 0 0 11 0;
#X connect 0 1 13 0;
#X connect 1 0 9 0;
#X connect 2 0 16 0;
#X connect 3 0 1 1;
#X connect 4 0 1 0;
#X connect 5 0 4 1;
#X connect 5 0 8 0;
#X connect 6 0 4 0;
#X connect 6 1 3 0;
#X connect 6 2 7 0;
#X connect 8 0 9 1;
#X connect 9 0 2 0;
#X connect 10 0 14 0;
#X connect 10 0 12 1;
#X connect 12 0 0 0;
#X connect 13 0 12 0;
#X connect 14 0 0 0;
#X connect 15 0 6 0;
#X connect 17 0 0 0;
#X connect 18 0 6 0;
