#N canvas 429 116 644 541 10;
#X obj -141 120 unpack 0 0 0 0;
#X floatatom -151 242 5 0 0 0 - - -;
#X floatatom -101 212 5 0 0 0 - - -;
#X floatatom -61 187 5 0 0 0 - - -;
#X floatatom -20 161 5 0 0 0 - - -;
#X text -264 268 loudest partial;
#X obj 26 127 unpack 0 0 0 0;
#X floatatom 20 240 5 0 0 0 - - -;
#X floatatom 66 219 5 0 0 0 - - -;
#X floatatom 106 194 5 0 0 0 - - -;
#X floatatom 147 168 5 0 0 0 - - -;
#X obj 182 129 unpack 0 0 0 0;
#X floatatom 182 251 5 0 0 0 - - -;
#X floatatom 222 221 5 0 0 0 - - -;
#X floatatom 262 196 5 0 0 0 - - -;
#X floatatom 303 170 5 0 0 0 - - -;
#X obj -104 321 speedlim 100;
#X obj 67 351 osc~;
#X obj 191 362 osc~;
#X obj -124 425 *~;
#X obj 66 399 *~;
#X obj 188 410 *~;
#X obj -152 295 speedlim 50;
#X obj 188 315 speedlim 50;
#X obj 237 281 speedlim 100;
#X obj 80 275 speedlim 100;
#X obj 63 313 speedlim 50;
#X obj 26 47 sigmund~ -npeak 3 peaks;
#X obj 26 75 route 0 1 2;
#X obj -153 328 osc~;
#X obj -40 4 inlet~;
#X obj 175 473 outlet~;
#X obj 63 476 outlet~;
#X obj -212 88 outlet~;
#X obj -120 45 *~ 0.3;
#X obj -99 462 outlet~;
#X obj -193 365 *~ 10000;
#X obj -199 388 clip~ -1 1;
#X connect 0 0 1 0;
#X connect 0 1 2 0;
#X connect 0 2 3 0;
#X connect 0 3 4 0;
#X connect 1 0 22 0;
#X connect 2 0 16 0;
#X connect 6 0 7 0;
#X connect 6 0 26 0;
#X connect 6 1 8 0;
#X connect 6 2 9 0;
#X connect 6 3 10 0;
#X connect 8 0 25 0;
#X connect 11 0 12 0;
#X connect 11 1 13 0;
#X connect 11 2 14 0;
#X connect 11 3 15 0;
#X connect 12 0 23 0;
#X connect 13 0 24 0;
#X connect 16 0 19 1;
#X connect 17 0 20 0;
#X connect 18 0 21 0;
#X connect 19 0 35 0;
#X connect 20 0 32 0;
#X connect 21 0 31 0;
#X connect 22 0 29 0;
#X connect 23 0 18 0;
#X connect 24 0 21 1;
#X connect 25 0 20 1;
#X connect 26 0 17 0;
#X connect 27 0 28 0;
#X connect 28 0 0 0;
#X connect 28 1 6 0;
#X connect 28 2 11 0;
#X connect 29 0 36 0;
#X connect 29 0 19 0;
#X connect 30 0 27 0;
#X connect 30 0 34 0;
#X connect 34 0 33 0;
#X connect 36 0 37 0;
#X connect 37 0 19 0;
