#N canvas 581 22 553 339 10;
#X obj 0 134 soundfiler;
#X obj 75 202 t b;
#X obj 21 270 outlet~;
#X msg 0 111 read -resize \$1 \$2;
#X obj 0 89 pack s s;
#X obj 0 42 t a b;
#X msg 0 156 bang;
#X obj 75 224 spigot 1;
#X obj 159 13 inlet;
#X obj 104 39 sel 1;
#X obj 85 156 table \$0-a;
#X obj 30 63 symbol \$0-a;
#X obj 0 0 inlet;
#X obj 0 180 tabplay~ \$0-a;
#X obj 264 39 sampleRead4 \$0 \$3;
#X obj 263 86 outlet~;
#X obj 376 82 outlet~;
#X obj 208 171 s sampSize\$0;
#X obj 0 303 s sampSize\$0;
#X obj 376 42 sampleRead4 \$0 \$2;
#X obj 21 238 *~;
#X floatatom 186 88 5 0 0 0 - - -;
#X connect 0 0 6 0;
#X connect 0 0 17 0;
#X connect 0 0 18 0;
#X connect 1 0 7 0;
#X connect 3 0 0 0;
#X connect 4 0 3 0;
#X connect 5 0 4 0;
#X connect 5 1 11 0;
#X connect 6 0 13 0;
#X connect 7 0 13 0;
#X connect 8 0 9 0;
#X connect 8 0 7 1;
#X connect 8 0 20 1;
#X connect 8 0 21 0;
#X connect 9 0 6 0;
#X connect 11 0 4 1;
#X connect 12 0 5 0;
#X connect 13 0 20 0;
#X connect 13 1 1 0;
#X connect 14 0 15 0;
#X connect 19 0 16 0;
#X connect 20 0 2 0;
